<?xml version="1.0" standalone="no"?>
<!DOCTYPE svg PUBLIC "-//W3C//DTD SVG 1.1//EN" "http://www.w3.org/Graphics/SVG/1.1/DTD/svg11.dtd" >
<svg>
<metadata>
Created by FontForge 20110222 at Thu May 23 18:29:44 2013
 By Orthosie Webhosting
Copyright (c) 2011 by Ben Dalrymple. All rights reserved.
</metadata>
<defs>
<font id="ArvilRegular" horiz-adv-x="320" >
  <font-face 
    font-family="ArvilRegular"
    font-weight="400"
    font-stretch="normal"
    units-per-em="1000"
    panose-1="2 8 6 6 0 2 0 8 0 0"
    ascent="800"
    descent="-200"
    x-height="695"
    cap-height="700"
    bbox="-38.3846 -159 566 893.513"
    underline-thickness="50"
    underline-position="-50"
    unicode-range="U+0020-2212"
  />
<missing-glyph horiz-adv-x="180" 
 />
    <glyph glyph-name=".notdef" horiz-adv-x="180" 
 />
    <glyph glyph-name=".null" horiz-adv-x="0" 
 />
    <glyph glyph-name="nonmarkingreturn" horiz-adv-x="180" 
 />
    <glyph glyph-name="space" unicode=" " horiz-adv-x="180" 
 />
    <glyph glyph-name="space" unicode="&#xa0;" horiz-adv-x="180" 
 />
    <glyph glyph-name="exclam" unicode="!" horiz-adv-x="143" 
d="M71 56q32 0 32 -8v-43q0 -5 -9 -7.5t-23 -2.5q-31 0 -31 9v1v42q0 5 8.5 7t22.5 2zM72 126q-32 0 -32 8v427v128q0 3 7 7t24 4t24.5 -3.5t7.5 -7.5v-128v-426q0 -5 -8.5 -7t-22.5 -2z" />
    <glyph glyph-name="numbersign" unicode="#" horiz-adv-x="586" 
d="M555 453q7 0 9 -7t2 -18t-2.5 -18.5t-8.5 -7.5h-130q-4 0 -5 -3q0 -1 -4 -14.5t-9.5 -30.5t-10.5 -33.5t-7 -23.5q-2 -4 5 -4h114q7 0 9 -7t2 -18t-2.5 -18.5t-7.5 -7.5h-131q-6 0 -7 -5q0 -1 -3.5 -11t-8 -26.5t-11 -37t-12.5 -42.5q-15 -51 -34 -115q-3 -10 -31 -10
q-14 0 -24.5 1.5t-7.5 12.5q19 63 34 113q6 21 12.5 41.5t11 37t8 26.5t3.5 11q1 4 -3 4h-87q-5 0 -6 -5l-70 -232q-1 -10 -31 -10q-14 0 -24.5 1.5t-6.5 12.5l69 229q1 4 -3 4h-115q-11 0 -11 25q0 26 10 26h130q4 0 4.5 1t2.5 4q9 28 15 50q5 19 9.5 34.5t5.5 16.5
q1 3 -3 3h-116q-11 0 -11 25q0 26 10 26h131q5 0 6 4l3 10.5t8 27t11.5 37t12.5 42.5q15 51 35 116q3 10 31 10q14 0 24.5 -1.5t6.5 -13.5q-19 -64 -34 -113q-6 -21 -12.5 -41.5t-11 -36.5t-7.5 -26t-3 -11q-1 -4 3 -4h87q5 0 6 3l3 10.5t8 27t11 37.5t13 43q15 51 35 116
q1 10 30 10q14 0 25 -1.5t7 -13.5q-19 -63 -34 -113q-6 -21 -12.5 -41.5t-11.5 -37t-8 -26.5l-3 -10q-1 -4 3 -4h115zM356 398q1 4 -4 4h-86q-5 0 -6 -3q-2 -6 -6.5 -22.5t-10 -33.5t-9.5 -30.5t-4 -14.5q-1 -5 3 -5h86q6 0 7 5q2 8 7 24t10 32.5t9 29.5t4 14z" />
    <glyph glyph-name="dollar" unicode="$" horiz-adv-x="279" 
d="M228 552q-14 0 -22 4t-8 7v49q0 14 -8 23t-25 9h-11h-41q-15 0 -23.5 -11t-8.5 -27v-85q0 -28 13 -50.5t33 -43.5t43 -42t43 -45.5t33 -55t13 -69.5v-129q0 -45 -22 -65.5t-65 -20.5h-1v-23v-24q0 -5 -8.5 -7t-22.5 -2t-23 1.5t-9 6.5v48h-1q-43 0 -65 19.5t-22 63.5v49
q0 3 7.5 7.5t23.5 4.5q30 0 30 -12v-49q0 -14 8 -23t25 -9h52q15 0 23.5 11t8.5 27v128q0 25 -13 49t-33 47t-43 46t-43 46.5t-33 47t-13 48.5v107q0 45 22 66t65 21h1v45q0 4 7 7.5t24 3.5t24.5 -3.5t7.5 -7.5v-45h1q87 0 87 -83v-49q0 -11 -31 -11z" />
    <glyph glyph-name="percent" unicode="%" horiz-adv-x="530" 
d="M365 694q14 0 24.5 -1.5t6.5 -12.5l-201 -669q-1 -10 -30 -10q-14 0 -24 1.5t-7 12.5l201 669q3 10 30 10zM204 414q0 -35 -17 -50.5t-50 -15.5h-50q-33 0 -50 15t-17 48v218q0 35 17 50.5t50 15.5h50q33 0 50 -15t17 -48v-218zM132 386q12 0 18.5 9t6.5 21v216
q0 11 -6 18t-19 7l-40 -1q-12 0 -18.5 -8.5t-6.5 -20.5v-216q0 -11 6.5 -18t18.5 -7h40zM443 348q33 0 50 -15t17 -48v-218q0 -67 -67 -67h-50q-67 0 -67 64v218q0 35 17 50.5t50 15.5h50zM463 285q0 10 -6.5 17t-18.5 7h-40q-12 0 -18.5 -8.5t-6.5 -20.5v-216q0 -11 6 -18
t19 -7h40q12 0 18.5 8.5t6.5 21.5v216z" />
    <glyph glyph-name="ampersand" unicode="&#x26;" horiz-adv-x="403" 
d="M323 172q24 -45 42 -87.5t18 -75.5q0 -4 -8.5 -6.5t-22.5 -2.5q-31 0 -31 8q0 17 -10.5 40.5t-24.5 50.5q-16 -30 -30 -52.5t-22 -29.5q-23 -17 -61 -17h-65q-44 0 -66 20t-22 64v134q0 28 9 51t24 42.5t34.5 36.5t40.5 32q-20 38 -32.5 70t-12.5 53v106v4
q0 43 21.5 62.5t64.5 19.5h65q43 0 65 -19.5t22 -62.5v-4v-106q0 -18 -9.5 -35.5t-25.5 -34t-36.5 -33.5t-41.5 -33l37.5 -62.5t39.5 -65.5q3 7 7 15.5t8 16.5q4 9 10 19l7 15q3 8 9.5 11t23.5 3t26.5 -6.5t5.5 -15.5q-8 -18 -18 -38q-8 -17 -18.5 -40t-22.5 -47zM144 523
q0 -20 9.5 -47t26.5 -59q33 24 56.5 49t23.5 57v84q-1 14 -8.5 25.5t-18.5 11.5h-63q-14 0 -20 -11.5t-6 -25.5v-84zM167 51q12 0 23.5 11.5t22 28.5t20 37t17.5 38q-22 39 -46 80t-47 81q-32 -26 -53.5 -52t-21.5 -54v-137q0 -14 7.5 -23.5t24.5 -9.5h53z" />
    <glyph glyph-name="parenleft" unicode="(" horiz-adv-x="195" 
d="M186 -8q4 0 6.5 -7.5t2.5 -19.5q0 -25 -9 -25h-57q-44 0 -66.5 20t-22.5 64v648q0 45 22.5 66t66.5 21h24h33q9 0 9 -25q0 -26 -9 -26h-51q-16 0 -24 -11.5t-8 -27.5v-645q0 -14 7.5 -23t24.5 -9h51v0z" />
    <glyph glyph-name="parenright" unicode=")" horiz-adv-x="195" 
d="M10 708q-10 0 -10 26q0 25 10 25h57q44 0 66 -20t22 -64v-647q0 -46 -22 -67t-66 -21h-24h-33q-10 0 -10 25q0 12 2.5 19.5t7.5 7.5h50q16 0 24.5 11t8.5 28v644q0 14 -8 23t-24 10h-51v0z" />
    <glyph glyph-name="asterisk" unicode="*" horiz-adv-x="336" 
d="M311 612q10 -30 -1 -34l-89 -28q-4 -1 -1 -6l56 -78q2 -3 -2 -10t-18 -17t-22 -11.5t-10 2.5q-15 19 -26 35q-10 14 -18 25t-9 13q-4 4 -6 -1q-2 -2 -11 -13t-19 -25q-12 -16 -26 -35q-2 -3 -10 -1.5t-21 11.5q-14 11 -17.5 18t-1.5 11q16 20 28 37q11 14 19.5 26t9.5 13
q2 2 -1 4q-1 0 -15 5t-31 11q-19 7 -44 15q-3 1 -4 9t5 24q5 16 11 22.5t10 4.5q23 -9 41 -15q16 -5 29 -10t15 -5q3 -1 3 3v90q0 4 7.5 7.5t24.5 3.5t24.5 -3.5t7.5 -7.5v-89q0 -4 4 -2q1 0 15 4.5t31 9.5q19 6 43 14q3 1 8.5 -5t10.5 -22z" />
    <glyph glyph-name="plus" unicode="+" horiz-adv-x="341" 
d="M312 331q5 0 7 -8.5t2 -22.5t-2 -23t-6 -9h-107q-4 0 -4 -5v-113q0 -5 -8.5 -7t-22.5 -2q-32 0 -32 9v114q0 4 -4 4h-106q-5 0 -7 9t-2 23q0 31 8 31h106q5 0 5 5v113q0 5 8.5 7t22.5 2t23 -1.5t9 -6.5v-114q0 -5 7 -5h103v0z" />
    <glyph glyph-name="comma" unicode="," horiz-adv-x="104" 
d="M52 61q14 0 23 -2t9 -6v-43v-13q0 -20 -6.5 -30.5t-24.5 -28.5q-5 -5 -7 -4t-6 4q-5 4 -4.5 6t6.5 8q19 19 18.5 33.5t-14.5 14.5q-26 0 -26 9v1v42q0 5 9 7t23 2z" />
    <glyph glyph-name="hyphen" unicode="-" horiz-adv-x="308" 
d="M279 373q4 0 6.5 -8.5t2.5 -16.5t-2 -16.5t-7 -8.5h-250q-5 0 -7 7t-2 18t2 18t6 7h251v0z" />
    <glyph glyph-name="period" unicode="." horiz-adv-x="104" 
d="M52 56q14 0 23 -2t9 -6v-43q0 -5 -9 -7.5t-23 -2.5t-23 2t-9 7v1v42q0 5 9 7t23 2z" />
    <glyph glyph-name="slash" unicode="/" horiz-adv-x="308" 
d="M256 700q14 0 24.5 -1.5t6.5 -13.5l-204 -680q-3 -10 -31 -10q-14 0 -24.5 1.5t-6.5 12.5l204 681q3 10 31 10z" />
    <glyph glyph-name="zero" unicode="0" horiz-adv-x="319" 
d="M192 695q43 0 65 -19.5t22 -63.5v-526q0 -45 -22 -65.5t-65 -20.5h-65q-43 0 -65 19.5t-22 63.5v526q0 45 22 65.5t65 20.5h65zM134 644q-16 0 -24.5 -11t-8.5 -27v-404v-1l1 1q3 12 11 48.5t18.5 84.5t22 101t21 97.5t16 74t6.5 31.5q2 5 -3 5h-9h-51zM186 51
q16 0 24 11t8 27v399v2q0 2 -2 -2q0 -1 -6.5 -30.5t-16 -74t-21 -97t-21.5 -100t-18 -83t-10 -46.5q-2 -5 2.5 -5.5t8.5 -0.5h52z" />
    <glyph glyph-name="one" unicode="1" horiz-adv-x="257" 
d="M217 5q0 -10 -31 -10t-31 11v534q0 11 -3.5 15.5t-14.5 4.5h-99q-4 0 -11 6.5t-7 20.5t6.5 20.5t11.5 6.5h45q23 0 37.5 5.5t22 15.5t10 24t2.5 31q0 7 7 8.5t24 1.5q31 0 31 -11v-684z" />
    <glyph glyph-name="two" unicode="2" horiz-adv-x="299" 
d="M61 551q-11 0 -17 2t-9 4q-4 3 -5 6v49q0 44 22 63.5t65 19.5h65q43 0 65 -20.5t22 -65.5v-108q0 -25 -13 -48.5t-33 -47t-43 -46t-43 -46t-33 -47t-13 -48.5v-155q0 -12 10 -12h36h27h37q7 0 7 9v72q0 3 4 6q3 2 9 4t17 2t17 -2t9 -4q4 -3 5 -6v-86q0 -23 -9 -34.5
t-41 -11.5h-175q-14 0 -14 9v206q0 39 13 69.5t33 55.5t43 46t43 42t33 43.5t13 50.5v84q0 16 -8.5 27t-23.5 11h-41h-11q-17 0 -25 -9t-8 -23v-49q0 -3 -4 -6q-3 -2 -9 -4t-17 -2z" />
    <glyph glyph-name="three" unicode="3" horiz-adv-x="311" 
d="M271 414q0 -19 -7 -38.5t-28 -19.5q21 0 28 -14t7 -33v-217q0 -46 -22 -66.5t-66 -20.5h-95q-26 0 -42 18t-16 50v63q0 3 5 8t26 5q22 0 26.5 -4t4.5 -9v-52q0 -13 7.5 -21t20.5 -8h57q20 0 26.5 9.5t6.5 29.5v205q0 10 -4.5 20.5t-27.5 10.5h-94q-3 0 -7 6.5t-4 19.5
q0 27 11 27h93q33 0 33 40v201q0 14 -4.5 19.5t-17.5 5.5h-80q-16 0 -16 -17v-63q0 -5 -8.5 -9t-23.5 -4t-22.5 4.5t-7.5 8.5v69q0 30 13 46t45 16h115q40 0 54 -16.5t14 -54.5v-215v0z" />
    <glyph glyph-name="four" unicode="4" horiz-adv-x="337" 
d="M307 180q0 -25 -9 -25h-30q-4 0 -4 -4v-145q0 -11 -31 -11t-31 9v146q0 5 -4 5h-145q-25 0 -30 12.5t1 29.5q1 4 9.5 28t21.5 59t28.5 79t31.5 89q38 106 85 237q1 2 7.5 6.5t23.5 4.5q16 0 24.5 -3.5t8.5 -6.5v-477q0 -6 6 -6h28q3 0 6 -7t3 -20zM195 207q7 0 7 6v290
q0 5 -1 3.5t-2 -3.5q-13 -36 -27 -75t-27.5 -76.5t-26 -72.5l-22.5 -63q-1 -2 0 -5.5t5 -3.5h94z" />
    <glyph glyph-name="five" unicode="5" horiz-adv-x="300" 
d="M188 391q38 0 60 -19.5t22 -57.5v-32v-29v-165q0 -83 -73 -83h-111q-22 0 -39 14t-17 45v78q0 5 10 7.5t22 2.5q11 0 20.5 -3.5t9.5 -8.5v-50q0 -16 6.5 -25t23.5 -9h54q16 0 24.5 9.5t8.5 22.5v165v29v20q0 18 -7 28.5t-25 10.5h-110q-18 0 -27.5 5t-9.5 25v63l1 1v257
q0 8 6 8h223q10 0 10 -25q0 -26 -11 -26h-161q-6 0 -6 -8v-161v-82q0 -6 5 -6q2 0 16 -0.5t31 -0.5h44v0z" />
    <glyph glyph-name="six" unicode="6" horiz-adv-x="310" 
d="M280 83q0 -83 -74 -83h-110q-22 0 -39 14t-17 45v554q0 43 22 62.5t65 19.5h65q43 0 65 -20.5t22 -65.5v-52q0 -3 -8.5 -5t-22.5 -2q-30 0 -30 7v50q0 16 -8.5 27t-23.5 11h-52q-17 0 -24.5 -9t-7.5 -23v-228q0 -6 5 -6h90q38 0 60.5 -20t22.5 -58v-218zM219 289
q0 39 -32 39h-47q-19 0 -28.5 -9t-9.5 -31v-203q0 -16 6 -25t23 -9h55q15 0 24 9.5t9 22.5v206z" />
    <glyph glyph-name="seven" unicode="7" horiz-adv-x="288" 
d="M250 695q13 0 15.5 -4t2.5 -10v-90q0 -25 -9 -63.5t-23 -84.5t-30 -96.5t-30 -100.5t-23 -97t-9 -84v-54q0 -7 -9.5 -11.5t-20.5 -4.5t-21.5 4.5t-10.5 13.5v52q0 39 9 86t23 96.5t30 99.5t30 97t23 87.5t9 71.5v34q0 7 -8 7h-66h-99q-5 0 -9 7.5t-4 18.5q0 25 11 25h219
v0z" />
    <glyph glyph-name="eight" unicode="8" 
d="M280 418q0 -11 -1.5 -23t-5.5 -22t-10.5 -16t-16.5 -6q10 0 16.5 -7t10.5 -16.5t5.5 -21t1.5 -20.5v-199q0 -45 -22 -65.5t-65 -20.5h-65h-6q-41 1 -61.5 21.5t-20.5 64.5v199q0 9 1.5 20.5t5.5 21.5t10.5 17t16.5 7q-10 0 -16.5 6t-10.5 15.5t-5.5 21.5t-1.5 23v194
q0 42 20.5 62t61.5 21v1q0 -1 10.5 -0.5t24.5 0.5h36q43 0 65 -20t22 -64v-194zM219 295q0 10 -5 20.5t-28 10.5h-8h-51q-18 -2 -22 -12t-4 -19v-205q0 -20 6.5 -29t26.5 -9h52q20 0 26.5 9t6.5 29v205zM187 378q32 0 32 40v194q0 13 -8.5 23t-24.5 10h-53
q-15 -1 -23.5 -10.5t-8.5 -22.5v-194q0 -40 32 -40h54z" />
    <glyph glyph-name="nine" unicode="9" horiz-adv-x="304" 
d="M264 81q0 -42 -21.5 -61.5t-63.5 -19.5h-64q-42 0 -63.5 20t-21.5 65v50q0 6 10 9t21 3q12 0 20.5 -4t8.5 -8v-48q0 -15 8 -26t23 -11h51q16 0 24 9t8 22v252q0 4 -5 4h-88q-38 0 -59.5 19t-21.5 57v202q0 80 71 80h108q22 0 38.5 -13.5t16.5 -43.5v-557zM197 386
q4 0 5.5 2t1.5 10v22v40.5t-0.5 49.5t-0.5 48v37.5v17.5q0 16 -6 24.5t-23 8.5h-53q-15 0 -23 -9.5t-8 -21.5v-191q0 -18 7 -28t24 -10h76z" />
    <glyph glyph-name="colon" unicode=":" horiz-adv-x="103" 
d="M51 61q14 0 23 -2t9 -6v-43q0 -5 -9 -7.5t-23 -2.5q-31 0 -31 9v1v42q0 5 8.5 7t22.5 2zM51 228q14 0 23 -1.5t9 -6.5v-43q0 -5 -9 -7t-23 -2q-31 0 -31 8v1v42q0 6 8.5 7.5t22.5 1.5z" />
    <glyph glyph-name="semicolon" unicode=";" horiz-adv-x="104" 
d="M52 61q14 0 23 -2t9 -6v-43v-13q0 -20 -6.5 -30.5t-24.5 -28.5q-5 -5 -7 -4t-6 4q-5 4 -4.5 6t6.5 8q19 19 18.5 33.5t-14.5 14.5q-26 0 -26 9v1v42q0 5 9 7t23 2zM52 228q14 0 23 -1.5t9 -6.5v-43q0 -5 -9 -7t-23 -2t-23 1.5t-9 6.5v1v42q0 6 9 7.5t23 1.5z" />
    <glyph glyph-name="less" unicode="&#x3c;" horiz-adv-x="222" 
d="M165 493q3 3 10.5 -1.5t13.5 -10.5q5 -5 10 -12.5t2 -10.5l-107 -107q-10 -10 0 -19l106 -106q4 -4 0 -10t-11 -14q-8 -8 -14.5 -11.5t-9.5 -0.5l-118 118q-33 34 0 67q2 2 20.5 20t40.5 40q26 26 57 58z" />
    <glyph glyph-name="equal" unicode="=" horiz-adv-x="341" 
d="M312 274q4 0 6.5 -8.5t2.5 -16.5t-2 -16.5t-6 -8.5h-284q-5 0 -7 7t-2 18t1.5 18t6.5 7h284zM312 395q4 0 6.5 -8.5t2.5 -16.5t-2 -16.5t-6 -8.5h-284q-5 0 -7 7t-2 18t1.5 18t6.5 7h284z" />
    <glyph glyph-name="greater" unicode="&#x3e;" horiz-adv-x="222" 
d="M57 190q-3 -3 -11 1.5t-13 9.5q-5 6 -10 13.5t-2 10.5l107 107q9 9 0 18l-55 55q-23 23 -51 52q-4 4 -0.5 10t11.5 14q8 7 14.5 11t9.5 1l118 -119q17 -17 16.5 -33t-16.5 -33l-118 -118v0z" />
    <glyph glyph-name="question" unicode="?" horiz-adv-x="294" 
d="M134 56q32 0 32 -8v-43q0 -5 -9 -7.5t-23 -2.5q-31 0 -31 9v1v42q0 5 8.5 7t22.5 2zM175 695q44 0 66.5 -21t22.5 -67v-109q0 -38 -15.5 -73.5t-33.5 -70.5t-33.5 -71t-15.5 -74v-72q0 -5 -9 -7t-23 -2q-31 0 -31 8v71q0 40 7.5 71t18 56t23.5 46.5t23.5 43t18 44.5
t7.5 51v85q0 17 -8 28t-24 11h-42h-11q-17 0 -25 -9t-8 -23v-50q0 -3 -8.5 -7t-22.5 -4q-32 0 -32 11v50q0 44 22.5 64t66.5 20h66z" />
    <glyph glyph-name="at" unicode="@" horiz-adv-x="548" 
d="M430 695q43 0 65.5 -19.5t22.5 -63.5v-378q0 -45 -22.5 -65.5t-65.5 -20.5h-78q-4 0 -7 1t-3 6v10.5t-1 11.5q0 5 -4.5 0t-23.5 -5h-39q-16 0 -35 1q-38 0 -59.5 19.5t-21.5 57.5v215q0 43 18.5 62.5t53.5 19.5h141q14 0 19 -7t5 -18v-316q0 -7 7 -7h22q16 0 24 11t8 27
v375q0 14 -7.5 23t-24.5 9h-300q-16 0 -24 -11t-8 -27v-523q0 -14 8 -23t24 -9h50q10 0 10 -26q0 -25 -10 -25h-56q-43 0 -65.5 19.5t-22.5 63.5v525q0 46 22.5 66.5t65.5 20.5h312zM334 484q0 8 -2 10.5t-10 2.5h-71q-16 0 -24.5 -9.5t-8.5 -21.5v-205q0 -18 7 -28t25 -10
h46q19 0 28.5 9t9.5 30v222z" />
    <glyph glyph-name="A" unicode="A" horiz-adv-x="312" 
d="M200 201q8 0 6 10q0 1 -3 24.5t-7.5 60.5t-10 82t-11 88t-9.5 79t-6 55q-1 8 -2 7t-2 -7q-2 -19 -6.5 -55t-9.5 -79t-11 -88t-10.5 -82t-7.5 -61t-3 -25q0 -9 6 -9h87zM156 700q35 0 47.5 -11t14.5 -26q0 -2 3.5 -31.5t8.5 -76t11.5 -105t13.5 -119.5t13.5 -119.5
t11.5 -104.5t8 -74t3 -29q1 -2 -5.5 -5.5t-24.5 -3.5t-23.5 3t-6.5 5q0 1 -2.5 22t-5.5 46t-5.5 46t-2.5 24q-1 7 -7 7h-100q-8 0 -9 -6q0 -2 -3 -23t-6 -46t-5.5 -46.5t-2.5 -22.5q-1 -3 -6.5 -6t-25.5 -3t-25 2.5t-4 5.5q0 1 3 29t8.5 74t12 104.5t13.5 120t14 120t12 105
t8.5 75t3.5 30.5q2 17 14 28t46 11z" />
    <glyph glyph-name="B" unicode="B" horiz-adv-x="310" 
d="M219 295q0 15 -7 23t-26 8h-78q-7 0 -7 -6v-262q0 -7 6 -7h79q20 0 26.5 9.5t6.5 29.5v104v101zM106 645q-5 0 -5 -6v-256q0 -5 6 -5q2 0 14 -0.5t27 -0.5h39q17 0 24.5 11t7.5 30v194q0 15 -8.5 24t-24.5 9h-80zM193 695q43 0 65 -19.5t22 -63.5v-194q0 -11 -1.5 -23
t-5.5 -22t-10.5 -16t-16.5 -6q20 0 27 -15t7 -34v-108v-11v-96q0 -45 -22 -66t-65 -21h-148q-5 0 -5 6v177v11v495q0 6 6 6h147z" />
    <glyph glyph-name="C" unicode="C" horiz-adv-x="310" 
d="M248 151q14 0 23 -4t9 -8v-56q0 -45 -22.5 -64t-64.5 -19h-66q-87 0 -87 83v526q0 45 22 65.5t65 20.5h66q42 0 64.5 -19.5t22.5 -63.5v-48q0 -3 -9 -6t-22 -3q-14 0 -22.5 2.5t-8.5 6.5v48q0 14 -7.5 23.5t-24.5 9.5h-52q-32 0 -32 -39v-523q0 -14 7.5 -23t24.5 -9h52
q32 0 32 32v56q0 3 8 7.5t22 4.5z" />
    <glyph glyph-name="D" unicode="D" 
d="M218 612q0 14 -8 23.5t-24 9.5h-79q-6 0 -6 -6v-579q0 -9 7 -9h78q16 0 24 11t8 28v522zM192 695q43 0 65.5 -19.5t22.5 -63.5v-525q0 -45 -22.5 -66t-65.5 -21h-142q-10 0 -10 10v677q0 8 8 8h144z" />
    <glyph glyph-name="E" unicode="E" horiz-adv-x="264" 
d="M223 51q5 0 8 -4t3 -21q0 -16 -3 -21t-7 -5l-176 1q-8 0 -8 7v678q0 9 9 9h173q5 0 8 -7t3 -17q0 -9 -2.5 -17.5t-7.5 -8.5h-116q-6 0 -6 -6v-252q0 -6 5 -6h106q3 0 6.5 -4.5t3.5 -21.5t-3.5 -21.5t-7.5 -4.5h-103q-7 0 -7 -8v-263q0 -7 7 -7h115v0z" />
    <glyph glyph-name="F" unicode="F" horiz-adv-x="264" 
d="M224 695q10 0 10 -22q0 -10 -2.5 -19t-8.5 -9h-116q-6 0 -6 -6v-252q0 -6 5 -6h106q10 0 10 -26t-11 -26h-104q-6 0 -6 -8v-313q0 -3 -8.5 -8t-22.5 -5t-22 4t-8 9v677q0 10 9 10h175v0z" />
    <glyph glyph-name="G" unicode="G" horiz-adv-x="319" 
d="M248 554q-12 0 -21 2.5t-9 7.5v45q0 14 -6 25t-23 11h-56q-15 0 -23.5 -11t-8.5 -28v-523q0 -14 8 -23t25 -9h51q19 0 26 9t7 20v170q0 9 -10 9h-66q-4 0 -7 5t-3 22q0 16 3 21t8 5h110q18 0 22 -11t4 -22v-192q0 -45 -22 -66t-65 -21h-65q-87 0 -87 83v526
q0 45 20.5 65.5t66.5 20.5h65q43 0 65 -19.5t22 -63.5v-48q0 -4 -9 -7t-22 -3z" />
    <glyph glyph-name="H" unicode="H" horiz-adv-x="322" 
d="M282 4q0 -5 -9.5 -7t-21.5 -2q-11 0 -21 2t-10 6v320q0 7 -7 7h-106q-5 0 -5 -7v-317q0 -5 -9.5 -8t-21.5 -3t-21.5 1.5t-9.5 6.5v687q0 3 6 6.5t25 3.5q18 0 24.5 -3.5t6.5 -7.5v-299q0 -7 6 -7h105q7 0 7 6v301q0 3 7.5 6.5t23.5 3.5q31 0 31 -11v-685v0z" />
    <glyph glyph-name="I" unicode="I" horiz-adv-x="163" 
d="M82 -5q-32 0 -32 9v685q0 4 7 7.5t24 3.5t24.5 -3.5t7.5 -7.5v-683q0 -11 -31 -11z" />
    <glyph glyph-name="J" unicode="J" horiz-adv-x="311" 
d="M271 84q0 -45 -22 -64.5t-66 -19.5h-65q-43 0 -65.5 20.5t-22.5 66.5v52q0 4 9 8t23 4t22 -3.5t8 -8.5v-49q0 -17 8.5 -28t23.5 -11h42h11q17 0 24.5 9.5t7.5 23.5v605q0 4 5.5 7.5t25.5 3.5t25.5 -3t5.5 -8v-605z" />
    <glyph glyph-name="K" unicode="K" 
d="M170 340q0 -2 5.5 -17t13.5 -39t19 -54t22 -61q26 -73 59 -165q1 -2 -5.5 -5.5t-24.5 -3.5q-20 0 -26.5 2t-7.5 4l-91 253q-1 4 -3 4.5t-3 -3.5l-25 -69q-1 -2 -1 -5.5v-5.5v-167q0 -5 -12 -7.5t-19 -2.5q-8 0 -19.5 1.5t-11.5 6.5v684q0 3 8 6.5t22 3.5q15 0 23.5 -3.5
t8.5 -7.5v-329q0 -2 1 -3t3 3q0 1 5.5 15.5t14 38t19 53t21.5 60.5l58 164q1 3 7.5 6t24.5 3q17 0 24.5 -3.5t6.5 -6.5q-19 -54 -39 -110q-17 -48 -37.5 -107t-40.5 -116q-3 -10 0 -17z" />
    <glyph glyph-name="L" unicode="L" horiz-adv-x="261" 
d="M221 51q10 0 10 -26q0 -25 -10 -25h-172q-9 0 -9 8v682q0 3 7.5 6.5t23.5 3.5q15 0 23 -3.5t8 -8.5v-630q0 -7 5 -7h114v0z" />
    <glyph glyph-name="M" unicode="M" horiz-adv-x="447" 
d="M313 685q2 6 14.5 10.5t32.5 4.5t33.5 -5t13.5 -13v-675q0 -4 -7.5 -8t-22.5 -4t-24 4t-9 7v527q0 4 -0.5 5t-1.5 -2q-24 -89 -42 -160q-8 -30 -15.5 -59.5t-13.5 -53t-10 -38t-4 -15.5q-2 -5 -9 -8.5t-24 -3.5t-24.5 3.5t-9.5 8.5q0 1 -4 15.5t-10 38t-13.5 53
t-15.5 59.5q-18 71 -42 160q-1 4 -1 -3v-527q0 -3 -9 -7t-25 -4q-15 0 -22.5 4t-7.5 8v675q0 8 14 13t33 5q20 0 33 -4.5t14 -10.5l90 -344z" />
    <glyph glyph-name="N" unicode="N" horiz-adv-x="327" 
d="M286 6q0 -4 -7 -7.5t-23 -3.5t-22.5 4t-8.5 8q0 1 -9 32.5t-22.5 78t-28.5 100.5t-28.5 100t-22.5 77t-9 32q-1 3 -2 3.5t-1 -3.5v-421q0 -3 -8 -7t-23 -4q-14 0 -22.5 3.5t-8.5 8.5v681q0 8 7.5 10t23.5 2q30 0 34 -8q31 -115 57 -207q11 -39 21.5 -76.5t18.5 -67
t13.5 -48t5.5 -19.5q1 -3 2 -5t1 6v415q0 10 31 10q32 0 32 -11l-1 -683v0z" />
    <glyph glyph-name="O" unicode="O" 
d="M218 612q0 14 -7.5 23t-24.5 9h-52q-16 0 -24 -11t-8 -27v-523q0 -14 8 -23t24 -9h52q16 0 24 11t8 27v523zM193 695q43 0 65 -19.5t22 -63.5v-526q0 -45 -22 -65.5t-65 -20.5h-65q-43 0 -65.5 19.5t-22.5 63.5v526q0 45 22.5 65.5t65.5 20.5h65z" />
    <glyph glyph-name="P" unicode="P" horiz-adv-x="311" 
d="M219 612q0 13 -8.5 22.5t-24.5 9.5h-77q-7 0 -7 -5v-256q0 -7 6 -7h79q17 0 24.5 10.5t7.5 28.5v197zM207 695q74 0 74 -83v-208q0 -39 -22.5 -59t-61.5 -20h-90q-5 0 -5 -5v-315q0 -3 -8.5 -6.5t-23.5 -3.5t-22.5 3.5t-7.5 7.5v681q0 8 10 8h157z" />
    <glyph glyph-name="Q" unicode="Q" 
d="M102 83q0 -14 8 -23.5t25 -9.5q1 -1 2 0q1 0 1 4l-13 41q-2 5 8 11.5t16 8.5q7 2 19.5 3.5t14.5 -3.5l18 -56q1 -3 3 -3q5 2 9.5 10.5t4.5 22.5v523q0 14 -7.5 23t-24.5 9h-52q-32 0 -32 -34v-527zM193 695q43 0 65 -19.5t22 -63.5v-526q0 -72 -56 -83q-3 -1 -4 -1.5
t1 -5.5q1 -3 2.5 -7t3.5 -9t3 -11q2 -5 -6 -10.5t-19 -10.5t-20.5 -5t-11.5 5l-15 45q-2 5 -3.5 6t-9.5 1h-17q-43 0 -65.5 19.5t-22.5 63.5v526q0 45 22.5 65.5t65.5 20.5h65z" />
    <glyph glyph-name="R" unicode="R" horiz-adv-x="319" 
d="M189 375q28 0 28 28v212q0 11 -6.5 20t-24.5 9h-77q-7 0 -7 -6v-257q0 -6 6 -6h81zM279 401q0 -16 -10.5 -33t-30.5 -17q20 0 30.5 -14t10.5 -29v-302q0 -11 -30 -11q-14 0 -23 3t-9 8v298q0 8 -2.5 13.5t-13.5 5.5h-92q-7 0 -7 -5v-312q0 -3 -8.5 -6.5t-22.5 -3.5
t-22.5 3.5t-8.5 7.5v681q0 7 8 7h161q35 0 52.5 -23t17.5 -50v-221z" />
    <glyph glyph-name="S" unicode="S" horiz-adv-x="299" 
d="M238 552q-14 0 -22.5 4t-8.5 7v49q0 14 -7.5 23t-24.5 9h-11h-41q-16 0 -24 -11t-8 -27v-84q0 -28 13 -50.5t33 -43.5t43 -42t43 -46t33 -55.5t13 -69.5v-129q0 -45 -22 -65.5t-65 -20.5h-65q-43 0 -65 19.5t-22 63.5v49q0 3 7 7.5t24 4.5q30 0 30 -12v-49q0 -14 8 -23
t25 -9h51q16 0 24 11t8 27v129q0 25 -13 48.5t-33 47t-42.5 46t-42.5 46t-33 47t-13 48.5v108q0 45 22 65.5t65 20.5h65q43 0 65 -19.5t22 -63.5v-49q0 -11 -31 -11z" />
    <glyph glyph-name="T" unicode="T" horiz-adv-x="319" 
d="M288 695q7 0 9 -7t2 -18t-2.5 -18.5t-7.5 -7.5h-92q-5 0 -5 -6v-632q0 -5 -12 -8t-19 -3q-8 0 -19.5 1.5t-11.5 6.5v635q0 6 -7 6h-91q-12 0 -12 25q0 26 11 26h257v0z" />
    <glyph glyph-name="U" unicode="U" horiz-adv-x="321" 
d="M281 87q0 -45 -22 -66t-66 -21h-66q-43 0 -65 20t-22 64v606q0 4 9 7t21 3t21.5 -3t9.5 -8v-605q0 -14 8 -23t25 -9h53q16 0 24 11t8 27v600q0 4 8 7t22 3t23 -3t9 -8v-602z" />
    <glyph glyph-name="V" unicode="V" horiz-adv-x="326" 
d="M275 700q14 0 22.5 -4t8.5 -7l-112 -686q-1 -5 -12 -6.5t-19 -1.5q-7 0 -18 1.5t-12 6.5l-112 686q-1 4 6 7.5t24 3.5q31 0 33 -9l77 -469q1 -5 2.5 -5t2.5 5l77 469q1 5 9.5 7t22.5 2z" />
    <glyph glyph-name="W" unicode="W" horiz-adv-x="486" 
d="M438 700q9 0 18.5 -2.5t8.5 -6.5l-101 -688q-1 -5 -9.5 -6.5t-18.5 -1.5q-11 0 -19 1.5t-9 6.5l-32 216q-6 40 -12 79.5t-10.5 70t-7 50t-2.5 20.5q-1 4 -1.5 3t-0.5 -3q0 -1 -3 -20t-7.5 -49.5t-10.5 -69.5t-12 -80q-14 -96 -32 -217q0 -5 -9.5 -6.5t-18.5 -1.5
q-8 0 -17.5 1.5t-9.5 6.5l-102 688q0 3 6.5 6t20.5 3t21.5 -0.5t8.5 -5.5l70 -472q2 -10 5 1q18 130 32 233q6 44 12 86t10.5 75.5t7.5 54t3 21.5q0 7 24 7t25 -7q0 -1 3 -22t7.5 -54t11 -75t12.5 -86q15 -103 33 -234q1 -5 2.5 -4.5t2.5 5.5l3 20.5t8 54t11.5 75.5t12.5 86
q15 103 35 234q1 4 10.5 5.5t19.5 1.5z" />
    <glyph glyph-name="X" unicode="X" horiz-adv-x="302" 
d="M183 348q13 -53 28 -112.5t29 -111.5q16 -61 31 -120q1 -5 -7.5 -7t-21.5 -2q-12 0 -20 1.5t-10 6.5l-59 232q-2 5 -4 0l-59 -231q-1 -4 -6.5 -6.5t-22.5 -2.5q-18 0 -24.5 2.5t-5.5 6.5l44 172q8 32 16 63t14.5 56t10.5 40t4 16q1 7 0 16q0 1 -4 15.5t-10 37.5t-13.5 52
t-14.5 59q-18 70 -41 160q-2 9 26 9q14 0 22 -0.5t9 -5.5q8 -30 17 -64q8 -29 18 -68t21 -82q0 -2 1 -2t2 2q5 15 9 33q4 15 8.5 34t9.5 39q11 47 27 106q2 8 31 8q30 0 27 -10q-2 -7 -6.5 -25l-10.5 -42t-13 -52.5t-14 -56.5q-17 -67 -38 -148q-3 -9 0 -18z" />
    <glyph glyph-name="Y" unicode="Y" horiz-adv-x="300" 
d="M252 700q30 0 27 -11q-2 -7 -7 -26.5t-12 -46.5t-15.5 -59t-17.5 -65q-20 -77 -44 -169q-2 -5 -2 -13v-298v-7q0 -3 -8 -6.5t-21 -3.5q-14 0 -21.5 3.5t-7.5 8.5v6v296v6t-1 5q-26 93 -47 170q-9 33 -18 65.5t-16.5 59.5t-12.5 47t-7 27q-3 11 27 11q29 2 31 -7l69 -252
q2 -5 4 -1l34 126q15 55 35 126q2 10 31 8z" />
    <glyph glyph-name="Z" unicode="Z" horiz-adv-x="285" 
d="M254 53q0 -24 -8.5 -38.5t-35.5 -14.5h-140q-20 0 -31.5 14.5t-6.5 33.5q1 3 8 30t18.5 69t25.5 94t29 106q34 127 78 285q2 5 0 8.5t-10 3.5h-76q-18 0 -18 -20v-61q0 -3 -8 -7t-21 -4t-20 4t-7 7v77q0 20 8 37.5t34 17.5h150q17 0 26 -12.5t4 -33.5l-161 -588
q-4 -10 5 -10h85q8 0 12 4t4 16v61q0 13 28 13t28 -13v-79v0z" />
    <glyph glyph-name="bracketleft" unicode="[" horiz-adv-x="196" 
d="M186 -8q10 0 10 -27q0 -25 -10 -25h-136q-10 0 -10 9v802q0 8 10 8h136q10 0 10 -25q0 -26 -10 -26h-78q-5 0 -5 -7v-703q0 -6 5 -6h78v0z" />
    <glyph glyph-name="backslash" unicode="\" horiz-adv-x="308" 
d="M52 700q28 0 31 -10l204 -681q4 -11 -6.5 -12.5t-24.5 -1.5q-30 0 -31 10l-204 680q-4 12 6.5 13.5t24.5 1.5z" />
    <glyph glyph-name="bracketright" unicode="]" horiz-adv-x="195" 
d="M10 708q-10 0 -10 26q0 25 10 25h136q9 0 9 -8v-802q0 -9 -9 -9h-136q-10 0 -10 25q0 27 10 27h78q5 0 5 6v703q0 7 -5 7h-78v0z" />
    <glyph glyph-name="asciicircum" unicode="^" horiz-adv-x="281" 
d="M259 591q3 -3 -1.5 -10.5t-9.5 -13.5q-5 -5 -12.5 -10t-10.5 -2l-75 74q-5 5 -9 5.5t-10 -4.5q-1 -1 -12 -12.5t-25 -25.5l-36 -36q-4 -4 -10 0t-14 11q-8 8 -11.5 14.5t-0.5 9.5l85 85q18 18 34 17.5t33 -17.5l85 -85v0z" />
    <glyph glyph-name="underscore" unicode="_" horiz-adv-x="528" 
d="M499 51q5 0 7 -9t2 -17t-1.5 -16.5t-6.5 -8.5h-471q-5 0 -7 7t-2 18t2 18.5t7 7.5h470v0z" />
    <glyph glyph-name="grave" unicode="`" horiz-adv-x="152" 
d="M141 573q4 -8 -10 -22q-15 -15 -22 -11l-93 94q-6 6 -6 12.5t13 18.5q12 13 19.5 14t12.5 -5q11 -13 25.5 -30t28.5 -33q16 -18 32 -38z" />
    <glyph glyph-name="a" unicode="a" horiz-adv-x="312" 
d="M200 201q8 0 6 10q0 1 -3 24.5t-7.5 60.5t-10 82t-11 88t-9.5 79t-6 55q-1 8 -2 7t-2 -7q-2 -19 -6.5 -55t-9.5 -79t-11 -88t-10.5 -82t-7.5 -61t-3 -25q0 -9 6 -9h87zM156 700q35 0 47.5 -11t14.5 -26q0 -2 3.5 -31.5t8.5 -76t11.5 -105t13.5 -119.5t13.5 -119.5
t11.5 -104.5t8 -74t3 -29q1 -2 -5.5 -5.5t-24.5 -3.5t-23.5 3t-6.5 5q0 1 -2.5 22t-5.5 46t-5.5 46t-2.5 24q-1 7 -7 7h-100q-8 0 -9 -6q0 -2 -3 -23t-6 -46t-5.5 -46.5t-2.5 -22.5q-1 -3 -6.5 -6t-25.5 -3t-25 2.5t-4 5.5q0 1 3 29t8.5 74t12 104.5t13.5 120t14 120t12 105
t8.5 75t3.5 30.5q2 17 14 28t46 11z" />
    <glyph glyph-name="b" unicode="b" horiz-adv-x="310" 
d="M219 295q0 15 -7 23t-26 8h-78q-7 0 -7 -6v-262q0 -7 6 -7h79q20 0 26.5 9.5t6.5 29.5v104v101zM106 645q-5 0 -5 -6v-256q0 -5 6 -5q2 0 14 -0.5t27 -0.5h39q17 0 24.5 11t7.5 30v194q0 15 -8.5 24t-24.5 9h-80zM193 695q43 0 65 -19.5t22 -63.5v-194q0 -11 -1.5 -23
t-5.5 -22t-10.5 -16t-16.5 -6q20 0 27 -15t7 -34v-108v-11v-96q0 -45 -22 -66t-65 -21h-148q-5 0 -5 6v177v11v495q0 6 6 6h147z" />
    <glyph glyph-name="c" unicode="c" horiz-adv-x="310" 
d="M248 151q14 0 23 -4t9 -8v-56q0 -45 -22.5 -64t-64.5 -19h-66q-87 0 -87 83v526q0 45 22 65.5t65 20.5h66q42 0 64.5 -19.5t22.5 -63.5v-48q0 -3 -9 -6t-22 -3q-14 0 -22.5 2.5t-8.5 6.5v48q0 14 -7.5 23.5t-24.5 9.5h-52q-32 0 -32 -39v-523q0 -14 7.5 -23t24.5 -9h52
q32 0 32 32v56q0 3 8 7.5t22 4.5z" />
    <glyph glyph-name="d" unicode="d" 
d="M218 612q0 14 -8 23.5t-24 9.5h-79q-6 0 -6 -6v-579q0 -9 7 -9h78q16 0 24 11t8 28v522zM192 695q43 0 65.5 -19.5t22.5 -63.5v-525q0 -45 -22.5 -66t-65.5 -21h-142q-10 0 -10 10v677q0 8 8 8h144z" />
    <glyph glyph-name="e" unicode="e" horiz-adv-x="264" 
d="M223 51q5 0 8 -4t3 -21q0 -16 -3 -21t-7 -5l-176 1q-8 0 -8 7v678q0 9 9 9h173q5 0 8 -7t3 -17q0 -9 -2.5 -17.5t-7.5 -8.5h-116q-6 0 -6 -6v-252q0 -6 5 -6h106q3 0 6.5 -4.5t3.5 -21.5t-3.5 -21.5t-7.5 -4.5h-103q-7 0 -7 -8v-263q0 -7 7 -7h115v0z" />
    <glyph glyph-name="f" unicode="f" horiz-adv-x="264" 
d="M224 695q10 0 10 -22q0 -10 -2.5 -19t-8.5 -9h-116q-6 0 -6 -6v-252q0 -6 5 -6h106q10 0 10 -26t-11 -26h-104q-6 0 -6 -8v-313q0 -3 -8.5 -8t-22.5 -5t-22 4t-8 9v677q0 10 9 10h175v0z" />
    <glyph glyph-name="g" unicode="g" horiz-adv-x="319" 
d="M248 554q-12 0 -21 2.5t-9 7.5v45q0 14 -6 25t-23 11h-56q-15 0 -23.5 -11t-8.5 -28v-523q0 -14 8 -23t25 -9h51q19 0 26 9t7 20v170q0 9 -10 9h-66q-4 0 -7 5t-3 22q0 16 3 21t8 5h110q18 0 22 -11t4 -22v-192q0 -45 -22 -66t-65 -21h-65q-87 0 -87 83v526
q0 45 20.5 65.5t66.5 20.5h65q43 0 65 -19.5t22 -63.5v-48q0 -4 -9 -7t-22 -3z" />
    <glyph glyph-name="h" unicode="h" horiz-adv-x="322" 
d="M282 4q0 -5 -9.5 -7t-21.5 -2q-11 0 -21 2t-10 6v320q0 7 -7 7h-106q-5 0 -5 -7v-317q0 -5 -9.5 -8t-21.5 -3t-21.5 1.5t-9.5 6.5v687q0 3 6 6.5t25 3.5q18 0 24.5 -3.5t6.5 -7.5v-299q0 -7 6 -7h105q7 0 7 6v301q0 3 7.5 6.5t23.5 3.5q31 0 31 -11v-685v0z" />
    <glyph glyph-name="i" unicode="i" horiz-adv-x="163" 
d="M82 -5q-32 0 -32 9v685q0 4 7 7.5t24 3.5t24.5 -3.5t7.5 -7.5v-683q0 -11 -31 -11z" />
    <glyph glyph-name="j" unicode="j" horiz-adv-x="311" 
d="M271 84q0 -45 -22 -64.5t-66 -19.5h-65q-43 0 -65.5 20.5t-22.5 66.5v52q0 4 9 8t23 4t22 -3.5t8 -8.5v-49q0 -17 8.5 -28t23.5 -11h42h11q17 0 24.5 9.5t7.5 23.5v605q0 4 5.5 7.5t25.5 3.5t25.5 -3t5.5 -8v-605z" />
    <glyph glyph-name="k" unicode="k" 
d="M170 340q0 -2 5.5 -17t13.5 -39t19 -54t22 -61q26 -73 59 -165q1 -2 -5.5 -5.5t-24.5 -3.5q-20 0 -26.5 2t-7.5 4l-91 253q-1 4 -3 4.5t-3 -3.5l-25 -69q-1 -2 -1 -5.5v-5.5v-167q0 -5 -12 -7.5t-19 -2.5q-8 0 -19.5 1.5t-11.5 6.5v684q0 3 8 6.5t22 3.5q15 0 23.5 -3.5
t8.5 -7.5v-329q0 -2 1 -3t3 3q0 1 5.5 15.5t14 38t19 53t21.5 60.5l58 164q1 3 7.5 6t24.5 3q17 0 24.5 -3.5t6.5 -6.5q-19 -54 -39 -110q-17 -48 -37.5 -107t-40.5 -116q-3 -10 0 -17z" />
    <glyph glyph-name="l" unicode="l" horiz-adv-x="261" 
d="M221 51q10 0 10 -26q0 -25 -10 -25h-172q-9 0 -9 8v682q0 3 7.5 6.5t23.5 3.5q15 0 23 -3.5t8 -8.5v-630q0 -7 5 -7h114v0z" />
    <glyph glyph-name="m" unicode="m" horiz-adv-x="447" 
d="M313 685q2 6 14.5 10.5t32.5 4.5t33.5 -5t13.5 -13v-675q0 -4 -7.5 -8t-22.5 -4t-24 4t-9 7v527q0 4 -0.5 5t-1.5 -2q-24 -89 -42 -160q-8 -30 -15.5 -59.5t-13.5 -53t-10 -38t-4 -15.5q-2 -5 -9 -8.5t-24 -3.5t-24.5 3.5t-9.5 8.5q0 1 -4 15.5t-10 38t-13.5 53
t-15.5 59.5q-18 71 -42 160q-1 4 -1 -3v-527q0 -3 -9 -7t-25 -4q-15 0 -22.5 4t-7.5 8v675q0 8 14 13t33 5q20 0 33 -4.5t14 -10.5l90 -344z" />
    <glyph glyph-name="n" unicode="n" horiz-adv-x="327" 
d="M286 6q0 -4 -7 -7.5t-23 -3.5t-22.5 4t-8.5 8q0 1 -9 32.5t-22.5 78t-28.5 100.5t-28.5 100t-22.5 77t-9 32q-1 3 -2 3.5t-1 -3.5v-421q0 -3 -8 -7t-23 -4q-14 0 -22.5 3.5t-8.5 8.5v681q0 8 7.5 10t23.5 2q30 0 34 -8q31 -115 57 -207q11 -39 21.5 -76.5t18.5 -67
t13.5 -48t5.5 -19.5q1 -3 2 -5t1 6v415q0 10 31 10q32 0 32 -11l-1 -683v0z" />
    <glyph glyph-name="o" unicode="o" 
d="M218 612q0 14 -7.5 23t-24.5 9h-52q-16 0 -24 -11t-8 -27v-523q0 -14 8 -23t24 -9h52q16 0 24 11t8 27v523zM193 695q43 0 65 -19.5t22 -63.5v-526q0 -45 -22 -65.5t-65 -20.5h-65q-43 0 -65.5 19.5t-22.5 63.5v526q0 45 22.5 65.5t65.5 20.5h65z" />
    <glyph glyph-name="p" unicode="p" horiz-adv-x="311" 
d="M219 612q0 13 -8.5 22.5t-24.5 9.5h-77q-7 0 -7 -5v-256q0 -7 6 -7h79q17 0 24.5 10.5t7.5 28.5v197zM207 695q74 0 74 -83v-208q0 -39 -22.5 -59t-61.5 -20h-90q-5 0 -5 -5v-315q0 -3 -8.5 -6.5t-23.5 -3.5t-22.5 3.5t-7.5 7.5v681q0 8 10 8h157z" />
    <glyph glyph-name="q" unicode="q" 
d="M102 83q0 -14 8 -23.5t25 -9.5q1 -1 2 0q1 0 1 4l-13 41q-2 5 8 11.5t16 8.5q7 2 19.5 3.5t14.5 -3.5l18 -56q1 -3 3 -3q5 2 9.5 10.5t4.5 22.5v523q0 14 -7.5 23t-24.5 9h-52q-32 0 -32 -34v-527zM193 695q43 0 65 -19.5t22 -63.5v-526q0 -72 -56 -83q-3 -1 -4 -1.5
t1 -5.5q1 -3 2.5 -7t3.5 -9t3 -11q2 -5 -6 -10.5t-19 -10.5t-20.5 -5t-11.5 5l-15 45q-2 5 -3.5 6t-9.5 1h-17q-43 0 -65.5 19.5t-22.5 63.5v526q0 45 22.5 65.5t65.5 20.5h65z" />
    <glyph glyph-name="r" unicode="r" horiz-adv-x="319" 
d="M189 375q28 0 28 28v212q0 11 -6.5 20t-24.5 9h-77q-7 0 -7 -6v-257q0 -6 6 -6h81zM279 401q0 -16 -10.5 -33t-30.5 -17q20 0 30.5 -14t10.5 -29v-302q0 -11 -30 -11q-14 0 -23 3t-9 8v298q0 8 -2.5 13.5t-13.5 5.5h-92q-7 0 -7 -5v-312q0 -3 -8.5 -6.5t-22.5 -3.5
t-22.5 3.5t-8.5 7.5v681q0 7 8 7h161q35 0 52.5 -23t17.5 -50v-221z" />
    <glyph glyph-name="s" unicode="s" horiz-adv-x="299" 
d="M238 552q-14 0 -22.5 4t-8.5 7v49q0 14 -7.5 23t-24.5 9h-11h-41q-16 0 -24 -11t-8 -27v-84q0 -28 13 -50.5t33 -43.5t43 -42t43 -46t33 -55.5t13 -69.5v-129q0 -45 -22 -65.5t-65 -20.5h-65q-43 0 -65 19.5t-22 63.5v49q0 3 7 7.5t24 4.5q30 0 30 -12v-49q0 -14 8 -23
t25 -9h51q16 0 24 11t8 27v129q0 25 -13 48.5t-33 47t-42.5 46t-42.5 46t-33 47t-13 48.5v108q0 45 22 65.5t65 20.5h65q43 0 65 -19.5t22 -63.5v-49q0 -11 -31 -11z" />
    <glyph glyph-name="t" unicode="t" horiz-adv-x="319" 
d="M288 695q7 0 9 -7t2 -18t-2.5 -18.5t-7.5 -7.5h-92q-5 0 -5 -6v-632q0 -5 -12 -8t-19 -3q-8 0 -19.5 1.5t-11.5 6.5v635q0 6 -7 6h-91q-12 0 -12 25q0 26 11 26h257v0z" />
    <glyph glyph-name="u" unicode="u" horiz-adv-x="321" 
d="M281 87q0 -45 -22 -66t-66 -21h-66q-43 0 -65 20t-22 64v606q0 4 9 7t21 3t21.5 -3t9.5 -8v-605q0 -14 8 -23t25 -9h53q16 0 24 11t8 27v600q0 4 8 7t22 3t23 -3t9 -8v-602z" />
    <glyph glyph-name="v" unicode="v" horiz-adv-x="326" 
d="M275 700q14 0 22.5 -4t8.5 -7l-112 -686q-1 -5 -12 -6.5t-19 -1.5q-7 0 -18 1.5t-12 6.5l-112 686q-1 4 6 7.5t24 3.5q31 0 33 -9l77 -469q1 -5 2.5 -5t2.5 5l77 469q1 5 9.5 7t22.5 2z" />
    <glyph glyph-name="w" unicode="w" horiz-adv-x="486" 
d="M438 700q9 0 18.5 -2.5t8.5 -6.5l-101 -688q-1 -5 -9.5 -6.5t-18.5 -1.5q-11 0 -19 1.5t-9 6.5l-32 216q-6 40 -12 79.5t-10.5 70t-7 50t-2.5 20.5q-1 4 -1.5 3t-0.5 -3q0 -1 -3 -20t-7.5 -49.5t-10.5 -69.5t-12 -80q-14 -96 -32 -217q0 -5 -9.5 -6.5t-18.5 -1.5
q-8 0 -17.5 1.5t-9.5 6.5l-102 688q0 3 6.5 6t20.5 3t21.5 -0.5t8.5 -5.5l70 -472q2 -10 5 1q18 130 32 233q6 44 12 86t10.5 75.5t7.5 54t3 21.5q0 7 24 7t25 -7q0 -1 3 -22t7.5 -54t11 -75t12.5 -86q15 -103 33 -234q1 -5 2.5 -4.5t2.5 5.5l3 20.5t8 54t11.5 75.5t12.5 86
q15 103 35 234q1 4 10.5 5.5t19.5 1.5z" />
    <glyph glyph-name="x" unicode="x" horiz-adv-x="302" 
d="M183 348q13 -53 28 -112.5t29 -111.5q16 -61 31 -120q1 -5 -7.5 -7t-21.5 -2q-12 0 -20 1.5t-10 6.5l-59 232q-2 5 -4 0l-59 -231q-1 -4 -6.5 -6.5t-22.5 -2.5q-18 0 -24.5 2.5t-5.5 6.5l44 172q8 32 16 63t14.5 56t10.5 40t4 16q1 7 0 16q0 1 -4 15.5t-10 37.5t-13.5 52
t-14.5 59q-18 70 -41 160q-2 9 26 9q14 0 22 -0.5t9 -5.5q8 -30 17 -64q8 -29 18 -68t21 -82q0 -2 1 -2t2 2q5 15 9 33q4 15 8.5 34t9.5 39q11 47 27 106q2 8 31 8q30 0 27 -10q-2 -7 -6.5 -25l-10.5 -42t-13 -52.5t-14 -56.5q-17 -67 -38 -148q-3 -9 0 -18z" />
    <glyph glyph-name="y" unicode="y" horiz-adv-x="300" 
d="M252 700q30 0 27 -11q-2 -7 -7 -26.5t-12 -46.5t-15.5 -59t-17.5 -65q-20 -77 -44 -169q-2 -5 -2 -13v-298v-7q0 -3 -8 -6.5t-21 -3.5q-14 0 -21.5 3.5t-7.5 8.5v6v296v6t-1 5q-26 93 -47 170q-9 33 -18 65.5t-16.5 59.5t-12.5 47t-7 27q-3 11 27 11q29 2 31 -7l69 -252
q2 -5 4 -1l34 126q15 55 35 126q2 10 31 8z" />
    <glyph glyph-name="z" unicode="z" horiz-adv-x="285" 
d="M254 53q0 -24 -8.5 -38.5t-35.5 -14.5h-140q-20 0 -31.5 14.5t-6.5 33.5q1 3 8 30t18.5 69t25.5 94t29 106q34 127 78 285q2 5 0 8.5t-10 3.5h-76q-18 0 -18 -20v-61q0 -3 -8 -7t-21 -4t-20 4t-7 7v77q0 20 8 37.5t34 17.5h150q17 0 26 -12.5t4 -33.5l-161 -588
q-4 -10 5 -10h85q8 0 12 4t4 16v61q0 13 28 13t28 -13v-79v0z" />
    <glyph glyph-name="braceleft" unicode="{" horiz-adv-x="234" 
d="M224 -8q10 0 10 -27q0 -25 -10 -25h-136q-10 0 -10 9l1 359q0 10 -5 20.5t-27 10.5h-13h-2q-4 0 -8 6.5t-4 20.5q0 27 11 27h3h11q34 0 34 39l-1 319q0 8 10 8h136q10 0 10 -25q0 -26 -10 -26h-78q-5 0 -5 -7v-278q0 -19 -8 -38.5t-28 -19.5q20 0 28 -14t8 -32v-321
q0 -6 5 -6h78v0z" />
    <glyph glyph-name="bar" unicode="|" horiz-adv-x="124" 
d="M94 -116q0 -5 -9 -7t-23 -2t-23 1.5t-9 6.5v806q0 4 7.5 7.5t24.5 3.5t24.5 -3.5t7.5 -7.5v-805z" />
    <glyph glyph-name="braceright" unicode="}" horiz-adv-x="233" 
d="M87 -16q5 0 5 6v321q0 18 8 32t29 14q-21 0 -29 19.5t-8 38.5v278q0 7 -5 7h-78q-9 0 -9 26q0 25 9 25h137q9 0 9 -8v-319q0 -39 33 -39h11h3q11 0 11 -27q0 -14 -4 -20.5t-7 -6.5h-3h-12q-23 0 -27.5 -10.5t-4.5 -20.5v-359q0 -8 -9 -8q-1 0 -22 -0.5t-47 -0.5h-68
q-9 0 -9 25q0 27 9 27h78z" />
    <glyph glyph-name="asciitilde" unicode="~" horiz-adv-x="441" 
d="M414 314q-3 -3 -5 -4.5t-4 -3.5t-4 -3q-21 -15 -48.5 -17.5t-59 0.5t-64.5 8.5t-64 8.5t-57.5 0t-44.5 -17q-7 -6 -14 -1.5t-15 12.5t-12.5 20t3.5 18q32 23 64.5 29.5t64.5 4.5t63 -9t60 -11t55.5 -1.5t49.5 18.5l2 1q5 3 13 0t16 -16q14 -26 1 -37z" />
    <glyph glyph-name="exclamdown" unicode="&#xa1;" horiz-adv-x="143" 
d="M72 639q-32 0 -32 8v43q0 5 9 7.5t23 2.5q31 0 31 -9v-1v-42q0 -5 -8.5 -7t-22.5 -2zM71 569q32 0 32 -8v-427v-128q0 -3 -7 -7t-24 -4t-24.5 3.5t-7.5 7.5v128v426q0 5 8.5 7t22.5 2z" />
    <glyph glyph-name="sterling" unicode="&#xa3;" horiz-adv-x="414" 
d="M363 147q12 0 21.5 -2.5t9.5 -7.5v-78q0 -31 -16.5 -45t-38.5 -14h-184q-71 0 -74 79v25q0 24 4 59.5t11 78.5q0 4 -0.5 6t-5.5 2h-60q-6 0 -8 7t-2 18t2 18t7 7h68q6 0 8 6q2 8 2.5 17t2.5 18q1 6 -5 6h-38q-5 0 -7 7.5t-2 18.5t2 18t7 7h45q6 0 8 6q8 61 14.5 119
t6.5 103v26q0 20 7 31t29 11l61 1q43 0 65.5 -19.5t23.5 -63.5v-50q0 -3 -7.5 -8t-23.5 -5q-31 0 -31 13q0 2 -0.5 10.5t-0.5 16.5v22q0 14 -8 23.5t-25 9.5h-17q-5 0 -8.5 -4t-3.5 -11v-3q0 -47 -6 -104.5t-14 -118.5q-1 -5 3 -5h133q5 0 7 -8.5t2 -16.5t-2 -17t-6 -9h-139
q-6 0 -7 -6q-2 -9 -3 -17.5t-2 -17.5q-2 -6 4 -6h108q5 0 7 -8.5t2 -16.5t-2 -16.5t-6 -8.5h-114q-7 0 -9 -8q-6 -47 -10.5 -87t-4.5 -70h-1v-2q0 -13 9 -22.5t24 -9.5h128q17 0 23.5 9t6.5 25v50q0 5 9.5 8.5t20.5 3.5z" />
    <glyph glyph-name="yen" unicode="&#xa5;" horiz-adv-x="300" 
d="M292 249q4 0 6.5 -8.5t2.5 -16.5t-2 -16.5t-6 -8.5h-112v-194q0 -3 -8 -6.5t-21 -3.5q-14 0 -21.5 3.5t-7.5 8.5v192h-114q-5 0 -7 7t-2 18t1.5 18t6.5 7h115v60v6t-1 5h-113q-5 0 -7 7t-2 18t1.5 18t6.5 7h100q-10 35 -23.5 85.5t-27 98.5t-23.5 86t-13 49t27 11
q29 2 31 -7l69 -252q2 -5 4 -1l34 126q15 55 35 126q2 10 31 8q30 0 27 -11l-84 -319h97q4 0 6.5 -8.5t2.5 -16.5t-2 -16.5t-6 -8.5h-111q-1 -4 -1 -10v-61h111v0z" />
    <glyph glyph-name="dieresis" unicode="&#xa8;" horiz-adv-x="220" 
d="M52 600q14 0 23 -2t9 -6v-43q0 -5 -9 -7.5t-23 -2.5t-23 2t-9 7v1v42q0 5 9 7t23 2zM168 600q14 0 23 -2t9 -6v-43q0 -5 -9 -7.5t-23 -2.5t-23 2t-9 7v1v42q0 5 9 7t23 2z" />
    <glyph glyph-name="logicalnot" unicode="&#xac;" horiz-adv-x="387" 
d="M319 373q29 0 38.5 -14.5t9.5 -38.5v-80q0 -5 -9 -9t-23 -4t-22 3.5t-8 9.5v62q0 12 -4.5 16.5t-13.5 4.5h-19h-239q-6 0 -7.5 7t-1.5 18t1.5 18t6.5 7h240h47h4v0z" />
    <glyph glyph-name="degree" unicode="&#xb0;" horiz-adv-x="247" 
d="M149 683q33 0 50.5 -15t17.5 -49v-126q0 -68 -68 -68h-51q-68 0 -68 65v126q0 35 17.5 51t50.5 16h51zM169 619q0 11 -6 18t-19 7h-41q-12 0 -18.5 -9t-6.5 -21v-124q0 -11 6 -18t20 -7h40q12 0 18.5 8.5t6.5 21.5v124z" />
    <glyph glyph-name="plusminus" unicode="&#xb1;" horiz-adv-x="341" 
d="M29 302q-6 0 -7.5 8.5t-1.5 22.5q0 32 8 32h106q5 0 5 4v114q0 5 8.5 7t22.5 2q31 0 31 -8v-114q0 -5 7 -5h104q4 0 6.5 -8.5t2.5 -22.5t-2 -23t-7 -9h-106q-5 0 -5 -6v-57v-11v-44q0 -5 -8.5 -7t-22.5 -2q-31 0 -31 8v37v19v59q0 4 -4 4h-106zM312 158q4 0 6.5 -8.5
t2.5 -16.5t-2 -17t-7 -9h-283q-6 0 -7.5 7.5t-1.5 18.5q0 10 1.5 17.5t6.5 7.5h284z" />
    <glyph glyph-name="acute" unicode="&#xb4;" horiz-adv-x="153" 
d="M97 674q5 6 12.5 5t20.5 -14q12 -12 12.5 -18.5t-5.5 -12.5l-94 -94q-6 -4 -21 11t-10 22q16 20 32 38q14 16 28 33t25 30z" />
    <glyph glyph-name="cedilla" unicode="&#xb8;" horiz-adv-x="131" 
d="M71 -46q21 0 35.5 -15t14.5 -42q-1 -24 -17.5 -40t-45.5 -16q-11 0 -19 2t-13 4q-6 3 -11 7q-4 4 -4 5.5t2 9.5q3 12 7 11q5 -1 13.5 -6t25.5 -5q12 0 19.5 8t7.5 19v2q0 24 -23 27q-11 2 -14 2t-9 1q-10 0 -7 8q1 2 4.5 12t8.5 22q5 14 12 31q3 4 16 4q15 0 14 -5
l-18 -46h1v0z" />
    <glyph glyph-name="questiondown" unicode="&#xbf;" horiz-adv-x="304" 
d="M160 639q-32 0 -32 8v43q0 5 9 7.5t23 2.5q31 0 31 -9v-1v-42q0 -5 -8.5 -7t-22.5 -2zM119 0q-44 0 -66.5 21t-22.5 67v109q0 38 15.5 73.5t33.5 70.5t33.5 71t15.5 74v72q0 5 9 7t23 2q31 0 31 -8v-71q0 -40 -7.5 -71t-18 -56t-23.5 -46.5t-23.5 -43t-18 -44.5t-7.5 -51
v-85q0 -17 8 -28t24 -11h42h11q17 0 25 9t8 23v50q0 3 8.5 7t22.5 4q32 0 32 -11v-50q0 -44 -22.5 -64t-66.5 -20h-66z" />
    <glyph glyph-name="Agrave" unicode="&#xc0;" horiz-adv-x="312" 
d="M200 201q8 0 6 10q0 1 -3 24.5t-7.5 60.5t-10 82t-11 88t-9.5 79t-6 55q-1 8 -2 7t-2 -7q-2 -19 -6.5 -55t-9.5 -79t-11 -88t-10.5 -82t-7.5 -61t-3 -25q0 -9 6 -9h87zM156 700q35 0 47.5 -11t14.5 -26q0 -2 3.5 -31.5t8.5 -76t11.5 -105t13.5 -119.5t13.5 -119.5
t11.5 -104.5t8 -74t3 -29q1 -2 -5.5 -5.5t-24.5 -3.5t-23.5 3t-6.5 5q0 1 -2.5 22t-5.5 46t-5.5 46t-2.5 24q-1 7 -7 7h-100q-8 0 -9 -6q0 -2 -3 -23t-6 -46t-5.5 -46.5t-2.5 -22.5q-1 -3 -6.5 -6t-25.5 -3t-25 2.5t-4 5.5q0 1 3 29t8.5 74t12 104.5t13.5 120t14 120t12 105
t8.5 75t3.5 30.5q2 17 14 28t46 11zM222 773q4 -8 -10 -22q-15 -15 -22 -11l-93 94q-6 6 -6 12.5t13 18.5q12 13 19.5 14t12.5 -5q11 -13 25.5 -30t28.5 -33q16 -18 32 -38z" />
    <glyph glyph-name="Aacute" unicode="&#xc1;" horiz-adv-x="312" 
d="M200 201q8 0 6 10q0 1 -3 24.5t-7.5 60.5t-10 82t-11 88t-9.5 79t-6 55q-1 8 -2 7t-2 -7q-2 -19 -6.5 -55t-9.5 -79t-11 -88t-10.5 -82t-7.5 -61t-3 -25q0 -9 6 -9h87zM156 700q35 0 47.5 -11t14.5 -26q0 -2 3.5 -31.5t8.5 -76t11.5 -105t13.5 -119.5t13.5 -119.5
t11.5 -104.5t8 -74t3 -29q1 -2 -5.5 -5.5t-24.5 -3.5t-23.5 3t-6.5 5q0 1 -2.5 22t-5.5 46t-5.5 46t-2.5 24q-1 7 -7 7h-100q-8 0 -9 -6q0 -2 -3 -23t-6 -46t-5.5 -46.5t-2.5 -22.5q-1 -3 -6.5 -6t-25.5 -3t-25 2.5t-4 5.5q0 1 3 29t8.5 74t12 104.5t13.5 120t14 120t12 105
t8.5 75t3.5 30.5q2 17 14 28t46 11zM176 874q5 6 12.5 5t20.5 -14q12 -12 12.5 -18.5t-5.5 -12.5l-94 -94q-6 -4 -21 11t-10 22q16 20 32 38q14 16 28 33t25 30z" />
    <glyph glyph-name="Acircumflex" unicode="&#xc2;" horiz-adv-x="312" 
d="M200 201q8 0 6 10q0 1 -3 24.5t-7.5 60.5t-10 82t-11 88t-9.5 79t-6 55q-1 8 -2 7t-2 -7q-2 -19 -6.5 -55t-9.5 -79t-11 -88t-10.5 -82t-7.5 -61t-3 -25q0 -9 6 -9h87zM156 700q35 0 47.5 -11t14.5 -26q0 -2 3.5 -31.5t8.5 -76t11.5 -105t13.5 -119.5t13.5 -119.5
t11.5 -104.5t8 -74t3 -29q1 -2 -5.5 -5.5t-24.5 -3.5t-23.5 3t-6.5 5q0 1 -2.5 22t-5.5 46t-5.5 46t-2.5 24q-1 7 -7 7h-100q-8 0 -9 -6q0 -2 -3 -23t-6 -46t-5.5 -46.5t-2.5 -22.5q-1 -3 -6.5 -6t-25.5 -3t-25 2.5t-4 5.5q0 1 3 29t8.5 74t12 104.5t13.5 120t14 120t12 105
t8.5 75t3.5 30.5q2 17 14 28t46 11zM274 784q3 -3 -1.5 -10.5t-9.5 -13.5q-5 -5 -12.5 -10t-10.5 -2l-75 74q-5 5 -9 5.5t-10 -4.5q-1 -1 -12 -12.5t-25 -25.5l-36 -36q-4 -4 -10 0t-14 11q-8 8 -11.5 14.5t-0.5 9.5l85 85q18 18 34 17.5t33 -17.5z" />
    <glyph glyph-name="Atilde" unicode="&#xc3;" horiz-adv-x="312" 
d="M200 201q8 0 6 10q0 1 -3 24.5t-7.5 60.5t-10 82t-11 88t-9.5 79t-6 55q-1 8 -2 7t-2 -7q-2 -19 -6.5 -55t-9.5 -79t-11 -88t-10.5 -82t-7.5 -61t-3 -25q0 -9 6 -9h87zM156 700q35 0 47.5 -11t14.5 -26q0 -2 3.5 -31.5t8.5 -76t11.5 -105t13.5 -119.5t13.5 -119.5
t11.5 -104.5t8 -74t3 -29q1 -2 -5.5 -5.5t-24.5 -3.5t-23.5 3t-6.5 5q0 1 -2.5 22t-5.5 46t-5.5 46t-2.5 24q-1 7 -7 7h-100q-8 0 -9 -6q0 -2 -3 -23t-6 -46t-5.5 -46.5t-2.5 -22.5q-1 -3 -6.5 -6t-25.5 -3t-25 2.5t-4 5.5q0 1 3 29t8.5 74t12 104.5t13.5 120t14 120t12 105
t8.5 75t3.5 30.5q2 17 14 28t46 11zM262 772q-5 -5 -7 -6t-3 -2q-23 -15 -45.5 -12.5t-44.5 8.5t-43.5 8.5t-41.5 -12.5q-5 -5 -10.5 -1t-10.5 9t-8.5 14t2.5 14q21 14 38.5 17.5t33 1.5t29.5 -6.5t28 -7t29 -1t32 13.5l1 1q4 2 10 -0.5t11 -11.5q9 -20 0 -27z" />
    <glyph glyph-name="Adieresis" unicode="&#xc4;" horiz-adv-x="312" 
d="M200 201q8 0 6 10q0 1 -3 24.5t-7.5 60.5t-10 82t-11 88t-9.5 79t-6 55q-1 8 -2 7t-2 -7q-2 -19 -6.5 -55t-9.5 -79t-11 -88t-10.5 -82t-7.5 -61t-3 -25q0 -9 6 -9h87zM156 700q35 0 47.5 -11t14.5 -26q0 -2 3.5 -31.5t8.5 -76t11.5 -105t13.5 -119.5t13.5 -119.5
t11.5 -104.5t8 -74t3 -29q1 -2 -5.5 -5.5t-24.5 -3.5t-23.5 3t-6.5 5q0 1 -2.5 22t-5.5 46t-5.5 46t-2.5 24q-1 7 -7 7h-100q-8 0 -9 -6q0 -2 -3 -23t-6 -46t-5.5 -46.5t-2.5 -22.5q-1 -3 -6.5 -6t-25.5 -3t-25 2.5t-4 5.5q0 1 3 29t8.5 74t12 104.5t13.5 120t14 120t12 105
t8.5 75t3.5 30.5q2 17 14 28t46 11zM98 800q14 0 23 -2t9 -6v-43q0 -5 -9 -7.5t-23 -2.5t-23 2t-9 7v1v42q0 5 9 7t23 2zM214 800q14 0 23 -2t9 -6v-43q0 -5 -9 -7.5t-23 -2.5t-23 2t-9 7v1v42q0 5 9 7t23 2z" />
    <glyph glyph-name="Aring" unicode="&#xc5;" horiz-adv-x="312" 
d="M200 201q8 0 6 10q0 1 -3 24.5t-7.5 60.5t-10 82t-11 88t-9.5 79t-6 55q-1 8 -2 7t-2 -7q-2 -19 -6.5 -55t-9.5 -79t-11 -88t-10.5 -82t-7.5 -61t-3 -25q0 -9 6 -9h87zM156 700q35 0 47.5 -11t14.5 -26q0 -2 3.5 -31.5t8.5 -76t11.5 -105t13.5 -119.5t13.5 -119.5
t11.5 -104.5t8 -74t3 -29q1 -2 -5.5 -5.5t-24.5 -3.5t-23.5 3t-6.5 5q0 1 -2.5 22t-5.5 46t-5.5 46t-2.5 24q-1 7 -7 7h-100q-8 0 -9 -6q0 -2 -3 -23t-6 -46t-5.5 -46.5t-2.5 -22.5q-1 -3 -6.5 -6t-25.5 -3t-25 2.5t-4 5.5q0 1 3 29t8.5 74t12 104.5t13.5 120t14 120t12 105
t8.5 75t3.5 30.5q2 17 14 28t46 11zM162 893q33 0 50.5 -15t17.5 -49v-14q0 -68 -68 -68h-12q-68 0 -68 65v14q0 35 17.5 51t50.5 16h12zM182 829q0 11 -6 18t-19 7h-2q-12 0 -18.5 -9t-6.5 -21v-12q0 -11 6 -18t20 -7h1q12 0 18.5 8.5t6.5 21.5v12z" />
    <glyph glyph-name="AE" unicode="&#xc6;" horiz-adv-x="510" 
d="M470 51q5 0 7.5 -4.5t2.5 -21.5q0 -16 -2.5 -20.5t-7.5 -4.5h-175q-9 0 -9 8v137q0 7 -8 7h-151l-45 -147q-3 -10 -30 -10q-14 0 -24.5 1.5t-6.5 12.5l196 654q11 32 37 32h214q5 0 8.5 -7t3.5 -17q0 -9 -3 -17.5t-8 -8.5h-115q-7 0 -7 -6v-252q0 -6 6 -6h105q3 0 6.5 -5
t3.5 -21q0 -17 -3 -21.5t-8 -4.5h-103q-7 0 -7 -8v-264q0 -6 7 -6h116zM280 202q6 0 6 9v425q0 9 -6 9q-4 0 -5 -2.5t-3 -6.5q0 -1 -6 -20t-15.5 -50t-21 -70t-23.5 -79q-28 -95 -64 -215h138z" />
    <glyph glyph-name="Ccedilla" unicode="&#xc7;" horiz-adv-x="310" 
d="M160 -46q21 0 35.5 -15t14.5 -42q-1 -24 -17.5 -40t-45.5 -16q-11 0 -19 2t-13 4q-6 3 -11 7q-4 4 -4 5.5t2 9.5q3 12 7 11q5 -1 13.5 -6t25.5 -5q12 0 19.5 8t7.5 19v2q0 24 -23 27l-23 3q-10 0 -7 8q1 1 4.5 10.5t7.5 20.5t8 21t5 12h-20q-87 0 -87 83v526
q0 45 22 65.5t65 20.5h66q42 0 64.5 -19.5t22.5 -63.5v-48q0 -3 -9 -6t-22 -3q-14 0 -22.5 2.5t-8.5 6.5v48q0 14 -7.5 23.5t-24.5 9.5h-52q-32 0 -32 -39v-523q0 -14 7.5 -23t24.5 -9h52q32 0 32 32v56q0 3 8 7.5t22 4.5t23 -4t9 -8v-56q0 -45 -22.5 -64t-64.5 -19h-16
l-18 -46h1v0z" />
    <glyph glyph-name="Egrave" unicode="&#xc8;" horiz-adv-x="264" 
d="M223 51q5 0 8 -4t3 -21q0 -16 -3 -21t-7 -5l-176 1q-8 0 -8 7v678q0 9 9 9h173q5 0 8 -7t3 -17q0 -9 -2.5 -17.5t-7.5 -8.5h-116q-6 0 -6 -6v-252q0 -6 5 -6h106q3 0 6.5 -4.5t3.5 -21.5t-3.5 -21.5t-7.5 -4.5h-103q-7 0 -7 -8v-263q0 -7 7 -7h115zM198 773q4 -8 -10 -22
q-15 -15 -22 -11l-93 94q-6 6 -6 12.5t13 18.5q12 13 19.5 14t12.5 -5q11 -13 25.5 -30t28.5 -33q16 -18 32 -38z" />
    <glyph glyph-name="Eacute" unicode="&#xc9;" horiz-adv-x="264" 
d="M223 51q5 0 8 -4t3 -21q0 -16 -3 -21t-7 -5l-176 1q-8 0 -8 7v678q0 9 9 9h173q5 0 8 -7t3 -17q0 -9 -2.5 -17.5t-7.5 -8.5h-116q-6 0 -6 -6v-252q0 -6 5 -6h106q3 0 6.5 -4.5t3.5 -21.5t-3.5 -21.5t-7.5 -4.5h-103q-7 0 -7 -8v-263q0 -7 7 -7h115zM152 874q5 6 12.5 5
t20.5 -14q12 -12 12.5 -18.5t-5.5 -12.5l-94 -94q-6 -4 -21 11t-10 22q16 20 32 38q14 16 28 33t25 30z" />
    <glyph glyph-name="Ecircumflex" unicode="&#xca;" horiz-adv-x="264" 
d="M223 51q5 0 8 -4t3 -21q0 -16 -3 -21t-7 -5l-176 1q-8 0 -8 7v678q0 9 9 9h173q5 0 8 -7t3 -17q0 -9 -2.5 -17.5t-7.5 -8.5h-116q-6 0 -6 -6v-252q0 -6 5 -6h106q3 0 6.5 -4.5t3.5 -21.5t-3.5 -21.5t-7.5 -4.5h-103q-7 0 -7 -8v-263q0 -7 7 -7h115zM251 784
q3 -3 -1.5 -10.5t-9.5 -13.5q-5 -5 -12.5 -10t-10.5 -2l-75 74q-5 5 -9 5.5t-10 -4.5q-1 -1 -12 -12.5t-25 -25.5l-36 -36q-4 -4 -10 0t-14 11q-8 8 -11.5 14.5t-0.5 9.5l85 85q18 18 34 17.5t33 -17.5z" />
    <glyph glyph-name="Edieresis" unicode="&#xcb;" horiz-adv-x="264" 
d="M223 51q5 0 8 -4t3 -21q0 -16 -3 -21t-7 -5l-176 1q-8 0 -8 7v678q0 9 9 9h173q5 0 8 -7t3 -17q0 -9 -2.5 -17.5t-7.5 -8.5h-116q-6 0 -6 -6v-252q0 -6 5 -6h106q3 0 6.5 -4.5t3.5 -21.5t-3.5 -21.5t-7.5 -4.5h-103q-7 0 -7 -8v-263q0 -7 7 -7h115zM74 800q14 0 23 -2
t9 -6v-43q0 -5 -9 -7.5t-23 -2.5t-23 2t-9 7v1v42q0 5 9 7t23 2zM190 800q14 0 23 -2t9 -6v-43q0 -5 -9 -7.5t-23 -2.5t-23 2t-9 7v1v42q0 5 9 7t23 2z" />
    <glyph glyph-name="Igrave" unicode="&#xcc;" horiz-adv-x="163" 
d="M82 -5q-32 0 -32 9v685q0 4 7 7.5t24 3.5t24.5 -3.5t7.5 -7.5v-683q0 -11 -31 -11zM147 773q4 -8 -10 -22q-15 -15 -22 -11l-93 94q-6 6 -6 12.5t13 18.5q12 13 19.5 14t12.5 -5q11 -13 25.5 -30t28.5 -33q16 -18 32 -38z" />
    <glyph glyph-name="Iacute" unicode="&#xcd;" horiz-adv-x="163" 
d="M82 -5q-32 0 -32 9v685q0 4 7 7.5t24 3.5t24.5 -3.5t7.5 -7.5v-683q0 -11 -31 -11zM101 874q5 6 12.5 5t20.5 -14q12 -12 12.5 -18.5t-5.5 -12.5l-94 -94q-6 -4 -21 11t-10 22q16 20 32 38q14 16 28 33t25 30z" />
    <glyph glyph-name="Icircumflex" unicode="&#xce;" horiz-adv-x="163" 
d="M82 -5q-32 0 -32 9v685q0 4 7 7.5t24 3.5t24.5 -3.5t7.5 -7.5v-683q0 -11 -31 -11zM200 791q3 -3 -1.5 -10.5t-9.5 -13.5q-5 -5 -12.5 -10t-10.5 -2l-75 74q-5 5 -9 5.5t-10 -4.5q-1 -1 -12 -12.5t-25 -25.5l-36 -36q-4 -4 -10 0t-14 11q-8 8 -11.5 14.5t-0.5 9.5l85 85
q18 18 34 17.5t33 -17.5z" />
    <glyph glyph-name="Idieresis" unicode="&#xcf;" horiz-adv-x="163" 
d="M82 -5q-32 0 -32 9v685q0 4 7 7.5t24 3.5t24.5 -3.5t7.5 -7.5v-683q0 -11 -31 -11zM24 800q14 0 23 -2t9 -6v-43q0 -5 -9 -7.5t-23 -2.5t-23 2t-9 7v1v42q0 5 9 7t23 2zM140 800q14 0 23 -2t9 -6v-43q0 -5 -9 -7.5t-23 -2.5t-23 2t-9 7v1v42q0 5 9 7t23 2z" />
    <glyph glyph-name="Ntilde" unicode="&#xd1;" horiz-adv-x="327" 
d="M286 6q0 -4 -7 -7.5t-23 -3.5t-22.5 4t-8.5 8q0 1 -9 32.5t-22.5 78t-28.5 100.5t-28.5 100t-22.5 77t-9 32q-1 3 -2 3.5t-1 -3.5v-421q0 -3 -8 -7t-23 -4q-14 0 -22.5 3.5t-8.5 8.5v681q0 8 7.5 10t23.5 2q30 0 34 -8q31 -115 57 -207q11 -39 21.5 -76.5t18.5 -67
t13.5 -48t5.5 -19.5q1 -3 2 -5t1 6v415q0 10 31 10q32 0 32 -11zM270 772q-5 -5 -7 -6t-3 -2q-23 -15 -45.5 -12.5t-44.5 8.5t-43.5 8.5t-41.5 -12.5q-5 -5 -10.5 -1t-10.5 9t-8.5 14t2.5 14q21 14 38.5 17.5t33 1.5t29.5 -6.5t28 -7t29 -1t32 13.5l1 1q4 2 10 -0.5
t11 -11.5q9 -20 0 -27z" />
    <glyph glyph-name="Ograve" unicode="&#xd2;" 
d="M218 612q0 14 -7.5 23t-24.5 9h-52q-16 0 -24 -11t-8 -27v-523q0 -14 8 -23t24 -9h52q16 0 24 11t8 27v523zM193 695q43 0 65 -19.5t22 -63.5v-526q0 -45 -22 -65.5t-65 -20.5h-65q-43 0 -65.5 19.5t-22.5 63.5v526q0 45 22.5 65.5t65.5 20.5h65zM226 773q4 -8 -10 -22
q-15 -15 -22 -11l-93 94q-6 6 -6 12.5t13 18.5q12 13 19.5 14t12.5 -5q11 -13 25.5 -30t28.5 -33q16 -18 32 -38z" />
    <glyph glyph-name="Oacute" unicode="&#xd3;" 
d="M218 612q0 14 -7.5 23t-24.5 9h-52q-16 0 -24 -11t-8 -27v-523q0 -14 8 -23t24 -9h52q16 0 24 11t8 27v523zM193 695q43 0 65 -19.5t22 -63.5v-526q0 -45 -22 -65.5t-65 -20.5h-65q-43 0 -65.5 19.5t-22.5 63.5v526q0 45 22.5 65.5t65.5 20.5h65zM180 874q5 6 12.5 5
t20.5 -14q12 -12 12.5 -18.5t-5.5 -12.5l-94 -94q-6 -4 -21 11t-10 22q16 20 32 38q14 16 28 33t25 30z" />
    <glyph glyph-name="Ocircumflex" unicode="&#xd4;" 
d="M218 612q0 14 -7.5 23t-24.5 9h-52q-16 0 -24 -11t-8 -27v-523q0 -14 8 -23t24 -9h52q16 0 24 11t8 27v523zM193 695q43 0 65 -19.5t22 -63.5v-526q0 -45 -22 -65.5t-65 -20.5h-65q-43 0 -65.5 19.5t-22.5 63.5v526q0 45 22.5 65.5t65.5 20.5h65zM278 784
q3 -3 -1.5 -10.5t-9.5 -13.5q-5 -5 -12.5 -10t-10.5 -2l-75 74q-5 5 -9 5.5t-10 -4.5q-1 -1 -12 -12.5t-25 -25.5l-36 -36q-4 -4 -10 0t-14 11q-8 8 -11.5 14.5t-0.5 9.5l85 85q18 18 34 17.5t33 -17.5z" />
    <glyph glyph-name="Otilde" unicode="&#xd5;" 
d="M218 612q0 14 -7.5 23t-24.5 9h-52q-16 0 -24 -11t-8 -27v-523q0 -14 8 -23t24 -9h52q16 0 24 11t8 27v523zM193 695q43 0 65 -19.5t22 -63.5v-526q0 -45 -22 -65.5t-65 -20.5h-65q-43 0 -65.5 19.5t-22.5 63.5v526q0 45 22.5 65.5t65.5 20.5h65zM266 772q-5 -5 -7 -6
t-3 -2q-23 -15 -45.5 -12.5t-44.5 8.5t-43.5 8.5t-41.5 -12.5q-5 -5 -10.5 -1t-10.5 9t-8.5 14t2.5 14q21 14 38.5 17.5t33 1.5t29.5 -6.5t28 -7t29 -1t32 13.5l1 1q4 2 10 -0.5t11 -11.5q9 -20 0 -27z" />
    <glyph glyph-name="Odieresis" unicode="&#xd6;" 
d="M218 612q0 14 -7.5 23t-24.5 9h-52q-16 0 -24 -11t-8 -27v-523q0 -14 8 -23t24 -9h52q16 0 24 11t8 27v523zM193 695q43 0 65 -19.5t22 -63.5v-526q0 -45 -22 -65.5t-65 -20.5h-65q-43 0 -65.5 19.5t-22.5 63.5v526q0 45 22.5 65.5t65.5 20.5h65zM102 800q14 0 23 -2
t9 -6v-43q0 -5 -9 -7.5t-23 -2.5t-23 2t-9 7v1v42q0 5 9 7t23 2zM218 800q14 0 23 -2t9 -6v-43q0 -5 -9 -7.5t-23 -2.5t-23 2t-9 7v1v42q0 5 9 7t23 2z" />
    <glyph glyph-name="multiply" unicode="&#xd7;" horiz-adv-x="290" 
d="M266 222q3 -3 -1.5 -10.5t-14.5 -17.5q-10 -11 -17.5 -15.5t-10.5 -1.5l-73 74q-4 4 -9 -1l-38 -38l-35 -35q-3 -3 -11 1t-17 14q-23 22 -17 28l76 76q3 3 -1 7l-75 75q-4 4 1 11t15 17q21 23 28 16l76 -76q3 -3 6 0q1 1 12.5 13t25.5 26q16 16 37 36q4 4 11.5 -1
t16.5 -15q11 -10 15.5 -17.5t1.5 -10.5l-75 -75q-5 -2 -1 -6l74 -74v0z" />
    <glyph glyph-name="Oslash" unicode="&#xd8;" 
d="M230 738q13 0 24 -2t7 -15l-8 -42q13 -11 20 -27t7 -40v-526q0 -45 -22 -65.5t-65 -20.5h-65h-1l-6 -32q-3 -11 -31 -11q-13 0 -23.5 1.5t-6.5 13.5l8 43q-28 19 -28 68v526q0 45 22.5 65.5t65.5 20.5h65l6 32q3 11 31 11zM102 200l81 444h-49q-16 0 -24 -11t-8 -27v-406
zM218 489l-82 -438h50q16 0 24 11t8 27v400z" />
    <glyph glyph-name="Ugrave" unicode="&#xd9;" horiz-adv-x="321" 
d="M281 87q0 -45 -22 -66t-66 -21h-66q-43 0 -65 20t-22 64v606q0 4 9 7t21 3t21.5 -3t9.5 -8v-605q0 -14 8 -23t25 -9h53q16 0 24 11t8 27v600q0 4 8 7t22 3t23 -3t9 -8v-602zM226 773q4 -8 -10 -22q-15 -15 -22 -11l-93 94q-6 6 -6 12.5t13 18.5q12 13 19.5 14t12.5 -5
q11 -13 25.5 -30t28.5 -33q16 -18 32 -38z" />
    <glyph glyph-name="Uacute" unicode="&#xda;" horiz-adv-x="321" 
d="M281 87q0 -45 -22 -66t-66 -21h-66q-43 0 -65 20t-22 64v606q0 4 9 7t21 3t21.5 -3t9.5 -8v-605q0 -14 8 -23t25 -9h53q16 0 24 11t8 27v600q0 4 8 7t22 3t23 -3t9 -8v-602zM180 874q5 6 12.5 5t20.5 -14q12 -12 12.5 -18.5t-5.5 -12.5l-94 -94q-6 -4 -21 11t-10 22
q16 20 32 38q14 16 28 33t25 30z" />
    <glyph glyph-name="Ucircumflex" unicode="&#xdb;" horiz-adv-x="321" 
d="M281 87q0 -45 -22 -66t-66 -21h-66q-43 0 -65 20t-22 64v606q0 4 9 7t21 3t21.5 -3t9.5 -8v-605q0 -14 8 -23t25 -9h53q16 0 24 11t8 27v600q0 4 8 7t22 3t23 -3t9 -8v-602zM279 784q3 -3 -1.5 -10.5t-9.5 -13.5q-5 -5 -12.5 -10t-10.5 -2l-75 74q-5 5 -9 5.5t-10 -4.5
q-1 -1 -12 -12.5t-25 -25.5l-36 -36q-4 -4 -10 0t-14 11q-8 8 -11.5 14.5t-0.5 9.5l85 85q18 18 34 17.5t33 -17.5z" />
    <glyph glyph-name="Udieresis" unicode="&#xdc;" horiz-adv-x="321" 
d="M281 87q0 -45 -22 -66t-66 -21h-66q-43 0 -65 20t-22 64v606q0 4 9 7t21 3t21.5 -3t9.5 -8v-605q0 -14 8 -23t25 -9h53q16 0 24 11t8 27v600q0 4 8 7t22 3t23 -3t9 -8v-602zM102 800q14 0 23 -2t9 -6v-43q0 -5 -9 -7.5t-23 -2.5t-23 2t-9 7v1v42q0 5 9 7t23 2zM218 800
q14 0 23 -2t9 -6v-43q0 -5 -9 -7.5t-23 -2.5t-23 2t-9 7v1v42q0 5 9 7t23 2z" />
    <glyph glyph-name="Yacute" unicode="&#xdd;" horiz-adv-x="300" 
d="M252 700q30 0 27 -11q-2 -7 -7 -26.5t-12 -46.5t-15.5 -59t-17.5 -65q-20 -77 -44 -169q-2 -5 -2 -13v-298v-7q0 -3 -8 -6.5t-21 -3.5q-14 0 -21.5 3.5t-7.5 8.5v6v296v6t-1 5q-26 93 -47 170q-9 33 -18 65.5t-16.5 59.5t-12.5 47t-7 27q-3 11 27 11q29 2 31 -7l69 -252
q2 -5 4 -1l34 126q15 55 35 126q2 10 31 8zM170 874q5 6 12.5 5t20.5 -14q12 -12 12.5 -18.5t-5.5 -12.5l-94 -94q-6 -4 -21 11t-10 22q16 20 32 38q14 16 28 33t25 30z" />
    <glyph glyph-name="germandbls" unicode="&#xdf;" horiz-adv-x="576" 
d="M238 552q-14 0 -22.5 4t-8.5 7v49q0 14 -7.5 23t-24.5 9h-11h-41q-16 0 -24 -11t-8 -27v-84q0 -28 13 -50.5t33 -43.5t43 -42t43 -46t33 -55.5t13 -69.5v-129q0 -45 -22 -65.5t-65 -20.5h-65q-43 0 -65 19.5t-22 63.5v49q0 3 7 7.5t24 4.5q30 0 30 -12v-49q0 -14 8 -23
t25 -9h51q16 0 24 11t8 27v129q0 25 -13 48.5t-33 47t-42.5 46t-42.5 46t-33 47t-13 48.5v108q0 45 22 65.5t65 20.5h65q43 0 65 -19.5t22 -63.5v-49q0 -11 -31 -11zM515 552q-14 0 -22.5 4t-8.5 7v49q0 14 -7.5 23t-24.5 9h-11h-41q-16 0 -24 -11t-8 -27v-84
q0 -28 13 -50.5t33 -43.5t43 -42t43 -46t33 -55.5t13 -69.5v-129q0 -45 -22 -65.5t-65 -20.5h-65q-43 0 -65 19.5t-22 63.5v49q0 3 7 7.5t24 4.5q30 0 30 -12v-49q0 -14 8 -23t25 -9h51q16 0 24 11t8 27v129q0 25 -13 48.5t-33 47t-42.5 46t-42.5 46t-33 47t-13 48.5v108
q0 45 22 65.5t65 20.5h65q43 0 65 -19.5t22 -63.5v-49q0 -11 -31 -11z" />
    <glyph glyph-name="agrave" unicode="&#xe0;" horiz-adv-x="312" 
d="M200 201q8 0 6 10q0 1 -3 24.5t-7.5 60.5t-10 82t-11 88t-9.5 79t-6 55q-1 8 -2 7t-2 -7q-2 -19 -6.5 -55t-9.5 -79t-11 -88t-10.5 -82t-7.5 -61t-3 -25q0 -9 6 -9h87zM156 700q35 0 47.5 -11t14.5 -26q0 -2 3.5 -31.5t8.5 -76t11.5 -105t13.5 -119.5t13.5 -119.5
t11.5 -104.5t8 -74t3 -29q1 -2 -5.5 -5.5t-24.5 -3.5t-23.5 3t-6.5 5q0 1 -2.5 22t-5.5 46t-5.5 46t-2.5 24q-1 7 -7 7h-100q-8 0 -9 -6q0 -2 -3 -23t-6 -46t-5.5 -46.5t-2.5 -22.5q-1 -3 -6.5 -6t-25.5 -3t-25 2.5t-4 5.5q0 1 3 29t8.5 74t12 104.5t13.5 120t14 120t12 105
t8.5 75t3.5 30.5q2 17 14 28t46 11zM222 773q4 -8 -10 -22q-15 -15 -22 -11l-93 94q-6 6 -6 12.5t13 18.5q12 13 19.5 14t12.5 -5q11 -13 25.5 -30t28.5 -33q16 -18 32 -38z" />
    <glyph glyph-name="aacute" unicode="&#xe1;" horiz-adv-x="312" 
d="M200 201q8 0 6 10q0 1 -3 24.5t-7.5 60.5t-10 82t-11 88t-9.5 79t-6 55q-1 8 -2 7t-2 -7q-2 -19 -6.5 -55t-9.5 -79t-11 -88t-10.5 -82t-7.5 -61t-3 -25q0 -9 6 -9h87zM156 700q35 0 47.5 -11t14.5 -26q0 -2 3.5 -31.5t8.5 -76t11.5 -105t13.5 -119.5t13.5 -119.5
t11.5 -104.5t8 -74t3 -29q1 -2 -5.5 -5.5t-24.5 -3.5t-23.5 3t-6.5 5q0 1 -2.5 22t-5.5 46t-5.5 46t-2.5 24q-1 7 -7 7h-100q-8 0 -9 -6q0 -2 -3 -23t-6 -46t-5.5 -46.5t-2.5 -22.5q-1 -3 -6.5 -6t-25.5 -3t-25 2.5t-4 5.5q0 1 3 29t8.5 74t12 104.5t13.5 120t14 120t12 105
t8.5 75t3.5 30.5q2 17 14 28t46 11zM176 874q5 6 12.5 5t20.5 -14q12 -12 12.5 -18.5t-5.5 -12.5l-94 -94q-6 -4 -21 11t-10 22q16 20 32 38q14 16 28 33t25 30z" />
    <glyph glyph-name="acircumflex" unicode="&#xe2;" horiz-adv-x="312" 
d="M200 201q8 0 6 10q0 1 -3 24.5t-7.5 60.5t-10 82t-11 88t-9.5 79t-6 55q-1 8 -2 7t-2 -7q-2 -19 -6.5 -55t-9.5 -79t-11 -88t-10.5 -82t-7.5 -61t-3 -25q0 -9 6 -9h87zM156 700q35 0 47.5 -11t14.5 -26q0 -2 3.5 -31.5t8.5 -76t11.5 -105t13.5 -119.5t13.5 -119.5
t11.5 -104.5t8 -74t3 -29q1 -2 -5.5 -5.5t-24.5 -3.5t-23.5 3t-6.5 5q0 1 -2.5 22t-5.5 46t-5.5 46t-2.5 24q-1 7 -7 7h-100q-8 0 -9 -6q0 -2 -3 -23t-6 -46t-5.5 -46.5t-2.5 -22.5q-1 -3 -6.5 -6t-25.5 -3t-25 2.5t-4 5.5q0 1 3 29t8.5 74t12 104.5t13.5 120t14 120t12 105
t8.5 75t3.5 30.5q2 17 14 28t46 11zM274 784q3 -3 -1.5 -10.5t-9.5 -13.5q-5 -5 -12.5 -10t-10.5 -2l-75 74q-5 5 -9 5.5t-10 -4.5q-1 -1 -12 -12.5t-25 -25.5l-36 -36q-4 -4 -10 0t-14 11q-8 8 -11.5 14.5t-0.5 9.5l85 85q18 18 34 17.5t33 -17.5z" />
    <glyph glyph-name="atilde" unicode="&#xe3;" horiz-adv-x="312" 
d="M200 201q8 0 6 10q0 1 -3 24.5t-7.5 60.5t-10 82t-11 88t-9.5 79t-6 55q-1 8 -2 7t-2 -7q-2 -19 -6.5 -55t-9.5 -79t-11 -88t-10.5 -82t-7.5 -61t-3 -25q0 -9 6 -9h87zM156 700q35 0 47.5 -11t14.5 -26q0 -2 3.5 -31.5t8.5 -76t11.5 -105t13.5 -119.5t13.5 -119.5
t11.5 -104.5t8 -74t3 -29q1 -2 -5.5 -5.5t-24.5 -3.5t-23.5 3t-6.5 5q0 1 -2.5 22t-5.5 46t-5.5 46t-2.5 24q-1 7 -7 7h-100q-8 0 -9 -6q0 -2 -3 -23t-6 -46t-5.5 -46.5t-2.5 -22.5q-1 -3 -6.5 -6t-25.5 -3t-25 2.5t-4 5.5q0 1 3 29t8.5 74t12 104.5t13.5 120t14 120t12 105
t8.5 75t3.5 30.5q2 17 14 28t46 11zM262 772q-5 -5 -7 -6t-3 -2q-23 -15 -45.5 -12.5t-44.5 8.5t-43.5 8.5t-41.5 -12.5q-5 -5 -10.5 -1t-10.5 9t-8.5 14t2.5 14q21 14 38.5 17.5t33 1.5t29.5 -6.5t28 -7t29 -1t32 13.5l1 1q4 2 10 -0.5t11 -11.5q9 -20 0 -27z" />
    <glyph glyph-name="adieresis" unicode="&#xe4;" horiz-adv-x="312" 
d="M200 201q8 0 6 10q0 1 -3 24.5t-7.5 60.5t-10 82t-11 88t-9.5 79t-6 55q-1 8 -2 7t-2 -7q-2 -19 -6.5 -55t-9.5 -79t-11 -88t-10.5 -82t-7.5 -61t-3 -25q0 -9 6 -9h87zM156 700q35 0 47.5 -11t14.5 -26q0 -2 3.5 -31.5t8.5 -76t11.5 -105t13.5 -119.5t13.5 -119.5
t11.5 -104.5t8 -74t3 -29q1 -2 -5.5 -5.5t-24.5 -3.5t-23.5 3t-6.5 5q0 1 -2.5 22t-5.5 46t-5.5 46t-2.5 24q-1 7 -7 7h-100q-8 0 -9 -6q0 -2 -3 -23t-6 -46t-5.5 -46.5t-2.5 -22.5q-1 -3 -6.5 -6t-25.5 -3t-25 2.5t-4 5.5q0 1 3 29t8.5 74t12 104.5t13.5 120t14 120t12 105
t8.5 75t3.5 30.5q2 17 14 28t46 11zM98 800q14 0 23 -2t9 -6v-43q0 -5 -9 -7.5t-23 -2.5t-23 2t-9 7v1v42q0 5 9 7t23 2zM214 800q14 0 23 -2t9 -6v-43q0 -5 -9 -7.5t-23 -2.5t-23 2t-9 7v1v42q0 5 9 7t23 2z" />
    <glyph glyph-name="aring" unicode="&#xe5;" horiz-adv-x="312" 
d="M200 201q8 0 6 10q0 1 -3 24.5t-7.5 60.5t-10 82t-11 88t-9.5 79t-6 55q-1 8 -2 7t-2 -7q-2 -19 -6.5 -55t-9.5 -79t-11 -88t-10.5 -82t-7.5 -61t-3 -25q0 -9 6 -9h87zM156 700q35 0 47.5 -11t14.5 -26q0 -2 3.5 -31.5t8.5 -76t11.5 -105t13.5 -119.5t13.5 -119.5
t11.5 -104.5t8 -74t3 -29q1 -2 -5.5 -5.5t-24.5 -3.5t-23.5 3t-6.5 5q0 1 -2.5 22t-5.5 46t-5.5 46t-2.5 24q-1 7 -7 7h-100q-8 0 -9 -6q0 -2 -3 -23t-6 -46t-5.5 -46.5t-2.5 -22.5q-1 -3 -6.5 -6t-25.5 -3t-25 2.5t-4 5.5q0 1 3 29t8.5 74t12 104.5t13.5 120t14 120t12 105
t8.5 75t3.5 30.5q2 17 14 28t46 11zM162 893q33 0 50.5 -15t17.5 -49v-14q0 -68 -68 -68h-12q-68 0 -68 65v14q0 35 17.5 51t50.5 16h12zM182 829q0 11 -6 18t-19 7h-2q-12 0 -18.5 -9t-6.5 -21v-12q0 -11 6 -18t20 -7h1q12 0 18.5 8.5t6.5 21.5v12z" />
    <glyph glyph-name="ae" unicode="&#xe6;" horiz-adv-x="510" 
d="M470 51q5 0 7.5 -4.5t2.5 -21.5q0 -16 -2.5 -20.5t-7.5 -4.5h-175q-9 0 -9 8v137q0 7 -8 7h-151l-45 -147q-3 -10 -30 -10q-14 0 -24.5 1.5t-6.5 12.5l196 654q11 32 37 32h214q5 0 8.5 -7t3.5 -17q0 -9 -3 -17.5t-8 -8.5h-115q-7 0 -7 -6v-252q0 -6 6 -6h105q3 0 6.5 -5
t3.5 -21q0 -17 -3 -21.5t-8 -4.5h-103q-7 0 -7 -8v-264q0 -6 7 -6h116zM280 202q6 0 6 9v425q0 9 -6 9q-4 0 -5 -2.5t-3 -6.5q0 -1 -6 -20t-15.5 -50t-21 -70t-23.5 -79q-28 -95 -64 -215h138z" />
    <glyph glyph-name="ccedilla" unicode="&#xe7;" horiz-adv-x="310" 
d="M160 -46q21 0 35.5 -15t14.5 -42q-1 -24 -17.5 -40t-45.5 -16q-11 0 -19 2t-13 4q-6 3 -11 7q-4 4 -4 5.5t2 9.5q3 12 7 11q5 -1 13.5 -6t25.5 -5q12 0 19.5 8t7.5 19v2q0 24 -23 27l-23 3q-10 0 -7 8q1 1 4.5 10.5t7.5 20.5t8 21t5 12h-20q-87 0 -87 83v526
q0 45 22 65.5t65 20.5h66q42 0 64.5 -19.5t22.5 -63.5v-48q0 -3 -9 -6t-22 -3q-14 0 -22.5 2.5t-8.5 6.5v48q0 14 -7.5 23.5t-24.5 9.5h-52q-32 0 -32 -39v-523q0 -14 7.5 -23t24.5 -9h52q32 0 32 32v56q0 3 8 7.5t22 4.5t23 -4t9 -8v-56q0 -45 -22.5 -64t-64.5 -19h-16
l-18 -46h1v0z" />
    <glyph glyph-name="egrave" unicode="&#xe8;" horiz-adv-x="264" 
d="M223 51q5 0 8 -4t3 -21q0 -16 -3 -21t-7 -5l-176 1q-8 0 -8 7v678q0 9 9 9h173q5 0 8 -7t3 -17q0 -9 -2.5 -17.5t-7.5 -8.5h-116q-6 0 -6 -6v-252q0 -6 5 -6h106q3 0 6.5 -4.5t3.5 -21.5t-3.5 -21.5t-7.5 -4.5h-103q-7 0 -7 -8v-263q0 -7 7 -7h115zM198 773q4 -8 -10 -22
q-15 -15 -22 -11l-93 94q-6 6 -6 12.5t13 18.5q12 13 19.5 14t12.5 -5q11 -13 25.5 -30t28.5 -33q16 -18 32 -38z" />
    <glyph glyph-name="eacute" unicode="&#xe9;" horiz-adv-x="264" 
d="M223 51q5 0 8 -4t3 -21q0 -16 -3 -21t-7 -5l-176 1q-8 0 -8 7v678q0 9 9 9h173q5 0 8 -7t3 -17q0 -9 -2.5 -17.5t-7.5 -8.5h-116q-6 0 -6 -6v-252q0 -6 5 -6h106q3 0 6.5 -4.5t3.5 -21.5t-3.5 -21.5t-7.5 -4.5h-103q-7 0 -7 -8v-263q0 -7 7 -7h115zM152 874q5 6 12.5 5
t20.5 -14q12 -12 12.5 -18.5t-5.5 -12.5l-94 -94q-6 -4 -21 11t-10 22q16 20 32 38q14 16 28 33t25 30z" />
    <glyph glyph-name="ecircumflex" unicode="&#xea;" horiz-adv-x="264" 
d="M223 51q5 0 8 -4t3 -21q0 -16 -3 -21t-7 -5l-176 1q-8 0 -8 7v678q0 9 9 9h173q5 0 8 -7t3 -17q0 -9 -2.5 -17.5t-7.5 -8.5h-116q-6 0 -6 -6v-252q0 -6 5 -6h106q3 0 6.5 -4.5t3.5 -21.5t-3.5 -21.5t-7.5 -4.5h-103q-7 0 -7 -8v-263q0 -7 7 -7h115zM251 784
q3 -3 -1.5 -10.5t-9.5 -13.5q-5 -5 -12.5 -10t-10.5 -2l-75 74q-5 5 -9 5.5t-10 -4.5q-1 -1 -12 -12.5t-25 -25.5l-36 -36q-4 -4 -10 0t-14 11q-8 8 -11.5 14.5t-0.5 9.5l85 85q18 18 34 17.5t33 -17.5z" />
    <glyph glyph-name="edieresis" unicode="&#xeb;" horiz-adv-x="264" 
d="M223 51q5 0 8 -4t3 -21q0 -16 -3 -21t-7 -5l-176 1q-8 0 -8 7v678q0 9 9 9h173q5 0 8 -7t3 -17q0 -9 -2.5 -17.5t-7.5 -8.5h-116q-6 0 -6 -6v-252q0 -6 5 -6h106q3 0 6.5 -4.5t3.5 -21.5t-3.5 -21.5t-7.5 -4.5h-103q-7 0 -7 -8v-263q0 -7 7 -7h115zM74 800q14 0 23 -2
t9 -6v-43q0 -5 -9 -7.5t-23 -2.5t-23 2t-9 7v1v42q0 5 9 7t23 2zM190 800q14 0 23 -2t9 -6v-43q0 -5 -9 -7.5t-23 -2.5t-23 2t-9 7v1v42q0 5 9 7t23 2z" />
    <glyph glyph-name="igrave" unicode="&#xec;" horiz-adv-x="163" 
d="M82 -5q-32 0 -32 9v685q0 4 7 7.5t24 3.5t24.5 -3.5t7.5 -7.5v-683q0 -11 -31 -11zM147 773q4 -8 -10 -22q-15 -15 -22 -11l-93 94q-6 6 -6 12.5t13 18.5q12 13 19.5 14t12.5 -5q11 -13 25.5 -30t28.5 -33q16 -18 32 -38z" />
    <glyph glyph-name="iacute" unicode="&#xed;" horiz-adv-x="163" 
d="M82 -5q-32 0 -32 9v685q0 4 7 7.5t24 3.5t24.5 -3.5t7.5 -7.5v-683q0 -11 -31 -11zM101 874q5 6 12.5 5t20.5 -14q12 -12 12.5 -18.5t-5.5 -12.5l-94 -94q-6 -4 -21 11t-10 22q16 20 32 38q14 16 28 33t25 30z" />
    <glyph glyph-name="icircumflex" unicode="&#xee;" horiz-adv-x="163" 
d="M82 -5q-32 0 -32 9v685q0 4 7 7.5t24 3.5t24.5 -3.5t7.5 -7.5v-683q0 -11 -31 -11zM200 791q3 -3 -1.5 -10.5t-9.5 -13.5q-5 -5 -12.5 -10t-10.5 -2l-75 74q-5 5 -9 5.5t-10 -4.5q-1 -1 -12 -12.5t-25 -25.5l-36 -36q-4 -4 -10 0t-14 11q-8 8 -11.5 14.5t-0.5 9.5l85 85
q18 18 34 17.5t33 -17.5z" />
    <glyph glyph-name="idieresis" unicode="&#xef;" horiz-adv-x="163" 
d="M82 -5q-32 0 -32 9v685q0 4 7 7.5t24 3.5t24.5 -3.5t7.5 -7.5v-683q0 -11 -31 -11zM24 800q14 0 23 -2t9 -6v-43q0 -5 -9 -7.5t-23 -2.5t-23 2t-9 7v1v42q0 5 9 7t23 2zM140 800q14 0 23 -2t9 -6v-43q0 -5 -9 -7.5t-23 -2.5t-23 2t-9 7v1v42q0 5 9 7t23 2z" />
    <glyph glyph-name="ntilde" unicode="&#xf1;" horiz-adv-x="327" 
d="M286 6q0 -4 -7 -7.5t-23 -3.5t-22.5 4t-8.5 8q0 1 -9 32.5t-22.5 78t-28.5 100.5t-28.5 100t-22.5 77t-9 32q-1 3 -2 3.5t-1 -3.5v-421q0 -3 -8 -7t-23 -4q-14 0 -22.5 3.5t-8.5 8.5v681q0 8 7.5 10t23.5 2q30 0 34 -8q31 -115 57 -207q11 -39 21.5 -76.5t18.5 -67
t13.5 -48t5.5 -19.5q1 -3 2 -5t1 6v415q0 10 31 10q32 0 32 -11zM270 772q-5 -5 -7 -6t-3 -2q-23 -15 -45.5 -12.5t-44.5 8.5t-43.5 8.5t-41.5 -12.5q-5 -5 -10.5 -1t-10.5 9t-8.5 14t2.5 14q21 14 38.5 17.5t33 1.5t29.5 -6.5t28 -7t29 -1t32 13.5l1 1q4 2 10 -0.5
t11 -11.5q9 -20 0 -27z" />
    <glyph glyph-name="ograve" unicode="&#xf2;" 
d="M218 612q0 14 -7.5 23t-24.5 9h-52q-16 0 -24 -11t-8 -27v-523q0 -14 8 -23t24 -9h52q16 0 24 11t8 27v523zM193 695q43 0 65 -19.5t22 -63.5v-526q0 -45 -22 -65.5t-65 -20.5h-65q-43 0 -65.5 19.5t-22.5 63.5v526q0 45 22.5 65.5t65.5 20.5h65zM226 773q4 -8 -10 -22
q-15 -15 -22 -11l-93 94q-6 6 -6 12.5t13 18.5q12 13 19.5 14t12.5 -5q11 -13 25.5 -30t28.5 -33q16 -18 32 -38z" />
    <glyph glyph-name="oacute" unicode="&#xf3;" 
d="M218 612q0 14 -7.5 23t-24.5 9h-52q-16 0 -24 -11t-8 -27v-523q0 -14 8 -23t24 -9h52q16 0 24 11t8 27v523zM193 695q43 0 65 -19.5t22 -63.5v-526q0 -45 -22 -65.5t-65 -20.5h-65q-43 0 -65.5 19.5t-22.5 63.5v526q0 45 22.5 65.5t65.5 20.5h65zM180 874q5 6 12.5 5
t20.5 -14q12 -12 12.5 -18.5t-5.5 -12.5l-94 -94q-6 -4 -21 11t-10 22q16 20 32 38q14 16 28 33t25 30z" />
    <glyph glyph-name="ocircumflex" unicode="&#xf4;" 
d="M218 612q0 14 -7.5 23t-24.5 9h-52q-16 0 -24 -11t-8 -27v-523q0 -14 8 -23t24 -9h52q16 0 24 11t8 27v523zM193 695q43 0 65 -19.5t22 -63.5v-526q0 -45 -22 -65.5t-65 -20.5h-65q-43 0 -65.5 19.5t-22.5 63.5v526q0 45 22.5 65.5t65.5 20.5h65zM278 784
q3 -3 -1.5 -10.5t-9.5 -13.5q-5 -5 -12.5 -10t-10.5 -2l-75 74q-5 5 -9 5.5t-10 -4.5q-1 -1 -12 -12.5t-25 -25.5l-36 -36q-4 -4 -10 0t-14 11q-8 8 -11.5 14.5t-0.5 9.5l85 85q18 18 34 17.5t33 -17.5z" />
    <glyph glyph-name="otilde" unicode="&#xf5;" 
d="M218 612q0 14 -7.5 23t-24.5 9h-52q-16 0 -24 -11t-8 -27v-523q0 -14 8 -23t24 -9h52q16 0 24 11t8 27v523zM193 695q43 0 65 -19.5t22 -63.5v-526q0 -45 -22 -65.5t-65 -20.5h-65q-43 0 -65.5 19.5t-22.5 63.5v526q0 45 22.5 65.5t65.5 20.5h65zM266 772q-5 -5 -7 -6
t-3 -2q-23 -15 -45.5 -12.5t-44.5 8.5t-43.5 8.5t-41.5 -12.5q-5 -5 -10.5 -1t-10.5 9t-8.5 14t2.5 14q21 14 38.5 17.5t33 1.5t29.5 -6.5t28 -7t29 -1t32 13.5l1 1q4 2 10 -0.5t11 -11.5q9 -20 0 -27z" />
    <glyph glyph-name="odieresis" unicode="&#xf6;" 
d="M218 612q0 14 -7.5 23t-24.5 9h-52q-16 0 -24 -11t-8 -27v-523q0 -14 8 -23t24 -9h52q16 0 24 11t8 27v523zM193 695q43 0 65 -19.5t22 -63.5v-526q0 -45 -22 -65.5t-65 -20.5h-65q-43 0 -65.5 19.5t-22.5 63.5v526q0 45 22.5 65.5t65.5 20.5h65zM102 800q14 0 23 -2
t9 -6v-43q0 -5 -9 -7.5t-23 -2.5t-23 2t-9 7v1v42q0 5 9 7t23 2zM218 800q14 0 23 -2t9 -6v-43q0 -5 -9 -7.5t-23 -2.5t-23 2t-9 7v1v42q0 5 9 7t23 2z" />
    <glyph glyph-name="divide" unicode="&#xf7;" horiz-adv-x="341" 
d="M200 204q0 -31 -8 -31h-43q-4 0 -6.5 8.5t-2.5 22.5t2 23t7 9h42q6 0 7.5 -9t1.5 -23zM140 395q0 14 2 23t7 9h42q6 0 7.5 -9t1.5 -23q0 -31 -8 -31h-43q-4 0 -6.5 8.5t-2.5 22.5zM312 325q5 0 7 -8.5t2 -16.5t-2 -16.5t-6 -8.5h-284q-5 0 -7 7t-2 18t1.5 18t6.5 7h284z
" />
    <glyph glyph-name="oslash" unicode="&#xf8;" 
d="M230 738q13 0 24 -2t7 -15l-8 -42q13 -11 20 -27t7 -40v-526q0 -45 -22 -65.5t-65 -20.5h-65h-1l-6 -32q-3 -11 -31 -11q-13 0 -23.5 1.5t-6.5 13.5l8 43q-28 19 -28 68v526q0 45 22.5 65.5t65.5 20.5h65l6 32q3 11 31 11zM102 200l81 444h-49q-16 0 -24 -11t-8 -27v-406
zM218 489l-82 -438h50q16 0 24 11t8 27v400z" />
    <glyph glyph-name="ugrave" unicode="&#xf9;" horiz-adv-x="321" 
d="M281 87q0 -45 -22 -66t-66 -21h-66q-43 0 -65 20t-22 64v606q0 4 9 7t21 3t21.5 -3t9.5 -8v-605q0 -14 8 -23t25 -9h53q16 0 24 11t8 27v600q0 4 8 7t22 3t23 -3t9 -8v-602zM226 773q4 -8 -10 -22q-15 -15 -22 -11l-93 94q-6 6 -6 12.5t13 18.5q12 13 19.5 14t12.5 -5
q11 -13 25.5 -30t28.5 -33q16 -18 32 -38z" />
    <glyph glyph-name="uacute" unicode="&#xfa;" horiz-adv-x="321" 
d="M281 87q0 -45 -22 -66t-66 -21h-66q-43 0 -65 20t-22 64v606q0 4 9 7t21 3t21.5 -3t9.5 -8v-605q0 -14 8 -23t25 -9h53q16 0 24 11t8 27v600q0 4 8 7t22 3t23 -3t9 -8v-602zM180 874q5 6 12.5 5t20.5 -14q12 -12 12.5 -18.5t-5.5 -12.5l-94 -94q-6 -4 -21 11t-10 22
q16 20 32 38q14 16 28 33t25 30z" />
    <glyph glyph-name="ucircumflex" unicode="&#xfb;" horiz-adv-x="321" 
d="M281 87q0 -45 -22 -66t-66 -21h-66q-43 0 -65 20t-22 64v606q0 4 9 7t21 3t21.5 -3t9.5 -8v-605q0 -14 8 -23t25 -9h53q16 0 24 11t8 27v600q0 4 8 7t22 3t23 -3t9 -8v-602zM279 784q3 -3 -1.5 -10.5t-9.5 -13.5q-5 -5 -12.5 -10t-10.5 -2l-75 74q-5 5 -9 5.5t-10 -4.5
q-1 -1 -12 -12.5t-25 -25.5l-36 -36q-4 -4 -10 0t-14 11q-8 8 -11.5 14.5t-0.5 9.5l85 85q18 18 34 17.5t33 -17.5z" />
    <glyph glyph-name="udieresis" unicode="&#xfc;" horiz-adv-x="321" 
d="M281 87q0 -45 -22 -66t-66 -21h-66q-43 0 -65 20t-22 64v606q0 4 9 7t21 3t21.5 -3t9.5 -8v-605q0 -14 8 -23t25 -9h53q16 0 24 11t8 27v600q0 4 8 7t22 3t23 -3t9 -8v-602zM102 800q14 0 23 -2t9 -6v-43q0 -5 -9 -7.5t-23 -2.5t-23 2t-9 7v1v42q0 5 9 7t23 2zM218 800
q14 0 23 -2t9 -6v-43q0 -5 -9 -7.5t-23 -2.5t-23 2t-9 7v1v42q0 5 9 7t23 2z" />
    <glyph glyph-name="yacute" unicode="&#xfd;" horiz-adv-x="300" 
d="M252 700q30 0 27 -11q-2 -7 -7 -26.5t-12 -46.5t-15.5 -59t-17.5 -65q-20 -77 -44 -169q-2 -5 -2 -13v-298v-7q0 -3 -8 -6.5t-21 -3.5q-14 0 -21.5 3.5t-7.5 8.5v6v296v6t-1 5q-26 93 -47 170q-9 33 -18 65.5t-16.5 59.5t-12.5 47t-7 27q-3 11 27 11q29 2 31 -7l69 -252
q2 -5 4 -1l34 126q15 55 35 126q2 10 31 8zM170 874q5 6 12.5 5t20.5 -14q12 -12 12.5 -18.5t-5.5 -12.5l-94 -94q-6 -4 -21 11t-10 22q16 20 32 38q14 16 28 33t25 30z" />
    <glyph glyph-name="ydieresis" unicode="&#xff;" horiz-adv-x="300" 
d="M252 700q30 0 27 -11q-2 -7 -7 -26.5t-12 -46.5t-15.5 -59t-17.5 -65q-20 -77 -44 -169q-2 -5 -2 -13v-298v-7q0 -3 -8 -6.5t-21 -3.5q-14 0 -21.5 3.5t-7.5 8.5v6v296v6t-1 5q-26 93 -47 170q-9 33 -18 65.5t-16.5 59.5t-12.5 47t-7 27q-3 11 27 11q29 2 31 -7l69 -252
q2 -5 4 -1l34 126q15 55 35 126q2 10 31 8zM92 800q14 0 23 -2t9 -6v-43q0 -5 -9 -7.5t-23 -2.5t-23 2t-9 7v1v42q0 5 9 7t23 2zM208 800q14 0 23 -2t9 -6v-43q0 -5 -9 -7.5t-23 -2.5t-23 2t-9 7v1v42q0 5 9 7t23 2z" />
    <glyph glyph-name="OE" unicode="&#x152;" horiz-adv-x="442" 
d="M401 51q5 0 8 -4.5t3 -20.5q0 -17 -3 -21.5t-7 -4.5h-275q-43 0 -65 19.5t-22 63.5v526q0 45 22 65.5t65 20.5h273q5 0 8 -7t3 -17t-2.5 -18t-7.5 -8l-116 -1q-6 0 -6 -5v-254q2 -5 5 -5h106q3 0 6.5 -4.5t3.5 -21.5q0 -16 -3.5 -21t-7.5 -5h-103q-6 0 -7 -6v-264
q0 -7 7 -7h115zM101 83q0 -14 8 -23t25 -9h52q15 0 23.5 11t8.5 27v523q0 14 -8 23t-25 9h-52q-15 0 -23.5 -11t-8.5 -27v-523z" />
    <glyph glyph-name="oe" unicode="&#x153;" horiz-adv-x="442" 
d="M401 51q5 0 8 -4.5t3 -20.5q0 -17 -3 -21.5t-7 -4.5h-275q-43 0 -65 19.5t-22 63.5v526q0 45 22 65.5t65 20.5h273q5 0 8 -7t3 -17t-2.5 -18t-7.5 -8l-116 -1q-6 0 -6 -5v-254q2 -5 5 -5h106q3 0 6.5 -4.5t3.5 -21.5q0 -16 -3.5 -21t-7.5 -5h-103q-6 0 -7 -6v-264
q0 -7 7 -7h115zM101 83q0 -14 8 -23t25 -9h52q15 0 23.5 11t8.5 27v523q0 14 -8 23t-25 9h-52q-15 0 -23.5 -11t-8.5 -27v-523z" />
    <glyph glyph-name="Ydieresis" unicode="&#x178;" horiz-adv-x="300" 
d="M252 700q30 0 27 -11q-2 -7 -7 -26.5t-12 -46.5t-15.5 -59t-17.5 -65q-20 -77 -44 -169q-2 -5 -2 -13v-298v-7q0 -3 -8 -6.5t-21 -3.5q-14 0 -21.5 3.5t-7.5 8.5v6v296v6t-1 5q-26 93 -47 170q-9 33 -18 65.5t-16.5 59.5t-12.5 47t-7 27q-3 11 27 11q29 2 31 -7l69 -252
q2 -5 4 -1l34 126q15 55 35 126q2 10 31 8zM92 800q14 0 23 -2t9 -6v-43q0 -5 -9 -7.5t-23 -2.5t-23 2t-9 7v1v42q0 5 9 7t23 2zM208 800q14 0 23 -2t9 -6v-43q0 -5 -9 -7.5t-23 -2.5t-23 2t-9 7v1v42q0 5 9 7t23 2z" />
    <glyph glyph-name="circumflex" unicode="&#x2c6;" horiz-adv-x="281" 
d="M259 591q3 -3 -1.5 -10.5t-9.5 -13.5q-5 -5 -12.5 -10t-10.5 -2l-75 74q-5 5 -9 5.5t-10 -4.5q-1 -1 -12 -12.5t-25 -25.5l-36 -36q-4 -4 -10 0t-14 11q-8 8 -11.5 14.5t-0.5 9.5l85 85q18 18 34 17.5t33 -17.5l85 -85v0z" />
    <glyph glyph-name="ring" unicode="&#x2da;" horiz-adv-x="188" 
d="M100 693q33 0 50.5 -15t17.5 -49v-14q0 -68 -68 -68h-12q-68 0 -68 65v14q0 35 17.5 51t50.5 16h12zM120 629q0 11 -6 18t-19 7h-2q-12 0 -18.5 -9t-6.5 -21v-12q0 -11 6 -18t20 -7h1q12 0 18.5 8.5t6.5 21.5v12z" />
    <glyph glyph-name="tilde" unicode="&#x2dc;" horiz-adv-x="261" 
d="M236 572q-5 -5 -7 -6t-3 -2q-23 -15 -45.5 -12.5t-44.5 8.5t-43.5 8.5t-41.5 -12.5q-5 -5 -10.5 -1t-10.5 9t-8.5 14t2.5 14q21 14 38.5 17.5t33 1.5t29.5 -6.5t28 -7t29 -1t32 13.5l1 1q4 2 10 -0.5t11 -11.5q9 -20 0 -27z" />
    <glyph glyph-name="endash" unicode="&#x2013;" horiz-adv-x="387" 
d="M358 373q4 0 6.5 -8.5t2.5 -16.5t-2 -16.5t-6 -8.5h-330q-6 0 -7.5 7t-1.5 18t1.5 18t6.5 7h330v0z" />
    <glyph glyph-name="emdash" unicode="&#x2014;" horiz-adv-x="503" 
d="M474 373q4 0 6.5 -8.5t2.5 -16.5t-2 -16.5t-7 -8.5h-444q-6 0 -8 7t-2 18t2 18t7 7h445v0z" />
    <glyph glyph-name="quoteleft" unicode="&#x2018;" horiz-adv-x="113" 
d="M61 569q-31 0 -31 8v43v12q0 20 6 30.5t24 28.5q6 5 7.5 4t6.5 -4q4 -4 3.5 -6t-5.5 -7q-20 -20 -19.5 -34.5t14.5 -14.5q26 0 26 -8v-1v-42q0 -5 -9 -7t-23 -2z" />
    <glyph glyph-name="quoteright" unicode="&#x2019;" horiz-adv-x="103" 
d="M42 695q31 0 31 -8v-44v-12q0 -20 -6 -30.5t-24 -28.5q-5 -5 -7 -4t-6 4q-5 4 -4.5 6t6.5 8q19 19 18.5 33.5t-14.5 14.5q-26 0 -26 9v43q0 5 9 7t23 2z" />
    <glyph glyph-name="quotedblleft" unicode="&#x201c;" horiz-adv-x="208" 
d="M61 569q-31 0 -31 8v43v12q0 20 6 30.5t24 28.5q6 5 7.5 4t6.5 -4q4 -4 3.5 -6t-5.5 -7q-20 -20 -19.5 -34.5t14.5 -14.5q26 0 26 -8v-1v-42q0 -5 -9 -7t-23 -2zM156 569q-31 0 -31 8v43v12q0 20 6 30.5t24 28.5q6 5 7.5 4t6.5 -4q4 -4 3.5 -6t-5.5 -7
q-20 -20 -19.5 -34.5t14.5 -14.5q26 0 26 -8v-1v-42q0 -5 -9 -7t-23 -2z" />
    <glyph glyph-name="quotedblright" unicode="&#x201d;" horiz-adv-x="201" 
d="M140 695q31 0 31 -8v-44v-12q0 -20 -6 -30.5t-24 -28.5q-5 -5 -7 -4t-6 4q-5 4 -4.5 6t6.5 8q19 19 18.5 33.5t-14.5 14.5q-26 0 -26 9v43q0 5 9 7t23 2zM42 695q31 0 31 -8v-44v-12q0 -20 -6 -30.5t-24 -28.5q-5 -5 -7 -4t-6 4q-5 4 -4.5 6t6.5 8q19 19 18.5 33.5
t-14.5 14.5q-26 0 -26 9v43q0 5 9 7t23 2z" />
    <glyph glyph-name="bullet" unicode="&#x2022;" horiz-adv-x="287" 
d="M169 439q68 0 68 -65v-63q0 -35 -17.5 -51t-50.5 -16h-51q-33 0 -50.5 15t-17.5 49v64q0 67 68 67h51v0z" />
    <glyph glyph-name="ellipsis" unicode="&#x2026;" horiz-adv-x="362" 
d="M52 56q14 0 23 -2t9 -6v-43q0 -5 -9 -7.5t-23 -2.5t-23 2t-9 7v1v42q0 5 9 7t23 2zM181 56q14 0 23 -2t9 -6v-43q0 -5 -9 -7.5t-23 -2.5t-23 2t-9 7v1v42q0 5 9 7t23 2zM310 56q14 0 23 -2t9 -6v-43q0 -5 -9 -7.5t-23 -2.5t-23 2t-9 7v1v42q0 5 9 7t23 2z" />
    <glyph glyph-name="minus" unicode="&#x2212;" horiz-adv-x="341" 
d="M312 325q5 0 7 -8.5t2 -16.5t-2 -16.5t-6 -8.5h-284q-5 0 -7 7t-2 18t1.5 18t6.5 7h284v0z" />
  </font>
</defs>
</svg>
