<?xml version="1.0" standalone="no"?>
<!DOCTYPE svg PUBLIC "-//W3C//DTD SVG 1.1//EN" "http://www.w3.org/Graphics/SVG/1.1/DTD/svg11.dtd" >
<svg>
<metadata>
Created by FontForge 20110222 at Thu May 23 18:54:44 2013
 By Orthosie Webhosting
HTF Hoefler Titling Copr. 1995-2001 The Hoefler Type Foundry, Inc. http://www.typography.com
</metadata>
<defs>
<font id="HoeflerTitlingHTFLtRoman" horiz-adv-x="806" >
  <font-face 
    font-family="HoeflerTitlingHTFLtRoman"
    font-weight="500"
    font-stretch="normal"
    units-per-em="1000"
    panose-1="0 0 0 0 0 0 0 0 0 0"
    ascent="800"
    descent="-200"
    x-height="423"
    cap-height="711"
    bbox="-128 -285 1357.67 995.6"
    underline-thickness="20"
    underline-position="-123"
    unicode-range="U+0020-FB02"
  />
<missing-glyph horiz-adv-x="500" 
 />
    <glyph glyph-name=".notdef" horiz-adv-x="500" 
 />
    <glyph glyph-name=".null" horiz-adv-x="0" 
 />
    <glyph glyph-name="nonmarkingreturn" horiz-adv-x="333" 
 />
    <glyph glyph-name="space" unicode=" " horiz-adv-x="200" 
 />
    <glyph glyph-name="exclam" unicode="!" horiz-adv-x="247" 
d="M178 676q0 -70 -25.5 -274.5t-25.5 -213.5q0 -6 -6 -5q-4 0 -5 6q-31 403 -31 487q0 21 11.5 35t34.5 14q47 0 47 -49zM170 38q0 -21 -13.5 -35.5t-34.5 -14.5q-19 0 -32 12.5t-13 32.5q0 24 13 38.5t34 14.5q19 0 32.5 -14t13.5 -34z" />
    <glyph glyph-name="quotedbl" unicode="&#x22;" horiz-adv-x="378" 
d="M282 701q4 25 32 25q16 0 27 -8.5t11 -19.5q0 -6 -3 -12q-98 -219 -107 -242q-1 -2 -4.5 -3t-6.5 1.5t-2 6.5q34 134 53 252zM140 701q6 25 32 25q16 0 27 -8.5t11 -19.5q0 -6 -3 -12q-98 -219 -107 -242q-1 -2 -4.5 -3t-6.5 1.5t-2 6.5q34 134 53 252z" />
    <glyph glyph-name="numbersign" unicode="#" horiz-adv-x="720" 
d="M494 414q155 3 175 4q5 0 7 -7.5t-0.5 -15t-8.5 -7.5q-21 2 -173 4q-1 -12 -2 -30t-1 -22l-6 -134q0 -3 -0.5 -10.5t-0.5 -12.5q153 3 174 4q5 0 6.5 -7.5t-0.5 -15t-8 -7.5q-42 3 -173 3q-8 -190 -7 -217q0 -3 -3.5 -5t-8.5 -2t-10 1t-8.5 3.5t-3.5 5.5q5 45 14 215h-23
h-170h-9q-7 -168 -7 -218q0 -5 -8.5 -6.5t-16.5 1t-8 8.5q3 26 13 215q-153 -3 -174 -4q-5 0 -7 7.5t0.5 15t8.5 7.5q26 -2 173 -4q0 5 0.5 15.5t1.5 14.5l7 141q1 5 1.5 18t0.5 20q-153 -3 -175 -4q-5 0 -7 7.5t0.5 15t8.5 7.5q25 -2 174 -4q7 178 6 209q0 3 3.5 5t8.5 2
t10 -1t8.5 -3.5t3.5 -5.5q-5 -42 -13 -206h20h164h16q8 148 8 209q0 5 8.5 6.5t16.5 -1t8 -8.5q-2 -20 -14 -206zM467 392h-23h-170h-8q-2 -33 -3 -52l-7 -134q0 -3 -0.5 -10.5t-0.5 -12.5h21h163h19q1 12 1 30l6 141q0 6 2 38z" />
    <glyph glyph-name="dollar" unicode="$" horiz-adv-x="486" 
d="M215 -12q-67 3 -142 38q-8 4 -19 137q0 4 2.5 5.5t6 0.5t3.5 -3q19 -66 58.5 -106t92.5 -48q8 117 9 158l5 101q-83 44 -109 67q-46 41 -46 97q0 67 45.5 112.5t123.5 50.5q0 19 0.5 42.5t0.5 26.5q0 5 8.5 6.5t17 -1.5t8.5 -9q-2 -27 -5 -64q62 -3 107 -27q9 -4 12 -117
q0 -5 -5 -5.5t-6 3.5q-14 46 -42.5 78t-67.5 41q-2 -35 -5.5 -103t-4.5 -86l-2 -36q4 -2 13 -7q38 -20 57.5 -32.5t46 -35.5t38.5 -51.5t12 -65.5q0 -66 -49.5 -113t-133.5 -53q-2 -82 -2 -90q0 -5 -8.5 -6.5t-17 1.5t-8.5 9q6 81 6 85zM244 576h-1q-43 0 -69 -26t-26 -75
q0 -37 22.5 -62.5t64.5 -51.5l2 36q3 52 7 179zM246 10q50 2 79.5 33t29.5 85q0 43 -25.5 72.5t-72.5 56.5l-5 -95q0 -8 -1.5 -35.5t-2.5 -58.5t-2 -58z" />
    <glyph glyph-name="percent" unicode="%" horiz-adv-x="760" 
d="M347 516q18 -6 39 -6q42 0 93.5 26t90.5 74q5 6 18 -3t7 -17q-85 -118 -177 -261l-55 -84q-160 -246 -173 -269q-3 -3 -10 -1t-13 9t-2 12q17 23 86 124t92 137l55 84q11 16 66.5 100.5t77.5 118.5q-79 -69 -161 -69q-16 0 -31 3q1 -7 1 -21q0 -55 -24.5 -115.5
t-73.5 -105t-108 -44.5q-46 0 -73 32t-27 94q0 55 24.5 115.5t73.5 105t108 44.5q78 0 96 -83zM410 113q0 55 24.5 115t73.5 105t108 45q45 0 72 -31.5t27 -93.5q0 -55 -24.5 -115.5t-73.5 -105t-108 -44.5q-45 0 -72 31.5t-27 93.5zM294 524q-22 21 -33 56q-8 2 -15 2
q-31 0 -65.5 -53t-56.5 -122.5t-22 -118.5q0 -64 48 -64q31 0 65.5 53.5t56.5 123t22 118.5v5zM514 4q31 0 65.5 53.5t56.5 123t22 118.5q0 63 -48 63q-31 0 -65.5 -53.5t-56.5 -123t-22 -118.5q0 -63 48 -63z" />
    <glyph glyph-name="ampersand" unicode="&#x26;" horiz-adv-x="807" 
d="M786 425q-63 -10 -92 -26.5t-65 -62.5q-25 -32 -71.5 -90t-61.5 -78q69 -79 113 -111t80 -32q43 0 80 39q3 2 6 1t3.5 -4.5t-2.5 -6.5q-30 -38 -61 -58t-76 -20q-55 0 -98 33.5t-97 98.5q-50 -66 -98.5 -98t-120.5 -32q-79 0 -136 49.5t-57 126.5q0 68 53 125t132 87
q-55 64 -55 125q0 62 42 110.5t111 48.5q58 0 96 -35.5t38 -79.5q0 -88 -144 -154l177 -196q46 57 76 111t30 83q0 38 -96 46q-4 1 -4 7.5t4 6.5q21 0 69.5 -2t82.5 -2t76.5 2t65.5 2q3 0 3 -6.5t-3 -7.5zM388 545q0 85 -73 85q-39 0 -62.5 -30t-23.5 -75q0 -57 61 -127
q98 56 98 147zM431 124l-200 223q-112 -65 -112 -177q0 -57 44 -99.5t109 -42.5q76 0 159 96z" />
    <glyph glyph-name="quotesingle" unicode="'" horiz-adv-x="236" 
d="M140 701q6 25 32 25q16 0 27 -8.5t11 -19.5q0 -6 -3 -12q-98 -219 -107 -242q-1 -2 -4.5 -3t-6.5 1.5t-2 6.5q34 134 53 252z" />
    <glyph glyph-name="parenleft" unicode="(" horiz-adv-x="354" 
d="M366 -250q4 -5 0 -8q-2 -2 -4 0q-115 81 -189.5 211.5t-74.5 287.5t74.5 287.5t189.5 211.5q4 3 6 -2q0 -3 -2 -6q-188 -191 -188 -491t188 -491z" />
    <glyph glyph-name="parenright" unicode=")" horiz-adv-x="354" 
d="M256 241q0 -157 -74.5 -287.5t-189.5 -211.5q-4 -3 -6 2q0 3 2 6q188 191 188 491t-188 491q-4 5 0 8q2 2 4 0q115 -81 189.5 -211.5t74.5 -287.5z" />
    <glyph glyph-name="asterisk" unicode="*" horiz-adv-x="290" 
d="M255 550q0 -9 -6 -15.5t-16 -6.5q-7 0 -15 4q-10 6 -37 32.5t-31 28.5q0 -5 9 -41.5t9 -48.5q0 -26 -23 -26t-23 26q0 12 9 48.5t9 41.5q-4 -2 -31 -28.5t-37 -32.5q-8 -4 -16 -4q-9 0 -15 6.5t-6 15.5q0 14 14 22q10 6 46 16.5t40 12.5q-4 2 -40 12.5t-46 16.5
q-14 8 -14 22q0 9 6 16t15 7q6 0 16 -5q10 -6 36.5 -32t31.5 -28q0 4 -9 40.5t-9 48.5q0 26 23 26t23 -26q0 -12 -9 -48.5t-9 -40.5q5 2 31.5 28t36.5 32q10 5 15 5q10 0 16 -7t6 -16q0 -13 -14 -22q-10 -6 -46 -16.5t-40 -12.5q4 -2 40 -12.5t46 -16.5q14 -9 14 -22z" />
    <glyph glyph-name="plus" unicode="+" horiz-adv-x="356" 
d="M167 240v25q0 27 -4 103q0 5 8 6.5t15.5 -0.5t7.5 -8q-4 -74 -4 -108v-18h25q27 0 103 4q4 0 6 -7.5t0 -15t-8 -7.5q-74 4 -108 4h-18v-14q0 -38 4 -114q0 -5 -8 -6.5t-15.5 0.5t-7.5 8q4 74 4 125v1h-13q-40 0 -114 -4q-5 0 -7 7.5t0.5 15t8.5 7.5q74 -4 125 -4z" />
    <glyph glyph-name="comma" unicode="," horiz-adv-x="217" 
d="M167 4q0 -40 -29 -82t-87 -72q-2 -1 -4.5 0.5t-3.5 4t0 3.5q80 45 80 115q0 18 -7 18q-1 0 -5.5 -1.5t-7.5 -1.5q-20 0 -31.5 13t-11.5 34q0 19 13.5 32.5t32.5 13.5q27 0 44 -22.5t17 -54.5z" />
    <glyph glyph-name="hyphen" unicode="-" horiz-adv-x="356" 
d="M318 244q4 0 6 -7.5t0 -15t-8 -7.5q-74 4 -108 4h-54q-40 0 -114 -4q-5 0 -7 7.5t0.5 15t8.5 7.5q74 -4 125 -4h48q27 0 103 4z" />
    <glyph glyph-name="period" unicode="." horiz-adv-x="217" 
d="M157 37q0 -20 -14 -34.5t-36 -14.5q-20 0 -33.5 12t-13.5 31q0 23 13.5 37.5t35.5 14.5q20 0 34 -13.5t14 -32.5z" />
    <glyph glyph-name="slash" unicode="/" horiz-adv-x="360" 
d="M343 739q-23 -67 -85 -269l-123 -406q-67 -214 -89 -305q-2 -4 -9.5 -4t-14.5 5t-5 11q6 16 25 77.5t42 135.5t27 87l125 412q61 199 78 268q2 4 9.5 4t14.5 -5t5 -11z" />
    <glyph glyph-name="zero" unicode="0" horiz-adv-x="529" 
d="M486 214q0 -94 -65 -160.5t-157 -66.5q-91 0 -156 66.5t-65 160.5t64.5 160.5t156.5 66.5t157 -66.5t65 -160.5zM435 214q0 79 -48 133.5t-123 54.5q-74 0 -122.5 -54.5t-48.5 -133.5q0 -78 48.5 -132.5t122.5 -54.5q75 0 123 54t48 133z" />
    <glyph glyph-name="one" unicode="1" horiz-adv-x="377" 
d="M322 -3q-50 3 -128 3q-100 0 -139 -3q-4 -1 -4.5 4t5.5 6q10 3 42.5 5.5t38.5 6.5q13 7 13 195q0 190 -13 196q-7 3 -39 6t-42 5q-8 2 -5 9q1 3 4 2q52 -4 139 -4q62 0 128 4q4 1 4 -4q1 -5 -5 -7q-10 -2 -42.5 -5t-39.5 -6q-5 -3 -7 -14.5t-3.5 -54.5t-1.5 -127
t1.5 -126.5t3.5 -54t7 -14.5q6 -4 39 -6.5t43 -5.5q6 -1 5 -7q-1 -4 -4 -3z" />
    <glyph glyph-name="two" unicode="2" horiz-adv-x="443" 
d="M429 123q-25 -124 -35 -124q-13 0 -73.5 0.5t-89.5 0.5q-117 0 -186 -4q-2 0 -4.5 2t-4 4t-0.5 3q134 105 187.5 168t53.5 122q0 40 -23 65t-66 25q-69 0 -121 -60q-5 -5 -8 2q-2 3 0 6q61 108 153 108q61 0 102 -36t41 -91t-52.5 -114t-164.5 -132q10 1 215 1
q29 1 43.5 13t23.5 44q1 8 7 2q2 -3 2 -5z" />
    <glyph glyph-name="three" unicode="3" horiz-adv-x="427" 
d="M368 1q0 -54 -46.5 -109t-118 -90t-140.5 -35q-53 0 -53 38q0 15 10 23.5t26 8.5t46.5 -15.5t46.5 -15.5q71 0 110 50t39 135q0 55 -36 89t-94 34q-22 0 -58 -18q-3 -1 -5.5 3t-2.5 6q158 92 158 190q0 43 -25.5 69.5t-75.5 26.5q-48 0 -90 -40q-4 -4 -7 2q-3 4 0 7
q76 81 144 81q61 0 98.5 -39.5t37.5 -93.5q0 -38 -32 -74.5t-90 -65.5q75 -14 116.5 -58.5t41.5 -108.5z" />
    <glyph glyph-name="four" unicode="4" horiz-adv-x="516" 
d="M509 14q-9 1 -128 3q0 -207 3 -242q0 -2 -41.5 -2.5t-41.5 2.5q2 19 4 242q-18 1 -42 1q-191 0 -235 -4q-6 -1 -9.5 7.5t-0.5 12.5q15 18 150.5 182t189.5 233q3 3 9.5 4.5t11.5 0t5 -4.5q-4 -44 -4 -337v-40q119 2 129 3q2 0 2.5 -15t-0.5 -30.5t-2 -15.5zM305 72v40
q0 142 -1 235q-15 -19 -101.5 -120.5t-125.5 -152.5q80 -3 186 -3q24 0 42 1z" />
    <glyph glyph-name="five" unicode="5" horiz-adv-x="394" 
d="M335 423q0 -63 -17 -64q-1 0 -32.5 -0.5t-64 -2t-63 -5t-37.5 -9.5q-6 -4 -13.5 -22t-7.5 -26q0 -15 44 -34q82 -38 134 -92t52 -115q0 -113 -93 -190.5t-227 -102.5q-5 0 -5.5 5t3.5 7q121 29 186 86.5t65 139.5q0 70 -38.5 114.5t-135.5 89.5q-23 12 -23 35q0 10 5 23
q42 103 49 132q8 26 41 33q2 0 79.5 5.5t89.5 9.5q4 1 6.5 -3.5t2.5 -13.5z" />
    <glyph glyph-name="six" unicode="6" horiz-adv-x="504" 
d="M490 651q-180 -69 -265 -188t-85 -253q0 -91 39 -148t100 -57q50 0 77 41t27 107q0 64 -28.5 101.5t-81.5 37.5q-25 0 -51 -13q-3 -1 -6 2.5t-1 5.5q19 20 47.5 33.5t54.5 13.5q69 0 108 -48t39 -110q0 -77 -60 -133t-141 -56q-97 0 -152 65t-55 157q0 62 26.5 126.5
t77.5 126t135 114.5t191 86q3 1 5.5 -1.5t2 -5.5t-3.5 -4z" />
    <glyph glyph-name="seven" unicode="7" horiz-adv-x="475" 
d="M444 424q-20 -40 -104.5 -202t-160 -306.5t-79.5 -153.5t-22 -5q-14 2 -9 10q6 10 74.5 135t149 273.5t100.5 184.5q-10 -1 -268 -1q-28 -1 -42.5 -20t-24.5 -63q-1 -3 -3.5 -3.5t-4.5 2t-2 4.5q6 25 11 65t8.5 64.5t6.5 24.5q14 0 80 -2.5t95 -2.5q99 0 186 5q3 0 6 -4
t3 -5z" />
    <glyph glyph-name="eight" unicode="8" horiz-adv-x="466" 
d="M420 518q0 -46 -36 -89t-97 -75q75 -65 103 -107t28 -89q0 -72 -51.5 -121.5t-133.5 -49.5q-83 0 -132 42.5t-49 109.5q0 110 147 183q-64 52 -91 92t-27 88q0 66 49 115t120 49q77 0 123.5 -41t46.5 -107zM355 522q0 53 -30.5 90.5t-77.5 37.5q-45 0 -74 -33t-29 -80
q0 -37 27 -73.5t104 -101.5q80 69 80 160zM342 124q0 51 -25 86.5t-105 101.5q-44 -27 -69.5 -73t-25.5 -99q0 -57 35 -96.5t86 -39.5q47 0 75.5 33t28.5 87z" />
    <glyph glyph-name="nine" unicode="9" horiz-adv-x="504" 
d="M455 226q0 -63 -25.5 -128.5t-75 -130t-133.5 -119.5t-190 -87q-3 -1 -5.5 1.5t-2 5.5t3.5 4q92 35 161 89.5t107.5 117t57 125.5t18.5 127q0 93 -35.5 143.5t-93.5 50.5q-55 0 -84.5 -45.5t-29.5 -112.5q0 -63 30.5 -101t83.5 -38q26 0 52 13q3 1 6 -2.5t1 -5.5
q-19 -20 -48 -33.5t-55 -13.5q-69 0 -110 48.5t-41 109.5q0 79 59 138t146 59q97 0 150 -61.5t53 -153.5z" />
    <glyph glyph-name="colon" unicode=":" horiz-adv-x="217" 
d="M157 352q0 -21 -13.5 -35.5t-36.5 -14.5q-20 0 -33.5 12.5t-13.5 31.5q0 23 13.5 37.5t35.5 14.5q20 0 34 -13.5t14 -32.5zM157 37q0 -20 -14 -34.5t-36 -14.5q-20 0 -33.5 12t-13.5 31q0 23 13.5 37.5t35.5 14.5q20 0 34 -13.5t14 -32.5z" />
    <glyph glyph-name="semicolon" unicode=";" horiz-adv-x="217" 
d="M157 352q0 -21 -13.5 -35.5t-36.5 -14.5q-20 0 -33.5 12.5t-13.5 31.5q0 23 13.5 37.5t35.5 14.5q20 0 34 -13.5t14 -32.5zM167 4q0 -40 -29 -82t-87 -72q-2 -1 -4.5 0.5t-3.5 4t0 3.5q80 45 80 115q0 18 -7 18q-1 0 -5.5 -1.5t-7.5 -1.5q-20 0 -31.5 13t-11.5 34
q0 19 13.5 32.5t32.5 13.5q27 0 44 -22.5t17 -54.5z" />
    <glyph glyph-name="less" unicode="&#x3c;" horiz-adv-x="383" 
d="M53 233q44 20 118 56l46 23q28 15 90 50q4 2 9 -3.5t6 -12t-4 -9.5q-68 -30 -100 -46l-50 -25q-60 -29 -79 -40q48 -26 89 -46l44 -21q17 -8 35.5 -17t32 -15t28.5 -13q4 -3 3 -9.5t-7 -12t-11 -2.5q-35 21 -94 51l-51 26q-57 30 -103 50q-5 3 -6 8t4 8z" />
    <glyph glyph-name="equal" unicode="=" horiz-adv-x="356" 
d="M208 281h-55q-39 0 -113 -4q-5 0 -7 7.5t0.5 14.5t8.5 7q55 -3 124 -3h48q48 0 103 3q5 0 7 -7.5t-0.5 -14.5t-8.5 -7q-74 4 -107 4zM208 155h-55q-57 0 -113 -3q-5 0 -7 7.5t0.5 14.5t8.5 7q74 -4 124 -4h48q29 0 103 4q5 0 7 -7.5t-0.5 -14.5t-8.5 -7q-56 3 -107 3z
" />
    <glyph glyph-name="greater" unicode="&#x3e;" horiz-adv-x="383" 
d="M330 219q-54 -24 -118 -56l-46 -23q-28 -15 -90 -50q-4 -2 -9 3.5t-6 12t4 9.5q68 30 100 46l50 25q60 29 79 40q-48 26 -89 46l-44 21q-17 8 -35.5 17t-32 15t-28.5 13q-4 3 -3 9.5t7 12t11 2.5q35 -21 94 -51l51 -26q57 -30 103 -50q5 -3 6 -8t-4 -8z" />
    <glyph glyph-name="question" unicode="?" horiz-adv-x="359" 
d="M329 499q0 -49 -17 -85t-42.5 -55t-55 -37.5t-53.5 -32.5t-38.5 -38.5t-10.5 -58.5q1 -5 -3.5 -6.5t-7.5 3.5q-18 28 -18 63q0 36 22 65.5t53.5 50.5t63 41.5t53.5 48.5t22 62q0 56 -30 89.5t-88 33.5q-14 0 -39 -11t-50 -11q-16 0 -28.5 13t-12.5 30q0 24 16 38.5
t42 14.5q72 0 147 -66.5t75 -151.5zM155 39q0 -21 -13.5 -36t-34.5 -15q-19 0 -32 12.5t-13 32.5q0 24 13 38.5t34 14.5q20 0 33 -13.5t13 -33.5z" />
    <glyph glyph-name="at" unicode="@" horiz-adv-x="813" 
d="M446 67q0 43 20 103q0 2 -4 3.5t-6 -0.5q-35 -69 -75.5 -108.5t-74.5 -39.5q-26 0 -43.5 20.5t-17.5 63.5q0 61 32.5 127.5t85 112t103.5 45.5q30 0 45 -11q6 -4 8 -1q11 16 24 40q2 3 7 3.5t11 -1t11.5 -3t9 -4t2.5 -3.5l-79 -275q-11 -37 -11 -62q0 -17 9 -25.5
t22 -6.5q84 17 139 80t55 160q0 124 -75.5 202.5t-206.5 78.5q-141 0 -236 -109t-95 -279q0 -146 89 -233.5t243 -87.5q78 0 162.5 34.5t132.5 91.5q3 3 6.5 0t-0.5 -8q-55 -67 -146 -111t-195 -44q-150 0 -251.5 89t-101.5 252q0 111 56.5 209.5t156.5 159t219 60.5
q121 0 210 -77t89 -187q0 -117 -77 -199.5t-207 -101.5q-46 -6 -46 42zM470 382q-37 0 -76.5 -49t-63.5 -109.5t-24 -100.5q0 -22 12 -36t28 -14q28 0 61 40q36 48 67.5 128t31.5 108q0 14 -10 23.5t-26 9.5z" />
    <glyph glyph-name="A" unicode="A" horiz-adv-x="691" 
d="M705 -4q-36 4 -118 4q-120 0 -156 -4q-3 0 -4.5 3t0 6t5.5 4q11 3 37.5 5t33.5 6q8 5 10 13t-4.5 38t-25.5 85q-16 44 -50 140h-80q-105 0 -155 -2q-81 -221 -81 -249q0 -15 12 -22.5t53 -13.5q4 0 5.5 -3.5t0 -6.5t-3.5 -3q-37 4 -92 4q-67 0 -103 -4q-2 0 -3.5 3
t-0.5 6.5t5 3.5q36 4 51 12t27 25q34 47 264 678q2 5 14.5 4.5t14.5 -4.5q161 -457 205.5 -572t65.5 -127q6 -3 18 -5.5t28.5 -5.5t25.5 -5q4 -1 5.5 -4t0 -6t-4.5 -3zM424 318q-58 162 -105 286q-1 3 -3 2.5t-3 -2.5q-76 -199 -106 -285q27 -1 146 -1h71z" />
    <glyph glyph-name="B" unicode="B" horiz-adv-x="642" 
d="M596 197q0 -91 -75 -146t-192 -55q-8 0 -47 2t-69 2q-129 0 -166 -4q-2 0 -3.5 3t-0.5 6t5 4q9 2 34.5 5t32.5 8q5 3 7.5 21t4 92t1.5 218t-1.5 218.5t-4 92.5t-7.5 21q-7 4 -32.5 7.5t-34.5 5.5q-4 1 -5 4t0.5 6t3.5 3q47 -5 159 -5q30 0 61 2.5t42 2.5q104 0 171 -46
t67 -122q0 -57 -44.5 -97.5t-120.5 -56.5q-3 -1 -3 -4.5t4 -4.5q104 -14 158.5 -65t54.5 -118zM453 539q0 71 -41.5 109.5t-121.5 38.5q-15 0 -25.5 -0.5t-17.5 -2.5t-9 -2.5t-7 -3.5t-6 -4q-5 -3 -7.5 -15.5t-4.5 -73.5t-2 -179q0 -12 8 -14q12 -3 73 -3q71 0 116 44
t45 106zM502 180q0 84 -53.5 135t-156.5 51q-61 0 -73 -3q-8 -2 -8 -14q0 -182 4 -240t16 -69q15 -12 35 -16t72 -4q74 0 119 44t45 116z" />
    <glyph glyph-name="C" unicode="C" horiz-adv-x="716" 
d="M684 167q-4 -32 -17.5 -90.5t-20.5 -60.5q-110 -36 -220 -36q-176 0 -280 111t-104 268q0 147 112.5 256.5t261.5 109.5q123 0 227 -34q13 -4 17 -139q1 -5 -4.5 -5.5t-6.5 3.5q-34 80 -91 115.5t-151 35.5q-116 0 -193 -95t-77 -250q0 -152 83.5 -252t195.5 -100
q186 0 257 166q0 2 3 3t5.5 -0.5t2.5 -5.5z" />
    <glyph glyph-name="D" unicode="D" horiz-adv-x="786" 
d="M743 347q0 -145 -108 -248t-264 -103q-9 0 -68 2t-90 2q-129 0 -166 -4q-2 0 -3.5 3t0 6t5.5 4q9 2 34 5t32 8q5 3 7.5 21t4 92t1.5 218t-1.5 218.5t-4 92.5t-7.5 21q-7 4 -32 7.5t-34 5.5q-4 1 -5.5 4t0 6t3.5 3q47 -5 159 -5q30 0 85 2.5t66 2.5q96 0 171 -29
t121.5 -79t70 -115t23.5 -141zM649 350q0 164 -84.5 250.5t-232.5 86.5q-83 0 -107 -13q-5 -3 -7.5 -18t-4.5 -88t-2 -215q0 -285 29 -310q15 -13 40 -18t100 -5q123 0 196 88.5t73 241.5z" />
    <glyph glyph-name="E" unicode="E" horiz-adv-x="630" 
d="M598 171q-2 -7 -9.5 -51t-14 -83.5t-9.5 -40.5q-76 4 -252 4q-190 0 -266 -4q-10 0 -6 8q2 4 7 5q9 2 34 5t32 8q14 9 14 331q0 323 -14 332q-7 4 -32 7.5t-34 5.5t-8 9q1 4 7 4q95 -5 246 -5q144 0 239 5q3 -2 6 -35t6 -70.5t5 -44.5q2 -5 -5.5 -5.5t-8.5 2.5
q-30 83 -55 101q-17 14 -49 19.5t-111 5.5q-74 0 -96 -12q-5 -3 -7.5 -16t-4.5 -72.5t-2 -173.5q0 -23 8 -28q15 -7 95 -7q68 0 85 14q26 22 37 88q0 4 4 5t8 -0.5t4 -3.5q-4 -56 -4 -114q0 -57 4 -113q0 -2 -4 -3.5t-8 -0.5t-4 5q-11 66 -35 86q-16 15 -87 15q-80 0 -95 -7
q-8 -3 -8 -28q0 -125 2 -188t4.5 -77.5t7.5 -17.5q22 -12 116 -12q83 0 117.5 6t55.5 22q16 12 37.5 50t32.5 73q1 2 5 2t7.5 -1t2.5 -4z" />
    <glyph glyph-name="F" unicode="F" horiz-adv-x="581" 
d="M543 561q1 -3 -2.5 -4.5t-7.5 -1t-5 2.5q-30 83 -54 101q-18 14 -47 19.5t-107 5.5q-74 0 -96 -12q-13 -9 -13 -268q0 -24 7 -28q15 -7 82 -7q70 0 85 13q26 24 37 88q0 4 4 5t8 -0.5t4 -3.5q-4 -54 -4 -113q0 -58 4 -114q0 -2 -4 -3.5t-8 0t-4 5.5q-11 65 -35 86
q-18 15 -87 15q-67 0 -82 -7q-7 -4 -7 -28q0 -284 13 -290q7 -4 43.5 -7t46.5 -6q4 -1 5.5 -4t0 -6t-3.5 -3q-37 4 -140 4q-93 0 -129 -4q-2 0 -3.5 3t-0.5 6t5 4q10 2 25 4t25.5 4t15.5 5t7.5 21.5t4.5 92t2 217.5q0 145 -2 218.5t-4.5 92t-7.5 21.5t-16 5t-25.5 4t-24.5 4
q-9 2 -8 9q1 4 7 4q95 -5 246 -5q136 0 233 5q3 -2 5.5 -35.5t6 -70.5t5.5 -44z" />
    <glyph glyph-name="G" unicode="G" horiz-adv-x="785" 
d="M424 5q89 0 128.5 22.5t38.5 74.5q-2 156 -14 163q-7 4 -50 10.5t-52 8.5q-8 2 -5 10q1 4 4 3q45 -5 158 -5q92 0 139 5q3 1 4 -3q2 -8 -6 -10q-9 -2 -28 -5.5t-33.5 -7t-20.5 -6.5q-13 -7 -13 -185q0 -10 1.5 -19.5t2 -12.5t-0.5 -6q-5 -5 -42 -19t-100.5 -28
t-118.5 -14q-114 0 -201 54.5t-130 140t-43 184.5q0 147 112 256t262 109q58 0 124.5 -12.5t111.5 -30.5q7 -3 12 -53.5t6 -89.5q0 -5 -5 -5.5t-6 2.5q-71 165 -252 165q-116 0 -193.5 -94.5t-77.5 -249.5q0 -156 84.5 -254t203.5 -98z" />
    <glyph glyph-name="H" unicode="H" 
d="M760 -4q-37 4 -123 4q-83 0 -120 -4q-2 0 -3.5 3t-0.5 6t5 4q10 2 24 4t24 3.5t16 5.5q13 6 14 296q0 25 -8 28q-14 7 -185 7t-185 -7q-8 -3 -8 -28q1 -290 14 -296q6 -4 16 -5.5t24 -3.5t24 -4q4 -1 5 -4t-0.5 -6t-3.5 -3q-37 4 -120 4q-86 0 -122 -4q-3 0 -4.5 3t0 6
t5.5 4q9 2 34 5t32 8q14 9 14 331q0 323 -14 332q-7 4 -32 7.5t-34 5.5q-4 1 -5.5 4t0 6t4.5 3q45 -5 122 -5q73 0 120 5q2 0 3.5 -3t0.5 -6t-5 -4q-9 -2 -33 -5.5t-31 -7.5q-14 -7 -14 -275q0 -23 8 -28q14 -7 185 -7t185 7q8 5 8 28q-1 269 -14 275q-7 4 -31 7.5t-33 5.5
q-4 1 -5 4t0.5 6t3.5 3q47 -5 120 -5q76 0 123 5q2 0 3.5 -3t0 -6t-5.5 -4q-9 -2 -34 -5.5t-32 -7.5q-14 -9 -14 -332q0 -322 14 -331q7 -5 32 -8t34 -5q4 -1 5.5 -4t0 -6t-3.5 -3z" />
    <glyph glyph-name="I" unicode="I" horiz-adv-x="379" 
d="M319 -4q-37 4 -129 4q-93 0 -129 -4q-2 0 -3.5 3t-0.5 6t5 4q9 2 37.5 5t35.5 8q5 3 7.5 21t4 92t1.5 218t-1.5 218.5t-4 92.5t-7.5 21q-7 4 -35 7.5t-38 5.5q-4 1 -5 4t0.5 6t3.5 3q45 -5 129 -5q82 0 129 5q2 0 3.5 -3t0.5 -6t-5 -4q-10 -2 -38 -5.5t-35 -7.5
q-5 -3 -7.5 -21.5t-4.5 -92t-2 -218.5q0 -144 2 -217.5t4.5 -92t7.5 -21.5q7 -5 35.5 -8t37.5 -5q4 -1 5 -4t-0.5 -6t-3.5 -3z" />
    <glyph glyph-name="J" unicode="J" horiz-adv-x="366" 
d="M316 710q4 1 5 -5t-6 -8q-10 -3 -36.5 -5.5t-33.5 -6.5q-5 -3 -7 -29.5t-3.5 -147t0.5 -366.5q1 -100 -30.5 -192t-95 -153.5t-143.5 -61.5q-45 0 -69.5 17t-24.5 43q0 20 13.5 32.5t35.5 12.5q23 0 54.5 -20.5t67.5 -20.5t57.5 20t35 88t13.5 193q0 576 -14 585
q-7 4 -35 6.5t-38 5.5q-9 2 -5 11q2 2 4 2q54 -4 129 -4q72 0 126 4z" />
    <glyph glyph-name="K" unicode="K" horiz-adv-x="706" 
d="M702 -4q-50 4 -124 4q-86 0 -136 -4q-2 0 -3.5 3t0 6.5t4.5 3.5q70 6 70 19q-1 8 -79.5 108.5t-136.5 166.5q-22 25 -33.5 33t-27.5 8q-25 0 -25 -16q0 -300 13 -306q6 -4 16 -5.5t24 -3.5t24 -4q4 -1 5 -4t-0.5 -6t-3.5 -3q-36 4 -120 4q-86 0 -122 -4q-3 0 -4.5 3t0 6
t5.5 4q9 2 34 5t32 8q5 3 7.5 21.5t4.5 92t2 217.5q0 145 -2 218.5t-4.5 92t-7.5 21.5q-7 4 -32 7.5t-34 5.5q-4 1 -5.5 4t0 6t4.5 3q45 -5 122 -5q75 0 120 5q2 0 3.5 -3t0.5 -6t-5 -4q-9 -2 -33 -5.5t-31 -7.5q-13 -7 -13 -300q0 -18 12 -18q34 0 61 27q232 246 232 280
q0 8 -10 13.5t-43 10.5q-4 0 -5.5 3.5t0 6.5t4.5 3q63 -5 119 -5q14 0 79 5q2 0 3.5 -3t0.5 -6t-5 -4q-7 -2 -26 -5t-30 -6.5t-16 -7.5q-12 -8 -108 -110t-156 -172q284 -360 315 -376q10 -5 32 -7.5t31 -4.5q4 -1 5.5 -4t-0.5 -6t-4 -3z" />
    <glyph glyph-name="L" unicode="L" horiz-adv-x="614" 
d="M592 181q-2 -7 -7.5 -53.5t-11 -88.5t-8.5 -44q-95 5 -252 5q-209 0 -266 -5q-2 0 -3.5 3t-0.5 6t5 4q10 2 24.5 4t25.5 4t16 5t7.5 21.5t4.5 92t2 218.5t-2 218.5t-4.5 92t-7.5 20.5q-5 3 -15.5 5t-25.5 4t-25 4q-4 1 -5 4t0.5 6t3.5 3q36 -4 122 -4q70 0 120 4
q3 0 4.5 -3t0 -6t-5.5 -4q-8 -2 -32.5 -5t-31.5 -8q-13 -6 -13 -331q0 -144 2 -215.5t4 -86t7 -17.5q22 -12 116 -12q82 0 116.5 6.5t54.5 21.5q15 12 36 55t30 79q0 1 4.5 1.5t8 -1t2.5 -3.5z" />
    <glyph glyph-name="M" unicode="M" horiz-adv-x="931" 
d="M898 -4q-37 4 -128 4q-92 0 -128 -4q-3 0 -4.5 3t0 6t5.5 4q9 2 32.5 5.5t30.5 7.5q12 7 16.5 27t4.5 90t-6 219q-5 102 -9 236q0 3 -4.5 3.5t-5.5 -1.5q-113 -273 -247 -607q-2 -5 -10 -4.5t-10 3.5q-137 353 -250 598q-1 2 -4.5 2t-3.5 -3q-1 -19 -5 -98.5t-5 -133.5
q-8 -321 8 -331q5 -3 15 -5t24.5 -4t23.5 -4q4 -1 5 -4t-0.5 -6t-3.5 -3q-37 4 -105 4q-73 0 -109 -4q-3 0 -4.5 3t0 6t5.5 4q9 2 34.5 5t32.5 8q11 6 16 14.5t10.5 45t8.5 94.5t9 177q7 215 2.5 262.5t-26.5 63.5q-17 11 -66 19q-4 0 -5 3.5t0.5 6.5t3.5 3q35 -5 110 -5
q23 0 61 4q5 0 8 -5q41 -114 242 -580q1 -2 4 -2t4 2q123 293 235 580q1 5 8 5q38 -4 80 -4q56 0 88 5q3 0 4.5 -3t0 -6.5t-5.5 -3.5q-53 -8 -62 -16q-22 -17 -25.5 -65t5.5 -264q5 -113 8.5 -177.5t7 -98.5t5.5 -43.5t6 -11.5q7 -5 32.5 -8t34.5 -5q4 -1 5 -4t-0.5 -6
t-3.5 -3z" />
    <glyph glyph-name="N" unicode="N" horiz-adv-x="835" 
d="M805 711q3 0 4.5 -3t0 -6t-5.5 -4q-8 -2 -40 -7t-39 -9q-14 -8 -18 -59t-5 -270q-2 -250 6 -367q0 -3 -4.5 -5t-10.5 -1t-7 3q-233 288 -497 588q-8 8 -8 -1q0 -11 -1.5 -86.5t-2.5 -130.5q-1 -317 17 -328q6 -3 15.5 -5.5t24.5 -5.5t23 -5q4 -1 5.5 -4t0 -6t-3.5 -3
q-37 4 -105 4q-73 0 -110 -4q-2 0 -3.5 3t-0.5 6t5 4q9 2 25 5t27.5 5.5t17.5 5.5q15 8 20.5 27t8.5 85t3 216q0 167 -8 227t-25 78q-28 31 -73 37q-4 0 -5.5 3.5t0 6.5t3.5 3q33 -3 79 -2q55 3 63 5q7 2 10 -4q65 -82 221 -267.5t247 -289.5q3 -3 6 -3t3 3q0 19 1.5 85
t2.5 118q2 315 -20 329q-6 3 -18 5.5t-29 5.5t-26 5q-4 1 -5.5 4t0 6t4.5 3q45 -5 118 -5q64 0 109 5z" />
    <glyph glyph-name="O" unicode="O" 
d="M762 346q0 -148 -104.5 -257t-252.5 -109q-86 0 -156 31.5t-114.5 85t-68.5 121t-24 141.5q0 148 104.5 257t252.5 109q113 0 197.5 -55t125 -139.5t40.5 -184.5zM667 349q0 157 -79.5 254.5t-197.5 97.5q-114 0 -183.5 -94t-69.5 -251t79.5 -254.5t197.5 -97.5
q114 0 183.5 94t69.5 251z" />
    <glyph glyph-name="P" unicode="P" horiz-adv-x="616" 
d="M583 507q0 -95 -74.5 -160.5t-215.5 -65.5q-29 0 -83 3q0 -117 2 -175.5t4.5 -71.5t7.5 -15q7 -4 40 -7.5t43 -5.5q4 -1 5.5 -4t0 -6t-3.5 -3q-37 4 -140 4q-86 0 -123 -4q-2 0 -3.5 3t0 6t5.5 4q9 2 34 5t32 8q14 9 14 331q0 323 -14 332q-7 4 -32 7.5t-34 5.5
q-4 1 -5.5 4t0 6t3.5 3q47 -5 159 -5q28 0 69.5 2.5t61.5 2.5q111 0 179 -57.5t68 -146.5zM488 503q0 84 -49 134t-147 50q-44 0 -68 -13q-14 -9 -14 -347q0 -12 8 -14q16 -4 81 -4q189 0 189 194z" />
    <glyph glyph-name="Q" unicode="Q" 
d="M786 -186q-63 -27 -126 -27q-102 0 -187.5 52.5t-123.5 143.5q-144 19 -225.5 126.5t-81.5 249.5q0 148 104.5 257t252.5 109q86 0 156 -31.5t114.5 -85t68.5 -121t24 -141.5q0 -134 -88.5 -239t-218.5 -124q46 -83 118.5 -121.5t153.5 -38.5q27 0 57 4q2 0 3 -2.5
t0.5 -6t-1.5 -4.5zM668 349q0 157 -80 254.5t-198 97.5q-114 0 -183.5 -94t-69.5 -251t79.5 -254.5t197.5 -97.5q114 0 184 94t70 251z" />
    <glyph glyph-name="R" unicode="R" horiz-adv-x="658" 
d="M700 -4q-36 4 -80 4q-12 0 -48 -2.5t-42 -2.5q-15 0 -60 81q-91 163 -115 198q-27 40 -43 49.5t-59 9.5q-23 0 -35 -3q-8 -1 -8 -14q1 -288 14 -294q6 -4 16 -5.5t24 -3.5t24 -4q4 -1 5 -4t-0.5 -6t-3.5 -3q-37 4 -120 4q-86 0 -122 -4q-3 0 -4.5 3t0 6t5.5 4q9 2 34 5
t32 8q14 9 14 331q0 323 -14 332q-7 4 -32 7.5t-34 5.5q-4 1 -5.5 4t0 6t4.5 3q45 -5 158 -5q30 0 68.5 2.5t49.5 2.5q102 0 168 -53t66 -131q0 -60 -45 -110t-118 -65q-6 -1 0 -9q7 -8 17 -23t18.5 -29t24 -39.5t26.5 -43.5q59 -96 87 -132.5t56 -47.5q34 -14 75 -19
q4 0 5.5 -3.5t0 -6.5t-3.5 -3zM462 523q0 73 -40 118.5t-117 45.5q-57 0 -81 -13q-14 -9 -14 -301q0 -12 8 -14q12 -3 95 -3q69 0 109 50.5t40 116.5z" />
    <glyph glyph-name="S" unicode="S" horiz-adv-x="546" 
d="M503 176q0 -82 -64 -138.5t-176 -56.5q-76 0 -188 47q-4 2 -7 34.5t-6 77t-4 55.5q-1 5 4.5 5.5t7.5 -2.5q32 -103 84 -148t133 -45q63 0 100.5 38t37.5 109q0 54 -35 95t-85 68.5t-100 54.5t-85 68.5t-35 95.5q0 84 60 138t165 54q71 0 142 -37q4 -2 6 -26t3.5 -61.5
t2.5 -47.5q0 -4 -2.5 -5.5t-5 -0.5t-3.5 3q-52 151 -172 151q-52 0 -85 -32.5t-33 -96.5q0 -36 19 -65t48.5 -50t66 -40.5t73 -41.5t66 -47.5t48.5 -65t19 -87.5z" />
    <glyph glyph-name="T" unicode="T" horiz-adv-x="741" 
d="M698 527q-1 -4 -10 -4t-10 5q-23 77 -52.5 110t-98.5 33q-68 0 -110 -3q-5 -62 -5 -315q0 -144 1.5 -218t4 -92t7.5 -21q7 -5 34.5 -8t36.5 -5q4 -1 5 -4t-0.5 -6t-3.5 -3q-37 4 -127 4q-92 0 -129 -4q-2 0 -3.5 3t-0.5 6t5 4q9 2 37.5 5t35.5 8q5 3 7.5 21.5t4.5 92
t2 217.5q0 252 -5 315q-84 3 -92 3q-75 0 -114.5 -34.5t-67.5 -102.5q-1 -3 -6 -4.5t-9.5 0t-4.5 3.5q3 20 21 92t19 90q0 5 7 6.5t9 -1.5q19 -17 69 -22t219 -5q177 0 231.5 5.5t69.5 21.5q2 3 9 1.5t6 -6.5q-3 -19 2.5 -93.5t5.5 -94.5z" />
    <glyph glyph-name="U" unicode="U" horiz-adv-x="777" 
d="M772 711q2 0 3.5 -3t0.5 -6t-5 -4q-10 -2 -28 -5t-32 -5.5t-20 -5.5q-15 -8 -18 -64.5t-8 -364.5q-2 -125 -78.5 -198.5t-195.5 -73.5q-127 0 -204 78t-77 203q0 197 -2 292t-4 111.5t-7 19.5q-7 4 -32.5 7.5t-34.5 5.5q-4 1 -5 4t0.5 6t3.5 3q47 -5 123 -5q74 0 119 5
q3 0 4.5 -3t0 -6t-5.5 -4q-9 -2 -33 -5.5t-31 -7.5q-13 -7 -13 -404q0 -72 19 -123.5t53 -79.5t74.5 -40.5t89.5 -12.5q87 0 146 59.5t60 178.5q3 193 0 285.5t-5.5 110.5t-10.5 23q-6 3 -18.5 5.5t-29 5.5t-25.5 5q-4 1 -5.5 4t0 6t3.5 3q47 -5 119 -5q64 0 109 5z" />
    <glyph glyph-name="V" unicode="V" horiz-adv-x="717" 
d="M723 711q2 0 3.5 -3t0 -6.5t-5.5 -3.5q-36 -5 -50.5 -12.5t-27.5 -24.5q-45 -61 -268 -678q-2 -5 -14.5 -4.5t-13.5 4.5q-156 410 -214 549t-77 150q-6 3 -16.5 5.5t-25.5 5.5t-24 5q-4 1 -5.5 4t0 6t4.5 3q45 -5 112 -5q114 0 159 5q2 0 3.5 -3t0.5 -6t-5 -4
q-11 -3 -37.5 -5t-33.5 -6q-8 -5 -9 -13.5t6.5 -37.5t27.5 -85q111 -301 169 -450q1 -3 4.5 -2.5t4.5 2.5q21 55 55.5 146.5t56.5 149t45 120.5t34.5 99t11.5 46q0 15 -12 22.5t-53 13.5q-4 0 -5 3.5t0.5 6.5t3.5 3q45 -5 91 -5q57 0 104 5z" />
    <glyph glyph-name="W" unicode="W" horiz-adv-x="995" 
d="M1015 711q2 0 3.5 -3t0.5 -6.5t-5 -3.5q-37 -5 -52.5 -12.5t-26.5 -24.5q-34 -55 -268 -678q-2 -5 -14 -4.5t-14 4.5q-74 178 -133 318q-10 -23 -132 -318q-2 -5 -14 -4.5t-14 4.5q-53 136 -128 334q-87 228 -114.5 290.5t-48.5 74.5q-5 3 -15.5 5.5t-26 5.5t-24.5 5
q-4 1 -5 4t0.5 6t3.5 3q47 -5 112 -5q88 0 133 5q3 0 4.5 -3t0 -6t-5.5 -4q-9 -2 -18.5 -3.5t-14.5 -3t-11 -4.5q-8 -5 -10 -13t5 -38t27 -85q49 -135 172 -450q1 -3 3 -2.5t3 2.5q77 173 104 236q-86 205 -118 269.5t-52 75.5q-16 8 -46 16q-4 1 -5.5 4t0 6t3.5 3
q47 -5 93 -5q106 0 151 5q3 0 4.5 -3t0 -6t-5.5 -4q-10 -3 -33 -5t-30 -6q-8 -5 -11 -13t4 -38.5t29 -84.5q21 -52 53 -127q91 213 91 238q0 15 -12 22.5t-53 13.5q-4 0 -5 3.5t0.5 6.5t3.5 3q45 -5 91 -5q58 0 103 5q3 0 4.5 -3t0 -6.5t-5.5 -3.5q-36 -5 -51 -12.5
t-27 -24.5q-24 -33 -125 -271q33 -77 129 -293q2 -2 5 -2t4 2q60 153 132 349.5t72 215.5q0 15 -12 22.5t-53 13.5q-4 0 -5 3.5t0.5 6.5t3.5 3q47 -5 91 -5q57 0 104 5z" />
    <glyph glyph-name="X" unicode="X" horiz-adv-x="753" 
d="M743 -4q-52 4 -134 4q-94 0 -146 -4q-2 0 -3.5 3t-0.5 6.5t5 3.5q81 7 82 19q0 13 -172 279q-5 9 -11 16q-156 -233 -174 -269q-8 -16 -8 -22q0 -13 69 -23q4 0 5 -3.5t-0.5 -6.5t-3.5 -3q-52 4 -109 4q-54 0 -108 -4q-3 0 -4 2.5t0.5 6t5.5 4.5q11 4 28.5 6.5t30.5 5.5
t18 7q37 32 235 319q-11 18 -37.5 59.5t-41.5 64.5t-39 59.5t-38.5 58.5t-31 45t-26.5 35t-15 15q-9 5 -39.5 8.5t-39.5 5.5q-4 1 -5.5 4t0 6t4.5 3q65 -5 133 -5q73 0 141 5q2 0 3 -3.5t0 -6.5t-5 -3q-75 -6 -75 -19q0 -20 164 -267q91 130 128 188t37 74q0 15 -63 24
q-4 0 -5.5 3.5t0 6.5t3.5 3q65 -5 121 -5q29 0 96 5q2 0 3.5 -3t0.5 -6t-5 -4q-11 -3 -30 -5.5t-32.5 -6.5t-22.5 -13q-58 -57 -215 -285q23 -35 84 -129t98 -148.5t59 -77.5q5 -6 19 -10.5t37.5 -8.5t28.5 -5q4 -1 5.5 -4t0 -6t-4.5 -3z" />
    <glyph glyph-name="Y" unicode="Y" horiz-adv-x="712" 
d="M723 711q2 0 3.5 -3t0 -6t-5.5 -4q-10 -3 -29 -5.5t-32.5 -6.5t-22.5 -13q-45 -45 -201 -292q-21 -32 -26 -51t-5 -65q0 -236 14 -243q7 -5 35.5 -8t37.5 -5q4 -1 5 -4t-0.5 -6t-3.5 -3q-37 4 -129 4q-93 0 -129 -4q-3 0 -4.5 3t0 6t5.5 4q9 2 37.5 5.5t35.5 7.5
q12 7 13 251q0 37 -24 79q-69 120 -133.5 221.5t-79.5 110.5q-9 5 -39.5 8.5t-39.5 5.5q-4 1 -5.5 4t0 6t4.5 3q65 -5 134 -5q72 0 137 5q2 0 3.5 -3.5t0 -6.5t-4.5 -3q-75 -6 -75 -19q0 -5 24.5 -51t69 -122t92.5 -155q184 286 184 323q0 15 -63 24q-4 0 -5 3.5t0.5 6.5
t3.5 3q65 -5 121 -5q29 0 96 5z" />
    <glyph glyph-name="Z" unicode="Z" horiz-adv-x="678" 
d="M651 194q-2 -7 -11.5 -56.5t-18.5 -95t-12 -46.5q-77 4 -250 4q-237 0 -313 -4q-6 -1 -11 8t-3 13q375 487 492 660q-23 0 -107 0.5t-144 0.5q-75 0 -115 -34.5t-68 -102.5q-1 -3 -6 -4.5t-9 -0.5t-4 3q3 26 20 97t19 86q1 5 8 6.5t8 -1.5q16 -17 55.5 -22t174.5 -5
q192 0 269 4q6 1 11 -8t2 -12q-97 -126 -263 -349t-228 -312q27 0 126.5 1t111.5 1q124 0 169 33q18 14 43.5 57t38.5 82q0 1 4.5 1.5t8 -1t2.5 -3.5z" />
    <glyph glyph-name="bracketleft" unicode="[" horiz-adv-x="354" 
d="M351 -246q6 -5 3.5 -9.5t-8.5 -2.5q-41 13 -94 13q-54 0 -112 -14q-4 -1 -7 2.5t-3 8.5q0 20 4.5 222t3.5 255q0 14 -11 15q-28 4 -59 6q-2 0 -3.5 4t0 8t4.5 4q8 0 18 1t22.5 2.5t19.5 2.5q9 1 8 15q-7 406 -7 440q0 5 3 8.5t7 2.5q61 -13 112 -13q56 0 94 12
q6 2 8.5 -2.5t-3.5 -8.5q-21 -20 -60.5 -30.5t-82.5 -6.5q-4 -230 -4 -445q0 -225 4 -453q44 4 83 -6.5t60 -30.5z" />
    <glyph glyph-name="backslash" unicode="\" horiz-adv-x="360" 
d="M17 739q-2 6 5 11t14.5 5t9.5 -4q17 -69 78 -268l125 -412q59 -199 94 -300q2 -6 -5 -11t-14.5 -5t-9.5 4q-22 91 -89 305l-123 406q-62 202 -85 269z" />
    <glyph glyph-name="bracketright" unicode="]" horiz-adv-x="354" 
d="M286 250q-31 -2 -59 -6q-11 -1 -11 -15q-1 -53 3.5 -255t4.5 -222q0 -5 -3 -8.5t-7 -2.5q-58 14 -112 14q-53 0 -94 -13q-6 -2 -8.5 2.5t3.5 9.5q21 20 60 30.5t83 6.5q4 228 4 453q0 215 -4 445q-43 -4 -82.5 6.5t-60.5 30.5q-6 4 -3.5 8.5t8.5 2.5q38 -12 94 -12
q51 0 112 13q4 1 7 -2.5t3 -8.5q0 -34 -7 -440q-1 -14 8 -15l60 -6q3 0 4.5 -4t0 -8t-3.5 -4z" />
    <glyph glyph-name="asciicircum" unicode="^" horiz-adv-x="284" 
d="M258 486q-9 12 -29 34.5t-48 54.5t-41 47q-61 -70 -114 -136q-1 -2 -4 -1.5t-5 3t0 5.5q76 126 113 200q6 12 12 12q8 0 12 -12q82 -148 114 -200q2 -5 -3 -7.5t-7 0.5z" />
    <glyph glyph-name="underscore" unicode="_" horiz-adv-x="500" 
d="M502 26q4 0 6 -7.5t0 -15t-8 -7.5q-74 4 -108 4h-278q-40 0 -114 -4q-5 0 -7 7.5t0.5 15t8.5 7.5q74 -4 125 -4h272q27 0 103 4z" />
    <glyph glyph-name="grave" unicode="`" horiz-adv-x="216" 
d="M77 668q48 -76 121 -174q5 -6 -3 -9q-3 -1 -5 1q-17 18 -85 80.5t-74 68.5q-8 8 -8 16q0 11 10.5 20t22.5 9q14 0 21 -12z" />
    <glyph glyph-name="a" unicode="a" horiz-adv-x="427" 
d="M423 36q-9 -18 -34.5 -33t-50.5 -15q-38 0 -60 55q-4 6 -9 1q-66 -57 -132 -57q-37 0 -65.5 24.5t-28.5 56.5q0 40 31.5 70t66 45t121.5 45q7 3 11 4q10 3 11 22v52q0 55 -18.5 79t-57.5 24q-30 0 -48.5 -20.5t-20.5 -54.5q-2 -33 -13.5 -46.5t-33.5 -13.5q-15 0 -24 9
t-8 24q2 39 58 81.5t113 42.5q125 0 125 -125q0 -39 -4.5 -117t-4.5 -116q0 -45 33 -45q20 0 36 13q3 2 6 -0.5t1 -4.5zM281 208q0 8 -8 6q-80 -23 -118.5 -51.5t-38.5 -69.5q0 -65 65 -65q31 0 62 20t32 31q6 46 6 129z" />
    <glyph glyph-name="b" unicode="b" horiz-adv-x="507" 
d="M474 206q0 -90 -63 -154t-158 -64q-36 0 -84 12.5t-59 12.5q-24 0 -28 -40q0 -2 -4 -2.5t-8 1.5t-4 5q0 1 1.5 27t3.5 123t2 243q0 328 -12 336t-49 13q-4 0 -5 2.5t0.5 4.5t3.5 2q86 15 134 49q5 3 8.5 -0.5t2.5 -7.5q-2 -8 -8 -71l-5 -327q0 -2 3.5 -3.5t4.5 -0.5
q73 56 128 56q98 0 146.5 -60.5t48.5 -156.5zM396 198q0 89 -40 136t-117 47q-33 0 -56 -10.5t-31 -20t-8 -15.5v-125q0 -96 6 -125.5t25 -47.5q33 -33 84 -33q66 0 101.5 50.5t35.5 143.5z" />
    <glyph glyph-name="c" unicode="c" horiz-adv-x="425" 
d="M413 81q-11 -38 -59 -65.5t-97 -27.5q-105 0 -164.5 66.5t-59.5 158.5q0 90 63 154.5t161 64.5q61 0 102.5 -21t41.5 -51q0 -17 -14.5 -30.5t-32.5 -13.5q-20 0 -32.5 14.5t-18 32.5t-23.5 32.5t-48 14.5q-52 0 -86 -51t-34 -138q0 -82 46 -135.5t126 -53.5
q35 0 69.5 15.5t49.5 39.5q2 3 6.5 1t3.5 -7z" />
    <glyph glyph-name="d" unicode="d" horiz-adv-x="511" 
d="M498 19q-67 -18 -104 -34q-7 -5 -9 5q-11 27 -14 62q0 2 -3.5 3.5t-4.5 0.5q-57 -68 -139 -68q-88 0 -139.5 62t-51.5 155q0 89 64 153.5t158 64.5q62 0 106 -19q9 -2 9 4q0 105 -1 163t-3 88t-4 37t-6 10q-13 8 -49 13q-4 0 -5 2.5t0.5 4.5t3.5 2q87 14 135 49
q4 3 8 -0.5t3 -7.5q-8 -28 -8 -71l-2 -498q-1 -143 9 -156q14 -16 46 -16q4 0 5.5 -2t0 -4t-4.5 -3zM370 204q1 85 -7.5 116.5t-30.5 52.5q-33 32 -91 32q-59 0 -94 -51t-35 -141q0 -85 39.5 -134t106.5 -49q60 0 99 39q11 12 11 25z" />
    <glyph glyph-name="e" unicode="e" horiz-adv-x="433" 
d="M410 275q-2 -5 -10.5 -7t-25 -2.5t-33 0t-44.5 1.5t-50 1q-107 0 -132 -1q-3 -17 -3 -47q0 -83 43 -136t123 -53q75 0 112 47q1 2 4 2t4.5 -2.5t0.5 -5.5q-15 -36 -59 -60.5t-90 -24.5q-104 0 -160.5 66t-56.5 159q0 91 59.5 155t153.5 64q47 0 84 -20t54.5 -47t24.5 -52
t1 -37zM328 285q4 19 0 47t-26.5 55t-60.5 27q-89 0 -124 -132q2 0 130 2q81 0 81 1z" />
    <glyph glyph-name="f" unicode="f" horiz-adv-x="314" 
d="M406 703q0 -15 -13 -28t-29 -13q-25 0 -57.5 26.5t-61.5 26.5q-27 0 -42.5 -16.5t-23.5 -54.5q-13 -61 -13 -227q70 0 144 4q3 0 5 -5t2.5 -12.5t0 -14.5t-3 -12t-5.5 -5q-57 3 -143 3v-117q0 -232 13 -239q6 -4 38.5 -6.5t41.5 -4.5q8 -2 5 -9q-1 -3 -4 -2q-44 3 -130 3
q-65 0 -104 -3q-4 -1 -4 4q-1 5 5 7q9 2 21 3.5t20.5 3t13.5 4.5q5 2 7 20t3.5 96t1.5 238q-58 2 -81 0q-3 0 -4 5t1 10.5t5 5.5q41 7 68 23q11 8 11 23q0 154 61.5 236.5t157.5 82.5q93 0 93 -56z" />
    <glyph glyph-name="g" unicode="g" horiz-adv-x="448" 
d="M450 398q0 -23 -11 -23q-6 0 -39.5 5t-45.5 6q-3 1 -5 -2.5t0 -5.5q40 -45 40 -104q0 -63 -50 -106.5t-121 -43.5q-44 0 -76.5 -15t-32.5 -29q0 -17 28 -26.5t72 -9.5q138 0 189 -27q45 -24 45 -76q0 -31 -16.5 -63.5t-47.5 -62t-84 -48t-119 -18.5q-74 0 -128.5 35.5
t-54.5 82.5q0 40 48.5 76t110.5 42q1 0 2 2.5t1 4.5t-1 2q-48 2 -82.5 25t-34.5 48q0 15 10 26q2 2 17 6t37 11t39 16q1 1 2 3t0.5 4t-1.5 2q-45 19 -71 59.5t-26 87.5q0 63 50 106t120 43q16 0 72.5 -6t83.5 -6q40 0 68 6q6 2 9 -4.5t3 -22.5zM316 264q0 65 -29.5 108
t-77.5 43q-39 0 -65 -33t-26 -90q0 -65 29.5 -108t76.5 -43q40 0 66 33t26 90zM395 -101q0 43 -43.5 60.5t-144.5 17.5q-51 0 -93.5 -26.5t-42.5 -70.5q0 -47 41 -74.5t109 -27.5q71 0 122.5 37t51.5 84z" />
    <glyph glyph-name="h" unicode="h" horiz-adv-x="513" 
d="M511 -3q-39 3 -104 3q-55 0 -98 -3q-4 -1 -4 4q-1 5 5 7q8 2 19 3.5t17.5 3t11.5 4.5q19 11 13 273q-3 91 -102 91q-60 0 -105 -50q-10 -11 -10 -26v-97q0 -84 1.5 -125.5t4 -52t7.5 -13.5t11.5 -4.5t17.5 -3t19 -3.5q7 -2 5 -9q-1 -3 -4 -2q-44 3 -97 3q-66 0 -105 -3
q-2 -1 -3 2q-3 7 4 9q9 2 21 3.5t20.5 3t13.5 4.5q5 2 7 18.5t4 95.5t2 237q0 328 -12 336t-49 13q-4 0 -5 2.5t0 4t3 2.5q86 14 136 49q4 3 7.5 -0.5t2.5 -7.5q-7 -25 -7 -71l-6 -345q0 -3 3.5 -4t4.5 0q77 83 153 83q62 0 95 -38t33 -102q0 -266 13 -273q5 -3 13.5 -4.5
t20.5 -3t21 -3.5q7 -2 5 -9q-1 -3 -4 -2z" />
    <glyph glyph-name="i" unicode="i" horiz-adv-x="253" 
d="M175 652q0 -20 -14.5 -34.5t-36.5 -14.5q-20 0 -33.5 12t-13.5 31q0 22 16 37t38 15q19 0 31.5 -13t12.5 -33zM235 -3q-44 3 -104 3q-65 0 -104 -3q-4 -1 -4 4q-1 5 5 7q9 2 21 3.5t20.5 3t13.5 4.5q5 2 7 12.5t3.5 52.5t1.5 126q0 89 -2 115t-10 34q-14 14 -44 19
q-4 1 -5 3t0 3.5t3 2.5q45 8 123 62q4 3 8 -0.5t3 -6.5q-2 -7 -2 -85l-2 -147q-1 -83 0.5 -125.5t4.5 -52.5t8 -13t13 -4.5t20.5 -3t20.5 -3.5t5 -9q-1 -3 -4 -2z" />
    <glyph glyph-name="j" unicode="j" horiz-adv-x="243" 
d="M175 652q0 -20 -14.5 -34.5t-37.5 -14.5q-20 0 -33 12t-13 31q0 22 16 37t37 15q20 0 32.5 -13t12.5 -33zM174 442q-5 -22 -5 -85l-2 -305q0 -44 -3.5 -77t-14.5 -72.5t-30.5 -69t-53.5 -59t-82 -51.5q-5 -2 -6 2t2 6q66 41 91 110.5t25 210.5v158q0 89 -2 115t-10 34
q-14 14 -45 19q-5 2 -5 5t4 4q27 5 65.5 24.5t60.5 37.5q4 3 8 0t3 -7z" />
    <glyph glyph-name="k" unicode="k" horiz-adv-x="466" 
d="M504 -3q-38 3 -103 3q-73 0 -111 -3q-3 -1 -4 4q-2 6 4 7q51 4 51 18q-2 18 -116 149q-13 14 -17.5 18.5t-14.5 11.5t-16.5 5t-22.5 -2q1 -184 11 -189q5 -3 12 -4.5t18.5 -3t19.5 -3.5q7 -2 4 -9q-1 -3 -3 -2q-44 3 -101 3q-62 0 -101 -3q-4 -1 -4 4q-1 5 5 7
q9 2 21 3.5t20.5 3t13.5 4.5q5 2 7 18.5t4 95.5t2 237q0 106 -0.5 169t-2 100.5t-4 51t-6.5 15.5q-13 8 -49 13q-5 1 -5 4.5t4 4.5q87 14 135 49q4 3 8 -0.5t3 -7.5q-8 -28 -8 -71l-4 -440v-26q16 0 26 3.5t13.5 6.5t18.5 17q33 31 60 61t39.5 47t12.5 22t-2.5 8.5
t-14.5 7.5t-34 7q-3 0 -4 3t0.5 5.5t3.5 2.5q35 -4 110 -4q30 0 69 3q2 0 3.5 -2.5t1 -5t-4.5 -3.5q-10 -2 -26 -4.5t-27 -6.5q-4 -1 -8.5 -3.5t-11 -7.5t-12 -9.5t-15 -13.5t-17 -16t-21 -19.5t-22.5 -22t-27 -26.5t-30 -29q38 -42 95.5 -108t84.5 -94.5t35 -31.5
t15.5 -4.5t18.5 -3t20 -3.5t4 -9q-1 -3 -4 -2z" />
    <glyph glyph-name="l" unicode="l" horiz-adv-x="247" 
d="M228 -3q-44 3 -104 3q-65 0 -104 -3q-4 -1 -4 4q-1 5 5 7q9 2 21 3.5t20.5 3t13.5 4.5q5 2 7 19t3.5 94.5t1.5 237.5q0 208 -2 269.5t-10 66.5q-13 8 -49 13q-4 0 -5 2.5t0.5 4.5t3.5 2q87 14 135 49q4 3 8 -0.5t3 -7.5q-8 -28 -8 -71l-4 -440q0 -232 13 -239
q5 -3 13 -4.5t20 -3t21 -3.5q8 -2 5 -9q-1 -3 -4 -2z" />
    <glyph glyph-name="m" unicode="m" horiz-adv-x="772" 
d="M769 -3q-39 3 -104 3q-49 0 -92 -3q-4 -1 -4 4q-1 5 5 7q38 8 42 11q20 10 13 288q-1 73 -88 73q-57 0 -99 -47q-10 -11 -10 -26v-9q0 -272 12 -279q5 -3 11.5 -4.5t17.5 -3t19 -3.5t5 -9q-1 -3 -4 -2q-37 3 -97 3q-48 0 -92 -3q-4 -1 -4 4q-1 5 5 7q38 8 43 11
q20 11 12 273q-1 49 -22.5 70t-65.5 21q-54 0 -99 -50q-10 -11 -10 -26l2 -97q2 -129 4 -158t8 -33q5 -3 43 -11q8 -2 5 -9q-1 -3 -4 -2q-43 3 -92 3q-67 0 -104 -3q-4 -1 -4 4q-1 5 5 7q9 2 21 3.5t20.5 3t13.5 4.5q12 7 12 191q0 88 -2 111.5t-10 30.5q-13 11 -45 14
q-5 1 -5 4.5t4 4.5q17 5 35 15t27.5 17t28.5 22.5t24 19.5q4 3 7.5 1t3.5 -6q-5 -31 -7 -98q0 -2 4 -3.5t5 0.5q84 89 154 89q82 0 108 -81q1 -3 4.5 -4t4.5 0q81 81 152 81q115 0 115 -121q0 -282 12 -288q5 -3 13.5 -4.5t20.5 -3t21 -3.5q8 -2 5 -9q-1 -3 -4 -2z" />
    <glyph glyph-name="n" unicode="n" horiz-adv-x="510" 
d="M507 -3q-39 3 -104 3q-53 0 -97 -3q-4 -1 -4 4q-1 5 5 7q8 2 19 3.5t17.5 3t11.5 4.5q20 11 12 273q-3 91 -95 91q-54 0 -99 -50q-10 -11 -10 -26l2 -97q2 -129 4 -158t8 -33q5 -3 12.5 -4.5t19 -3t19.5 -3.5q7 -2 5 -9q-1 -3 -3 -2q-50 3 -101 3q-67 0 -104 -3
q-4 -1 -4 4q-1 5 5 7q9 2 21 3.5t20.5 3t13.5 4.5q12 7 12 191q0 86 -2.5 110.5t-9.5 31.5q-13 11 -45 14q-4 0 -5 2.5t0.5 4.5t3.5 2q17 5 35 15t27.5 17t28.5 22.5t24 19.5q4 3 7.5 1t3.5 -6q-5 -31 -7 -98q0 -2 4 -3.5t5 0.5q82 89 154 89q62 0 92 -37.5t30 -102.5
q0 -267 12 -273q5 -3 13.5 -4.5t20.5 -3t21 -3.5q8 -2 5 -9q-1 -3 -4 -2z" />
    <glyph glyph-name="o" unicode="o" horiz-adv-x="503" 
d="M470 206q0 -90 -61 -154t-156 -64q-104 0 -162 66t-58 159q0 90 61 154.5t155 64.5q105 0 163 -66.5t58 -159.5zM392 198q0 91 -40.5 154t-107.5 63q-58 0 -95 -55.5t-37 -138.5q0 -90 40.5 -153.5t106.5 -63.5q59 0 96 55.5t37 138.5z" />
    <glyph glyph-name="p" unicode="p" horiz-adv-x="518" 
d="M485 205q0 -89 -64 -153.5t-158 -64.5q-52 0 -100 29q-8 5 -8 -4q0 -224 12 -232q7 -3 39 -6t42 -5q8 -2 5 -9q-1 -3 -4 -2q-58 4 -130 4q-54 0 -104 -4q-4 -1 -4 4q-1 5 5 7q9 2 21 3.5t20.5 3t13.5 4.5q13 8 12 191v239q0 86 -2.5 110.5t-10.5 30.5q-12 12 -44 15
q-4 0 -5 2.5t0.5 4.5t3.5 2q11 3 23 8.5t20.5 10.5t20 13.5t17 13t18 15t15.5 13.5q4 3 8 0.5t3 -6.5q-6 -36 -6 -95q0 -3 3.5 -4t4.5 0q64 79 142 79q87 0 139 -62.5t52 -155.5zM406 197q0 86 -39.5 135t-106.5 49q-32 0 -51.5 -8.5t-40.5 -30.5q-11 -11 -11 -26l-2 -119
q-1 -59 3.5 -93t11.5 -46.5t22 -26.5q29 -26 85 -26q59 0 94 51t35 141z" />
    <glyph glyph-name="q" unicode="q" horiz-adv-x="494" 
d="M513 -242q-58 4 -115 4q-62 0 -114 -4q-4 -1 -4 4q-1 5 5 7q9 2 33.5 5t31.5 6q5 2 7 12.5t3.5 52.5t1.5 126q0 35 1 54q0 4 -9 4q-54 -42 -126 -42q-98 0 -146.5 61t-48.5 157q0 89 63 153.5t158 64.5q36 0 84 -12.5t59 -12.5q23 0 28 40q0 2 4 2.5t8 -1.5t4 -5
q-7 -154 -7 -463q0 -184 13 -191q7 -3 31.5 -6t33.5 -5q7 -2 5 -9q-1 -3 -4 -2zM363 201q0 96 -6 125.5t-25 47.5q-37 33 -84 33q-66 0 -101.5 -50.5t-35.5 -143.5q0 -90 39.5 -138t117.5 -48q33 0 55.5 7t30 14.5t7.5 12.5z" />
    <glyph glyph-name="r" unicode="r" horiz-adv-x="366" 
d="M356 386q0 -21 -11.5 -34t-30.5 -13q-16 0 -35.5 19.5t-32.5 19.5q-21 0 -33 -9.5t-40 -42.5q-10 -11 -10 -26l2 -90q2 -129 4 -158t8 -33q7 -4 37 -6.5t39 -4.5q7 -2 4 -9q-1 -3 -3 -2q-44 3 -125 3q-65 0 -104 -3q-4 -1 -4 4q-1 5 5 7q9 2 21 3.5t20.5 3t13.5 4.5
q5 2 7 12.5t3.5 52.5t1.5 126q0 137 -12 149q-14 14 -45 19q-5 2 -4.5 5t3.5 4q45 8 123 62q4 3 8 -0.5t3 -6.5q-9 -29 -9 -98q0 -1 2 -2.5t4 -1.5h2q21 39 55.5 68t63.5 29q69 0 69 -51z" />
    <glyph glyph-name="s" unicode="s" horiz-adv-x="345" 
d="M319 121q0 -57 -44.5 -95t-114.5 -38q-23 0 -56.5 8.5t-48.5 17.5q-7 4 -13 36.5t-8 65.5q0 4 3 5.5t6 0t3 -3.5q9 -37 48 -73.5t76 -36.5q38 0 60.5 22t22.5 60q0 28 -21 50t-51 37t-60 30.5t-51 40t-21 56.5q0 55 41 91.5t104 36.5q62 0 87 -16q12 -7 12 -92
q0 -4 -3 -5.5t-6 0t-3 3.5q-5 30 -36.5 60t-63.5 30t-50 -18.5t-18 -49.5q0 -29 21 -50.5t51.5 -36t61 -30.5t51.5 -42.5t21 -63.5z" />
    <glyph glyph-name="t" unicode="t" horiz-adv-x="347" 
d="M332 40q-18 -21 -53 -36.5t-66 -15.5q-61 0 -83.5 32.5t-22.5 90.5q0 47 1 152t1 115q-59 2 -82 0q-2 0 -3 5t0.5 10t4.5 6q96 23 145 119q2 3 6.5 3t8 -2t2.5 -4q-5 -64 -6 -89q0 -6 9 -6q57 0 131 4q9 1 8 -27q-1 -23 -10 -22q-74 4 -143 4q0 -20 -1 -116t-1 -139
q0 -50 15 -75.5t53 -25.5q48 0 80 25q3 2 5.5 -2t0.5 -6z" />
    <glyph glyph-name="u" unicode="u" horiz-adv-x="506" 
d="M484 19q-64 -17 -103 -34q-6 -4 -9 5q-11 34 -13 72q0 2 -3.5 3.5t-4.5 0.5q-66 -78 -146 -78q-61 0 -92 41.5t-29 107.5q6 236 -7 254q-10 12 -54 18q-4 0 -5 3t0.5 5.5t3.5 2.5q72 2 128 4q5 1 10 -2.5t4 -7.5q-1 -11 -3 -40t-3 -40q-5 -84 -4 -184q0 -59 22.5 -89.5
t62.5 -30.5q57 0 106 49q11 12 11 25l2 103q3 165 -7 179q-10 13 -55 26q-4 1 -5 3.5t1 5t4 2.5q65 -7 123 -1q5 0 10 -4t5 -7q-6 -33 -6 -80v-131q-5 -139 9 -156q14 -16 46 -16q4 0 5 -2t-0.5 -4t-3.5 -3z" />
    <glyph glyph-name="v" unicode="v" horiz-adv-x="448" 
d="M469 412q-44 -11 -47 -12q-19 -8 -56.5 -90.5t-105.5 -249.5q-18 -46 -28 -69q-2 -5 -12.5 -4.5t-11.5 3.5q-25 62 -70.5 180t-68.5 172t-32 58t-27.5 7t-27.5 5q-4 1 -5 3.5t0.5 5t4.5 2.5q35 -4 96 -4q100 0 133 4q6 0 4 -7q0 -3 -4 -4q-8 -2 -26 -3.5t-31.5 -3.5
t-15.5 -6q-8 -17 107 -322q113 287 113 310q0 16 -60 25q-3 0 -4 3t0.5 5.5t3.5 2.5q33 -4 96 -4q40 0 75 4q2 0 4 -2.5t1 -5t-5 -3.5z" />
    <glyph glyph-name="w" unicode="w" horiz-adv-x="660" 
d="M681 412q-9 -2 -27.5 -5t-26.5 -7q-9 -4 -20.5 -25t-28.5 -63t-33 -84t-42.5 -113t-47.5 -124q-2 -5 -12.5 -4.5t-12.5 3.5q-23 65 -84 245q-56 -116 -114 -244q-2 -5 -13 -4.5t-13 3.5q-125 329 -150 380q-14 27 -20 30t-13.5 4.5t-19 3.5t-21.5 4q-4 1 -4.5 3.5t1 5
t3.5 2.5q35 -4 94 -4q79 0 112 4q6 0 4 -7q0 -3 -4 -4q-8 -2 -21.5 -3.5t-22.5 -3.5t-11 -6q-3 -7 9.5 -44t48 -128t56.5 -150q19 42 48 104t40 87q-45 126 -58 132q-3 1 -47 12q-4 1 -4.5 3.5t1 5t3.5 2.5q35 -4 94 -4q85 0 118 4q6 0 4 -7q0 -3 -4 -4q-8 -2 -24.5 -3.5
t-28.5 -3.5t-14 -6q-4 -7 7 -43t39.5 -121.5t48.5 -153.5q101 267 101 306q0 14 -70 25q-3 0 -4 3t0.5 5.5t3.5 2.5q33 -4 107 -4q40 0 73 4q2 0 4 -2.5t1 -5t-5 -3.5z" />
    <glyph glyph-name="x" unicode="x" horiz-adv-x="449" 
d="M437 -3q-29 3 -88 3q-69 0 -106 -3q-3 -1 -4 4q-2 6 4 7q50 4 50 24q0 21 -88 152q-40 -51 -70 -98.5t-30 -58.5q0 -9 8.5 -12t37.5 -7q7 -1 4 -8q-1 -4 -4 -3q-37 3 -79 3q-29 0 -61 -2q-4 -1 -5 4t5 6q25 5 39 11q22 10 143 177q-122 195 -139 204q-15 7 -41 12
q-4 0 -5 3t1 5.5t4 2.5q27 -4 81 -4q78 0 113 4q3 0 4 -5.5t-4 -5.5q-50 -5 -50 -24t80 -144q37 47 65.5 92.5t28.5 55.5q0 9 -8 12t-39 8q-3 0 -4 3t0.5 5.5t3.5 2.5q35 -4 79 -4q35 0 68 3q2 0 4 -2.5t1 -5.5t-5 -3q-35 -4 -45 -11q-21 -12 -136 -168q129 -205 146 -213
q19 -8 41 -11q8 -2 4 -9q-1 -3 -4 -2z" />
    <glyph glyph-name="y" unicode="y" horiz-adv-x="462" 
d="M476 423q3 0 4.5 -2.5t0 -5t-5.5 -3.5q-9 -2 -19.5 -3t-16.5 -2.5t-12 -5.5q-28 -17 -136 -308q-75 -204 -116 -273.5t-87 -69.5q-58 0 -58 42q0 18 12 30t31 12q15 0 29.5 -8t22.5 -8q37 0 100 179q-164 393 -188 404q-7 3 -14.5 4.5t-19.5 3t-21 3.5q-4 1 -5 3.5t1 5
t4 2.5q52 -4 96 -4q82 0 134 4q6 0 4 -7q0 -3 -4 -4q-8 -2 -26.5 -3t-32 -3t-15.5 -6q-9 -20 125 -312q101 252 101 300q0 15 -60 24q-5 1 -4 6t5 5q50 -4 96 -4q23 0 75 4z" />
    <glyph glyph-name="z" unicode="z" horiz-adv-x="411" 
d="M384 105q-2 -4 -5.5 -17t-8 -28.5t-8.5 -30.5t-8 -24.5t-6 -9.5q-55 5 -144 5q-86 0 -171 -5q-6 0 -8 3t0 6q60 81 259 390q-32 3 -106 3q-43 0 -68.5 -22.5t-42.5 -68.5q-2 -5 -8 -2.5t-5 6.5q14 73 18 118q1 6 6 6t7 -4q3 -6 12 -9.5t45.5 -6t104.5 -2.5q101 0 123 5
q6 1 8.5 -2.5t-0.5 -6.5q-90 -126 -259 -390q31 -3 112 -3q95 0 141 95q3 5 8 2t4 -7z" />
    <glyph glyph-name="braceleft" unicode="{" horiz-adv-x="354" 
d="M272 -246q3 -2 3 -5t-2 -6t-3 -2q-143 50 -143 165q0 30 21.5 102.5t21.5 109.5q0 55 -32.5 85.5t-94.5 30.5q-5 0 -5 7t5 7q62 0 94.5 30.5t32.5 85.5q0 37 -21.5 109.5t-21.5 102.5q0 115 143 165q1 1 3 -2t2 -6t-3 -5q-68 -26 -68 -116q0 -25 17 -98.5t17 -114.5
q0 -73 -48 -116q-33 -29 -105 -42q72 -13 105 -42q48 -43 48 -116q0 -41 -17 -114.5t-17 -98.5q0 -90 68 -116z" />
    <glyph glyph-name="bar" unicode="|" horiz-adv-x="200" 
d="M117 -238q1 -8 -19 -7q-15 1 -14 9q3 55 3 308v409q0 211 -3 267q-1 8 19 7q15 -1 14 -9q-4 -74 -4 -278v-403q0 -229 4 -303z" />
    <glyph glyph-name="braceright" unicode="}" horiz-adv-x="354" 
d="M311 234q-62 0 -94.5 -30.5t-32.5 -85.5q0 -37 21.5 -109.5t21.5 -102.5q0 -115 -143 -165q-1 -1 -3 2t-2 6t3 5q68 26 68 116q0 25 -17 98.5t-17 114.5q0 73 48 116q33 29 105 42q-72 13 -105 42q-48 43 -48 116q0 41 17 114.5t17 98.5q0 90 -68 116q-3 2 -3 5t2 6t3 2
q143 -50 143 -165q0 -30 -21.5 -102.5t-21.5 -109.5q0 -55 32.5 -85.5t94.5 -30.5q5 0 5 -7t-5 -7z" />
    <glyph glyph-name="asciitilde" unicode="~" horiz-adv-x="396" 
d="M358 282q-7 -23 -12.5 -35.5t-15 -26.5t-24 -20t-34.5 -6q-30 0 -78 8q-45 7 -67 7q-35 0 -52 -12.5t-30 -41.5q-2 -4 -7 -2t-4 6q14 51 35.5 76.5t60.5 25.5q26 0 75 -7q54 -8 78 -8q29 0 41 9t25 33q1 2 3.5 2t4.5 -2t1 -6z" />
    <glyph glyph-name="nbspace" unicode="&#xa0;" horiz-adv-x="200" 
 />
    <glyph glyph-name="exclamdown" unicode="&#xa1;" horiz-adv-x="247" 
d="M77 675q0 21 13.5 35.5t34.5 14.5q19 0 32 -12.5t13 -32.5q0 -24 -13 -38.5t-34 -14.5q-19 0 -32.5 14t-13.5 34zM69 37q0 70 25.5 274.5t25.5 213.5q0 6 6 5q4 0 5 -6q31 -403 31 -487q0 -21 -11.5 -35t-34.5 -14q-47 0 -47 49z" />
    <glyph glyph-name="cent" unicode="&#xa2;" horiz-adv-x="425" 
d="M208 -7q-82 15 -128.5 77.5t-46.5 142.5q0 81 51.5 142t135.5 74v100q0 5 8.5 6.5t17 -1t8.5 -8.5q-2 -31 -5 -94h9q61 0 102 -21t41 -51q0 -17 -14.5 -30.5t-32.5 -13.5q-19 0 -31 13t-17 29t-20 31.5t-38 19.5q-3 -94 -5 -163l-3 -93q-1 -23 -3 -116q25 -5 47 -5
q36 0 70 15.5t50 39.5q1 1 3.5 1t4.5 -2t1 -5q-11 -38 -59 -65.5t-97 -27.5q-13 0 -20 1v-99q0 -5 -8.5 -6.5t-17 1t-8.5 8.5q2 25 5 100zM220 409q-47 -6 -77.5 -56t-30.5 -132q0 -60 25.5 -106t72.5 -68l2.5 65t1.5 48l3 100q1 24 3 149z" />
    <glyph glyph-name="sterling" unicode="&#xa3;" horiz-adv-x="617" 
d="M601 -113q0 -45 -43 -83t-96 -38q-44 0 -87.5 21t-72.5 46.5t-62 46.5t-57 21q-28 0 -50 -13q-24 -42 -61 -77.5t-67 -35.5q-42 0 -42 42q0 32 46 60t107 32q40 82 61 185h-17q-39 0 -113 -4q-5 0 -7 7.5t0 14.5t8 7q57 -3 125 -3h9q18 91 24 139q25 186 91 264.5
t153 78.5q65 0 94 -24.5t29 -51.5q0 -18 -11 -31t-30 -13q-18 0 -33 14t-25 31t-26.5 31t-36.5 14q-31 0 -49.5 -22.5t-36.5 -94.5t-36 -214q-9 -68 -27 -121h40q128 0 183 3q5 0 7 -7.5t-0.5 -14.5t-8.5 -7q-74 4 -188 4h-40q-34 -93 -102 -168q-2 -2 1 -5t6 -2
q37 21 78 21q36 0 74 -20t64.5 -44.5t58.5 -44.5t58 -20q34 0 53 17t19 39q0 20 -10 20q-1 0 -9 -3t-18 -3q-19 0 -31 12.5t-12 31.5t14.5 32t31.5 13q35 0 52.5 -23t17.5 -60z" />
    <glyph glyph-name="currency" unicode="&#xa4;" horiz-adv-x="706" 
d="M123 338q-48 -1 -90 -4q-5 0 -7 7.5t0.5 15t8.5 7.5q46 -3 92 -4q24 100 112.5 169t199.5 69q105 0 190 -32q10 -3 17 -122q0 -3 -2 -4.5t-5 -1t-3 2.5q-58 135 -204 135q-82 0 -140.5 -58.5t-74.5 -157.5h71q108 0 184 4q4 0 6 -7.5t0 -15t-8 -7.5q-74 4 -188 4h-68
q-2 -26 -2 -43q0 -26 3 -50h73q108 0 184 4q4 0 6 -7.5t0 -15t-8 -7.5q-74 4 -188 4h-63q18 -96 80.5 -156t138.5 -60q152 0 214 149q1 2 4 2.5t5.5 -1t1.5 -4.5q-20 -131 -33 -135q-101 -33 -184 -33q-129 0 -211.5 67t-106.5 171q-52 -1 -95 -4q-5 0 -7 7.5t0.5 15
t8.5 7.5q44 -3 89 -4q-4 23 -4 52q0 21 3 41z" />
    <glyph glyph-name="yen" unicode="&#xa5;" horiz-adv-x="635" 
d="M364 279q-9 -23 -9 -72v-21q127 0 182 3q5 0 7 -7.5t-0.5 -14.5t-8.5 -7q-70 4 -180 4q3 -138 13 -144q7 -4 32.5 -6.5t34.5 -5.5q4 0 5 -3t-0.5 -5.5t-3.5 -2.5q-37 3 -120 3q-81 0 -120 -3q-2 0 -3.5 2.5t-0.5 5.5t5 3q10 3 35.5 5.5t32.5 6.5q10 8 12 144h-65
q-38 0 -114 -4q-4 0 -6 7.5t0 14.5t8 7q57 -3 125 -3h52v29q0 33 -17 64h-48q-38 0 -114 -4q-4 0 -6 7.5t0 14.5t8 7q57 -3 125 -3h22q-58 100 -106 174t-62 83q-7 4 -17.5 6t-24.5 3t-23 3q-4 1 -5 4t0.5 5.5t3.5 2.5q37 -3 116 -3q80 0 128 4q4 0 4 -7q-1 -4 -5 -5
q-70 -6 -70 -17q0 -21 152 -267q149 233 149 262q0 13 -58 22q-4 0 -5 3t0.5 6t3.5 3q48 -4 111 -4q47 0 83 3q3 0 4.5 -2.5t0 -5.5t-5.5 -4q-10 -3 -26 -5t-28 -5.5t-20 -11.5q-44 -44 -163 -233q-6 -10 -8 -14q113 0 161 3q5 0 7 -7.5t-0.5 -14.5t-8.5 -7q-66 4 -171 4z
" />
    <glyph glyph-name="section" unicode="&#xa7;" horiz-adv-x="492" 
d="M358 -76q0 -58 -48.5 -108t-118.5 -50q-58 0 -91 28t-33 68q0 25 12.5 41t29.5 16q16 0 26.5 -9t10.5 -26q0 -10 -6 -24.5t-6 -23.5q0 -21 21.5 -35t56.5 -14q39 0 63.5 29t24.5 69q0 50 -27 90t-111 117q-64 58 -93 101t-29 97q0 45 25 85.5t68 62.5q0 59 48.5 109.5
t118.5 50.5q58 0 90 -29.5t32 -69.5q0 -26 -13 -42t-30 -16q-16 0 -26.5 9.5t-10.5 25.5q0 11 6.5 25t6.5 24q0 22 -20 37t-56 15q-38 0 -63 -29t-25 -69q0 -50 27 -90t112 -116q65 -60 93.5 -102.5t28.5 -96.5q0 -45 -25 -86t-69 -64zM357 -54q38 28 38 85q0 51 -26.5 88
t-111.5 117q-61 57 -89.5 98.5t-33.5 83.5q-37 -29 -37 -84q0 -52 26.5 -89.5t111.5 -116.5q61 -56 89 -98t33 -84z" />
    <glyph glyph-name="dieresis" unicode="&#xa8;" horiz-adv-x="337" 
d="M307 563q0 -19 -14 -32.5t-35 -13.5q-19 0 -31.5 11t-12.5 29q0 21 15 35.5t35 14.5q19 0 31 -12.5t12 -31.5zM122 563q0 -19 -13.5 -32.5t-34.5 -13.5q-19 0 -31.5 11t-12.5 29q0 21 15 35.5t35 14.5q19 0 30.5 -12.5t11.5 -31.5z" />
    <glyph glyph-name="copyright" unicode="&#xa9;" horiz-adv-x="691" 
d="M47 298q0 122 86 211t210 89q141 0 221 -91t80 -219q0 -122 -86 -211t-210 -89q-141 0 -221 91t-80 219zM355 2q105 0 188.5 81t83.5 207q0 133 -82 213.5t-210 80.5q-104 0 -187.5 -81t-83.5 -207q0 -133 81.5 -213.5t209.5 -80.5zM247 299q0 -64 34 -107.5t81 -43.5
q43 0 69 22.5t44 67.5q1 1 3.5 1.5t4.5 -0.5t2 -3q-1 -5 -4.5 -28.5t-6.5 -38t-6 -15.5q-64 -22 -102 -22q-88 0 -134 49.5t-46 119.5q0 65 51 113.5t126 48.5q57 0 105 -21q4 -2 11 -74q0 -3 -4 -3t-5 2q-35 80 -110 80q-52 0 -82.5 -40.5t-30.5 -107.5z" />
    <glyph glyph-name="ordfeminine" unicode="&#xaa;" horiz-adv-x="304" 
d="M180 480q-40 -38 -85 -38q-28 0 -45.5 15t-17.5 38q0 38 36 59.5t113 43.5q6 2 7 14v31q0 35 -10.5 48.5t-35.5 13.5q-33 0 -36 -44q-3 -41 -34 -41q-11 0 -18 7t-7 16q1 25 37.5 51.5t71.5 26.5q40 0 63 -19.5t23 -58.5q0 -25 -3 -73t-3 -72q0 -28 19 -28q8 0 24 12
q1 1 3.5 -2t2.5 -4q-6 -12 -23 -22.5t-33 -10.5q-15 0 -27 10.5t-16 25.5q-2 5 -6 1zM89 509q0 -39 37 -39q20 0 37.5 12.5t18.5 19.5q4 27 4 80q0 6 -5 4q-49 -14 -70.5 -32.5t-21.5 -44.5z" />
    <glyph glyph-name="guillemotleft" unicode="&#xab;" horiz-adv-x="426" 
d="M207 216q83 65 152 130q2 2 6 -2t2 -6q-62 -87 -103 -127q33 -33 103 -131q2 -2 -2 -5.5t-6 -1.5q-76 73 -152 130q-3 3 -3 7q0 3 3 6zM67 216q83 65 152 130q2 2 6 -2t2 -6q-62 -87 -103 -127q33 -33 103 -131q2 -2 -2 -5.5t-6 -1.5q-76 73 -152 130q-3 3 -3 7q0 3 3 6z
" />
    <glyph glyph-name="registered" unicode="&#xae;" horiz-adv-x="691" 
d="M47 298q0 122 86 211t210 89q141 0 221 -91t80 -219q0 -122 -86 -211t-210 -89q-141 0 -221 91t-80 219zM355 2q105 0 188.5 81t83.5 207q0 133 -82 213.5t-210 80.5q-104 0 -187.5 -81t-83.5 -207q0 -133 81.5 -213.5t209.5 -80.5zM365 261q-8 11 -14 14.5t-20 3.5
q-5 0 -15 -2q-4 -1 -4 -8q0 -107 8 -112q4 -2 17.5 -3.5t20.5 -3.5q2 0 3 -2.5t0 -5t-2 -2.5q-51 3 -74 3q-24 0 -72 -3q-1 0 -2 2.5t0 5t3 2.5q7 2 21 3.5t18 3.5q8 5 8 140t-8 140q-4 3 -18.5 4.5t-20.5 3.5q-2 0 -3 2.5t0 5t2 2.5q24 -3 85 -3q18 0 38 1t26 1
q53 0 82.5 -25t29.5 -60q0 -25 -19.5 -48t-50.5 -31q-3 -1 0 -4q23 -31 36 -53q37 -60 61 -74q11 -6 27 -8q3 0 2.5 -5t-2.5 -5q-11 1 -40 1q-5 0 -22.5 -1t-20.5 -1q-8 0 -28 36q-30 53 -52 85zM312 303q0 -7 4 -8q8 -2 27 -2q74 0 74 71q0 34 -18.5 54.5t-45.5 20.5
q-29 0 -33 -4q-8 -8 -8 -132z" />
    <glyph glyph-name="macron" unicode="&#xaf;" horiz-adv-x="309" 
d="M184 534h-55q-39 0 -113 -4q-5 0 -7 7.5t0.5 15t8.5 7.5q74 -4 124 -4h48q29 0 103 4q5 0 7 -7.5t-0.5 -15t-8.5 -7.5q-74 4 -107 4z" />
    <glyph glyph-name="degree" unicode="&#xb0;" horiz-adv-x="268" 
d="M238 527q0 -42 -29 -74t-72 -32q-47 0 -77 30t-30 75q0 43 31 73.5t77 30.5q45 0 72.5 -31t27.5 -72zM219 524q0 43 -24.5 67.5t-65.5 24.5q-35 0 -57 -28t-22 -61q0 -42 24.5 -67.5t62.5 -25.5q37 0 59.5 27t22.5 63z" />
    <glyph glyph-name="acute" unicode="&#xb4;" horiz-adv-x="216" 
d="M139 669q8 12 21 12q12 0 22.5 -9.5t10.5 -20.5q0 -7 -8 -15q-6 -6 -74 -68.5t-85 -80.5q-1 -2 -4.5 -1t-5 3.5t0.5 5.5q61 80 122 174z" />
    <glyph glyph-name="paragraph" unicode="&#xb6;" horiz-adv-x="569" 
d="M371 90q-14 -2 -50 -2q-132 0 -205.5 72t-73.5 177q0 93 68 169t180 76q20 0 56 -2t63 -2q88 0 134 4q4 0 4 -7q-1 -4 -5 -5q-7 -2 -28 -5t-27 -6q-12 -7 -12 -275v-253q0 -194 4 -256q0 -2 -3.5 -4t-8 -2t-9 0.5t-7.5 2.5t-3 5q3 93 3 259v346q0 80 -3 173q-1 7 -25 7
t-24 -7q-3 -46 -3 -173v-351q0 -209 3 -256q0 -2 -3.5 -4t-8 -2t-9 0.5t-7.5 2.5t-3 5q3 93 3 259v54z" />
    <glyph glyph-name="periodcentered" unicode="&#xb7;" horiz-adv-x="309" 
d="M203 364q0 -20 -14 -34.5t-36 -14.5q-20 0 -33.5 12t-13.5 31q0 23 13.5 37.5t35.5 14.5q20 0 34 -13.5t14 -32.5z" />
    <glyph glyph-name="cedilla" unicode="&#xb8;" horiz-adv-x="208" 
d="M184 -144q0 -34 -30.5 -63t-77.5 -29q-26 0 -45.5 13t-19.5 29q0 11 7 19t20 8q14 0 35.5 -25t36.5 -25q16 0 25 12.5t9 30.5q0 35 -68 74q-9 6 -9 9q0 2 5 10q42 70 56 98q2 5 11 1q5 -2 3 -6q-25 -40 -30 -55q-5 -10 2 -14q40 -27 55 -44.5t15 -42.5z" />
    <glyph glyph-name="ordmasculine" unicode="&#xba;" horiz-adv-x="318" 
d="M158 721q66 0 103.5 -42t37.5 -100q0 -56 -39.5 -96.5t-99.5 -40.5q-66 0 -103.5 42t-37.5 100q0 56 39.5 96.5t99.5 40.5zM241 574q0 58 -22.5 96.5t-64.5 38.5q-36 0 -56 -33.5t-20 -86.5q0 -59 22 -97t64 -38q36 0 56.5 33.5t20.5 86.5z" />
    <glyph glyph-name="guillemotright" unicode="&#xbb;" horiz-adv-x="426" 
d="M359 203q-83 -65 -152 -130q-2 -2 -6 2t-2 6q62 87 103 127q-33 33 -103 131q-2 2 2 5.5t6 1.5q76 -73 152 -130q3 -3 3 -7q0 -3 -3 -6zM219 203q-83 -65 -152 -130q-1 -1 -3.5 0t-4 4t-0.5 4q62 87 103 127q-33 33 -103 131q-2 2 2 5.5t6 1.5q76 -73 152 -130q3 -3 3 -7
q0 -3 -3 -6z" />
    <glyph glyph-name="questiondown" unicode="&#xbf;" horiz-adv-x="359" 
d="M204 666q0 21 13.5 36t34.5 15q19 0 32 -12.5t13 -32.5q0 -24 -13 -38.5t-34 -14.5q-20 0 -33 13.5t-13 33.5zM30 206q0 49 17 85t42.5 55t55 37.5t53.5 32.5t38.5 38.5t10.5 58.5q-1 5 3.5 6.5t7.5 -3.5q18 -28 18 -63q0 -36 -22 -65.5t-53.5 -50.5t-63 -41.5
t-53.5 -48.5t-22 -62q0 -56 30 -89.5t88 -33.5q14 0 39 11t50 11q16 0 28.5 -13t12.5 -30q0 -24 -16 -38.5t-42 -14.5q-72 0 -147 66.5t-75 151.5z" />
    <glyph glyph-name="Agrave" unicode="&#xc0;" horiz-adv-x="691" 
d="M705 -4q-36 4 -118 4q-120 0 -156 -4q-3 0 -4.5 3t0 6t5.5 4q11 3 37.5 5t33.5 6q8 5 10 13t-4.5 38t-25.5 85q-16 44 -50 140h-80q-105 0 -155 -2q-81 -221 -81 -249q0 -15 12 -22.5t53 -13.5q4 0 5.5 -3.5t0 -6.5t-3.5 -3q-37 4 -92 4q-67 0 -103 -4q-2 0 -3.5 3
t-0.5 6.5t5 3.5q36 4 51 12t27 25q34 47 264 678q2 5 14.5 4.5t14.5 -4.5q161 -457 205.5 -572t65.5 -127q6 -3 18 -5.5t28.5 -5.5t25.5 -5q4 -1 5.5 -4t0 -6t-4.5 -3zM424 318q-58 162 -105 286q-1 3 -3 2.5t-3 -2.5q-76 -199 -106 -285q27 -1 146 -1h71zM260 958
q48 -76 121 -174q5 -6 -3 -9q-3 -1 -5 1q-17 18 -85 80.5t-74 68.5q-8 8 -8 16q0 11 10.5 20t22.5 9q13 0 21 -12z" />
    <glyph glyph-name="Aacute" unicode="&#xc1;" horiz-adv-x="691" 
d="M705 -4q-36 4 -118 4q-120 0 -156 -4q-3 0 -4.5 3t0 6t5.5 4q11 3 37.5 5t33.5 6q8 5 10 13t-4.5 38t-25.5 85q-16 44 -50 140h-80q-105 0 -155 -2q-81 -221 -81 -249q0 -15 12 -22.5t53 -13.5q4 0 5.5 -3.5t0 -6.5t-3.5 -3q-37 4 -92 4q-67 0 -103 -4q-2 0 -3.5 3
t-0.5 6.5t5 3.5q36 4 51 12t27 25q34 47 264 678q2 5 14.5 4.5t14.5 -4.5q161 -457 205.5 -572t65.5 -127q6 -3 18 -5.5t28.5 -5.5t25.5 -5q4 -1 5.5 -4t0 -6t-4.5 -3zM424 318q-58 162 -105 286q-1 3 -3 2.5t-3 -2.5q-76 -199 -106 -285q27 -1 146 -1h71zM426 959
q8 12 21 12q12 0 22.5 -9.5t10.5 -20.5q0 -7 -8 -15q-6 -6 -74 -68.5t-85 -80.5q-1 -2 -4.5 -1t-5 3.5t0.5 5.5q61 80 122 174z" />
    <glyph glyph-name="Acircumflex" unicode="&#xc2;" horiz-adv-x="691" 
d="M705 -4q-36 4 -118 4q-120 0 -156 -4q-3 0 -4.5 3t0 6t5.5 4q11 3 37.5 5t33.5 6q8 5 10 13t-4.5 38t-25.5 85q-16 44 -50 140h-80q-105 0 -155 -2q-81 -221 -81 -249q0 -15 12 -22.5t53 -13.5q4 0 5.5 -3.5t0 -6.5t-3.5 -3q-37 4 -92 4q-67 0 -103 -4q-2 0 -3.5 3
t-0.5 6.5t5 3.5q36 4 51 12t27 25q34 47 264 678q2 5 14.5 4.5t14.5 -4.5q161 -457 205.5 -572t65.5 -127q6 -3 18 -5.5t28.5 -5.5t25.5 -5q4 -1 5.5 -4t0 -6t-4.5 -3zM424 318q-58 162 -105 286q-1 3 -3 2.5t-3 -2.5q-76 -199 -106 -285q27 -1 146 -1h71zM461 746
q-9 12 -29 34.5t-48 54.5t-41 47q-61 -70 -114 -136q-1 -2 -4 -1.5t-5 3t0 5.5q76 126 113 200q6 12 12 12q7 0 12 -12q82 -148 114 -200q2 -5 -3 -7.5t-7 0.5z" />
    <glyph glyph-name="Atilde" unicode="&#xc3;" horiz-adv-x="691" 
d="M705 -4q-36 4 -118 4q-120 0 -156 -4q-3 0 -4.5 3t0 6t5.5 4q11 3 37.5 5t33.5 6q8 5 10 13t-4.5 38t-25.5 85q-16 44 -50 140h-80q-105 0 -155 -2q-81 -221 -81 -249q0 -15 12 -22.5t53 -13.5q4 0 5.5 -3.5t0 -6.5t-3.5 -3q-37 4 -92 4q-67 0 -103 -4q-2 0 -3.5 3
t-0.5 6.5t5 3.5q36 4 51 12t27 25q34 47 264 678q2 5 14.5 4.5t14.5 -4.5q161 -457 205.5 -572t65.5 -127q6 -3 18 -5.5t28.5 -5.5t25.5 -5q4 -1 5.5 -4t0 -6t-4.5 -3zM424 318q-58 162 -105 286q-1 3 -3 2.5t-3 -2.5q-76 -199 -106 -285q27 -1 146 -1h71zM507 886
q-7 -23 -12.5 -35.5t-15 -26.5t-24 -20t-34.5 -6q-30 0 -78 8q-46 7 -67 7q-35 0 -52 -12.5t-30 -41.5q-2 -4 -7 -2t-4 6q14 51 35.5 76.5t60.5 25.5q26 0 75 -7q54 -8 78 -8q29 0 41 9t25 33q1 2 3.5 2t4.5 -2t1 -6z" />
    <glyph glyph-name="Adieresis" unicode="&#xc4;" horiz-adv-x="691" 
d="M705 -4q-36 4 -118 4q-120 0 -156 -4q-3 0 -4.5 3t0 6t5.5 4q11 3 37.5 5t33.5 6q8 5 10 13t-4.5 38t-25.5 85q-16 44 -50 140h-80q-105 0 -155 -2q-81 -221 -81 -249q0 -15 12 -22.5t53 -13.5q4 0 5.5 -3.5t0 -6.5t-3.5 -3q-37 4 -92 4q-67 0 -103 -4q-2 0 -3.5 3
t-0.5 6.5t5 3.5q36 4 51 12t27 25q34 47 264 678q2 5 14.5 4.5t14.5 -4.5q161 -457 205.5 -572t65.5 -127q6 -3 18 -5.5t28.5 -5.5t25.5 -5q4 -1 5.5 -4t0 -6t-4.5 -3zM424 318q-58 162 -105 286q-1 3 -3 2.5t-3 -2.5q-76 -199 -106 -285q27 -1 146 -1h71zM484 833
q0 -19 -14 -32.5t-35 -13.5q-19 0 -31.5 11t-12.5 29q0 21 15 35.5t35 14.5q19 0 31 -12.5t12 -31.5zM299 833q0 -19 -13.5 -32.5t-34.5 -13.5q-19 0 -31.5 11t-12.5 29q0 21 15 35.5t35 14.5q19 0 30.5 -12.5t11.5 -31.5z" />
    <glyph glyph-name="Aring" unicode="&#xc5;" horiz-adv-x="691" 
d="M330 719q-31 5 -50 28.5t-19 55.5q0 34 24.5 58.5t62.5 24.5q36 0 58.5 -24.5t22.5 -57.5q0 -29 -18.5 -53.5t-47.5 -30.5q159 -454 203.5 -568.5t65.5 -126.5q6 -3 18 -5.5t28.5 -5.5t25.5 -5q4 -1 5.5 -4t0 -6t-4.5 -3q-36 4 -118 4q-120 0 -156 -4q-3 0 -4.5 3t0 6
t5.5 4q11 3 37.5 5t33.5 6q8 5 10 13t-4.5 38t-25.5 85q-16 44 -50 140h-80q-105 0 -155 -2q-81 -221 -81 -249q0 -15 12 -22.5t53 -13.5q4 0 5.5 -3.5t0 -6.5t-3.5 -3q-37 4 -92 4q-67 0 -103 -4q-2 0 -3.5 3t-0.5 6.5t5 3.5q36 4 51 12t27 25q34 46 262 673zM406 801
q0 31 -17.5 49t-47.5 18q-25 0 -41 -20.5t-16 -43.5q0 -30 18 -49t45 -19t43 19.5t16 45.5zM424 318q-58 162 -105 286q-1 3 -3 2.5t-3 -2.5q-76 -199 -106 -285q27 -1 146 -1h71z" />
    <glyph glyph-name="AE" unicode="&#xc6;" horiz-adv-x="1017" 
d="M275 294q-148 -224 -157 -248q-5 -16 3.5 -23.5t48.5 -13.5q8 -1 6 -9q-2 -5 -5 -4q-36 4 -91 4q-71 0 -108 -4q-3 -1 -4 4q-2 8 6 9q35 4 53 12.5t37 25.5q45 45 412 584q22 32 22 46q0 6 -4 8q-6 3 -15 5t-22.5 4t-22.5 4t-8 10q1 4 7 3q97 -5 247 -5q142 0 239 5
q3 -2 5.5 -35.5t6 -70.5t5.5 -44q1 -3 -2.5 -4.5t-8 -1t-4.5 2.5q-30 82 -54 101q-18 14 -49.5 19.5t-111.5 5.5q-74 0 -95 -12q-5 -3 -7.5 -16t-4.5 -72.5t-2 -173.5q0 -23 8 -28q14 -7 94 -7q69 0 86 14q25 21 36 88q0 4 4 5t8 -0.5t4 -3.5q-4 -56 -4 -114q0 -59 4 -113
q0 -2 -4 -3.5t-8 -0.5t-4 5q-12 67 -34 86q-18 15 -88 15q-80 0 -94 -7q-8 -5 -8 -28q0 -124 2 -188t4.5 -78t7.5 -17q21 -12 115 -12q84 0 118.5 6t55.5 22q15 12 37 50.5t33 72.5q0 2 4 2t7.5 -1t2.5 -4q-2 -7 -9 -51t-13.5 -83.5t-9.5 -40.5q-77 4 -253 4q-189 0 -266 -4
q-7 -1 -7 5q1 6 8 8q9 2 34.5 5.5t32.5 7.5q12 7 13 273q-23 1 -85 1q-100 0 -154 -2zM514 318v35q0 221 -4 280q-1 2 -5 -1q-2 -3 -213 -313q27 -1 145 -1h77z" />
    <glyph glyph-name="Ccedilla" unicode="&#xc7;" horiz-adv-x="716" 
d="M420 -20q-116 1 -204 55.5t-131 139t-43 184.5q0 147 112.5 256.5t261.5 109.5q123 0 227 -34q13 -4 17 -139q1 -5 -4.5 -5.5t-6.5 3.5q-34 80 -91 115.5t-151 35.5q-116 0 -193 -95t-77 -250q0 -152 83.5 -252t195.5 -100q186 0 257 166q0 2 3 3t5.5 -0.5t2.5 -5.5
q-4 -32 -17.5 -90.5t-20.5 -60.5q-105 -35 -210 -36q-11 -18 -16 -31q-5 -10 2 -14q40 -27 55 -44.5t15 -42.5q0 -34 -30.5 -63t-77.5 -29q-26 0 -45.5 13t-19.5 29q0 11 7 19t20 8q14 0 35.5 -25t36.5 -25q16 0 25 12.5t9 30.5q0 35 -68 74q-9 6 -9 9q0 2 5 10q27 45 40 69
z" />
    <glyph glyph-name="Egrave" unicode="&#xc8;" horiz-adv-x="630" 
d="M598 171q-2 -7 -9.5 -51t-14 -83.5t-9.5 -40.5q-76 4 -252 4q-190 0 -266 -4q-10 0 -6 8q2 4 7 5q9 2 34 5t32 8q14 9 14 331q0 323 -14 332q-7 4 -32 7.5t-34 5.5t-8 9q1 4 7 4q95 -5 246 -5q144 0 239 5q3 -2 6 -35t6 -70.5t5 -44.5q2 -5 -5.5 -5.5t-8.5 2.5
q-30 83 -55 101q-17 14 -49 19.5t-111 5.5q-74 0 -96 -12q-5 -3 -7.5 -16t-4.5 -72.5t-2 -173.5q0 -23 8 -28q15 -7 95 -7q68 0 85 14q26 22 37 88q0 4 4 5t8 -0.5t4 -3.5q-4 -56 -4 -114q0 -57 4 -113q0 -2 -4 -3.5t-8 -0.5t-4 5q-11 66 -35 86q-16 15 -87 15q-80 0 -95 -7
q-8 -3 -8 -28q0 -125 2 -188t4.5 -77.5t7.5 -17.5q22 -12 116 -12q83 0 117.5 6t55.5 22q16 12 37.5 50t32.5 73q1 2 5 2t7.5 -1t2.5 -4zM254 948q48 -76 121 -174q5 -6 -3 -9q-3 -1 -5 1q-17 18 -85 80.5t-74 68.5q-8 8 -8 16q0 11 10.5 20t22.5 9q13 0 21 -12z" />
    <glyph glyph-name="Eacute" unicode="&#xc9;" horiz-adv-x="630" 
d="M598 171q-2 -7 -9.5 -51t-14 -83.5t-9.5 -40.5q-76 4 -252 4q-190 0 -266 -4q-10 0 -6 8q2 4 7 5q9 2 34 5t32 8q14 9 14 331q0 323 -14 332q-7 4 -32 7.5t-34 5.5t-8 9q1 4 7 4q95 -5 246 -5q144 0 239 5q3 -2 6 -35t6 -70.5t5 -44.5q2 -5 -5.5 -5.5t-8.5 2.5
q-30 83 -55 101q-17 14 -49 19.5t-111 5.5q-74 0 -96 -12q-5 -3 -7.5 -16t-4.5 -72.5t-2 -173.5q0 -23 8 -28q15 -7 95 -7q68 0 85 14q26 22 37 88q0 4 4 5t8 -0.5t4 -3.5q-4 -56 -4 -114q0 -57 4 -113q0 -2 -4 -3.5t-8 -0.5t-4 5q-11 66 -35 86q-16 15 -87 15q-80 0 -95 -7
q-8 -3 -8 -28q0 -125 2 -188t4.5 -77.5t7.5 -17.5q22 -12 116 -12q83 0 117.5 6t55.5 22q16 12 37.5 50t32.5 73q1 2 5 2t7.5 -1t2.5 -4zM412 949q8 12 21 12q12 0 22.5 -9.5t10.5 -20.5q0 -7 -8 -15q-6 -6 -74 -68.5t-85 -80.5q-1 -2 -4.5 -1t-5 3.5t0.5 5.5q61 80 122 174
z" />
    <glyph glyph-name="Ecircumflex" unicode="&#xca;" horiz-adv-x="630" 
d="M598 171q-2 -7 -9.5 -51t-14 -83.5t-9.5 -40.5q-76 4 -252 4q-190 0 -266 -4q-10 0 -6 8q2 4 7 5q9 2 34 5t32 8q14 9 14 331q0 323 -14 332q-7 4 -32 7.5t-34 5.5t-8 9q1 4 7 4q95 -5 246 -5q144 0 239 5q3 -2 6 -35t6 -70.5t5 -44.5q2 -5 -5.5 -5.5t-8.5 2.5
q-30 83 -55 101q-17 14 -49 19.5t-111 5.5q-74 0 -96 -12q-5 -3 -7.5 -16t-4.5 -72.5t-2 -173.5q0 -23 8 -28q15 -7 95 -7q68 0 85 14q26 22 37 88q0 4 4 5t8 -0.5t4 -3.5q-4 -56 -4 -114q0 -57 4 -113q0 -2 -4 -3.5t-8 -0.5t-4 5q-11 66 -35 86q-16 15 -87 15q-80 0 -95 -7
q-8 -3 -8 -28q0 -125 2 -188t4.5 -77.5t7.5 -17.5q22 -12 116 -12q83 0 117.5 6t55.5 22q16 12 37.5 50t32.5 73q1 2 5 2t7.5 -1t2.5 -4zM437 771q-9 12 -29 34.5t-48 54.5t-41 47q-61 -70 -114 -136q-1 -2 -4 -1.5t-5 3t0 5.5q76 126 113 200q6 12 12 12q7 0 12 -12
q82 -148 114 -200q2 -5 -3 -7.5t-7 0.5z" />
    <glyph glyph-name="Edieresis" unicode="&#xcb;" horiz-adv-x="630" 
d="M598 171q-2 -7 -9.5 -51t-14 -83.5t-9.5 -40.5q-76 4 -252 4q-190 0 -266 -4q-10 0 -6 8q2 4 7 5q9 2 34 5t32 8q14 9 14 331q0 323 -14 332q-7 4 -32 7.5t-34 5.5t-8 9q1 4 7 4q95 -5 246 -5q144 0 239 5q3 -2 6 -35t6 -70.5t5 -44.5q2 -5 -5.5 -5.5t-8.5 2.5
q-30 83 -55 101q-17 14 -49 19.5t-111 5.5q-74 0 -96 -12q-5 -3 -7.5 -16t-4.5 -72.5t-2 -173.5q0 -23 8 -28q15 -7 95 -7q68 0 85 14q26 22 37 88q0 4 4 5t8 -0.5t4 -3.5q-4 -56 -4 -114q0 -57 4 -113q0 -2 -4 -3.5t-8 -0.5t-4 5q-11 66 -35 86q-16 15 -87 15q-80 0 -95 -7
q-8 -3 -8 -28q0 -125 2 -188t4.5 -77.5t7.5 -17.5q22 -12 116 -12q83 0 117.5 6t55.5 22q16 12 37.5 50t32.5 73q1 2 5 2t7.5 -1t2.5 -4zM454 833q0 -19 -14 -32.5t-35 -13.5q-19 0 -31.5 11t-12.5 29q0 21 15 35.5t35 14.5q19 0 31 -12.5t12 -31.5zM269 833
q0 -19 -13.5 -32.5t-34.5 -13.5q-19 0 -31.5 11t-12.5 29q0 21 15 35.5t35 14.5q19 0 30.5 -12.5t11.5 -31.5z" />
    <glyph glyph-name="Igrave" unicode="&#xcc;" horiz-adv-x="379" 
d="M319 -4q-37 4 -129 4q-93 0 -129 -4q-2 0 -3.5 3t-0.5 6t5 4q9 2 37.5 5t35.5 8q5 3 7.5 21t4 92t1.5 218t-1.5 218.5t-4 92.5t-7.5 21q-7 4 -35 7.5t-38 5.5q-4 1 -5 4t0.5 6t3.5 3q45 -5 129 -5q82 0 129 5q2 0 3.5 -3t0.5 -6t-5 -4q-10 -2 -38 -5.5t-35 -7.5
q-5 -3 -7.5 -21.5t-4.5 -92t-2 -218.5q0 -144 2 -217.5t4.5 -92t7.5 -21.5q7 -5 35.5 -8t37.5 -5q4 -1 5 -4t-0.5 -6t-3.5 -3zM119 948q48 -76 121 -174q5 -6 -3 -9q-3 -1 -5 1q-17 18 -85 80.5t-74 68.5q-8 8 -8 16q0 11 10.5 20t22.5 9q14 0 21 -12z" />
    <glyph glyph-name="Iacute" unicode="&#xcd;" horiz-adv-x="379" 
d="M319 -4q-37 4 -129 4q-93 0 -129 -4q-2 0 -3.5 3t-0.5 6t5 4q9 2 37.5 5t35.5 8q5 3 7.5 21t4 92t1.5 218t-1.5 218.5t-4 92.5t-7.5 21q-7 4 -35 7.5t-38 5.5q-4 1 -5 4t0.5 6t3.5 3q45 -5 129 -5q82 0 129 5q2 0 3.5 -3t0.5 -6t-5 -4q-10 -2 -38 -5.5t-35 -7.5
q-5 -3 -7.5 -21.5t-4.5 -92t-2 -218.5q0 -144 2 -217.5t4.5 -92t7.5 -21.5q7 -5 35.5 -8t37.5 -5q4 -1 5 -4t-0.5 -6t-3.5 -3zM279 949q7 12 21 12q12 0 22.5 -9.5t10.5 -20.5q0 -7 -8 -15q-6 -6 -74 -68.5t-85 -80.5q-1 -2 -4.5 -1t-5 3.5t0.5 5.5q61 80 122 174z" />
    <glyph glyph-name="Icircumflex" unicode="&#xce;" horiz-adv-x="379" 
d="M319 -4q-37 4 -129 4q-93 0 -129 -4q-2 0 -3.5 3t-0.5 6t5 4q9 2 37.5 5t35.5 8q5 3 7.5 21t4 92t1.5 218t-1.5 218.5t-4 92.5t-7.5 21q-7 4 -35 7.5t-38 5.5q-4 1 -5 4t0.5 6t3.5 3q45 -5 129 -5q82 0 129 5q2 0 3.5 -3t0.5 -6t-5 -4q-10 -2 -38 -5.5t-35 -7.5
q-5 -3 -7.5 -21.5t-4.5 -92t-2 -218.5q0 -144 2 -217.5t4.5 -92t7.5 -21.5q7 -5 35.5 -8t37.5 -5q4 -1 5 -4t-0.5 -6t-3.5 -3zM305 766q-9 12 -29 34.5t-48 54.5t-41 47q-61 -70 -114 -136q-1 -2 -4 -1.5t-5 3t0 5.5q76 126 113 200q6 12 12 12q7 0 12 -12q82 -148 114 -200
q2 -5 -3 -7.5t-7 0.5z" />
    <glyph glyph-name="Idieresis" unicode="&#xcf;" horiz-adv-x="379" 
d="M319 -4q-37 4 -129 4q-93 0 -129 -4q-2 0 -3.5 3t-0.5 6t5 4q9 2 37.5 5t35.5 8q5 3 7.5 21t4 92t1.5 218t-1.5 218.5t-4 92.5t-7.5 21q-7 4 -35 7.5t-38 5.5q-4 1 -5 4t0.5 6t3.5 3q45 -5 129 -5q82 0 129 5q2 0 3.5 -3t0.5 -6t-5 -4q-10 -2 -38 -5.5t-35 -7.5
q-5 -3 -7.5 -21.5t-4.5 -92t-2 -218.5q0 -144 2 -217.5t4.5 -92t7.5 -21.5q7 -5 35.5 -8t37.5 -5q4 -1 5 -4t-0.5 -6t-3.5 -3zM328 833q0 -19 -14 -32.5t-35 -13.5q-19 0 -31.5 11t-12.5 29q0 21 15 35.5t35 14.5q19 0 31 -12.5t12 -31.5zM143 833q0 -19 -13.5 -32.5
t-34.5 -13.5q-19 0 -31.5 11t-12.5 29q0 21 15 35.5t35 14.5q19 0 30.5 -12.5t11.5 -31.5z" />
    <glyph glyph-name="Eth" unicode="&#xd0;" horiz-adv-x="786" 
d="M128 354q-48 -1 -88 -4q-5 0 -7 7.5t0.5 15t8.5 7.5q42 -3 86 -4q0 301 -13 309q-7 4 -32 7.5t-34 5.5q-4 1 -5.5 4t0 6t3.5 3q47 -5 159 -5q30 0 85 2.5t66 2.5q96 0 171 -29t121.5 -79t70 -115t23.5 -141q0 -145 -108 -248t-264 -103q-9 0 -68 2t-90 2q-129 0 -166 -4
q-2 0 -3.5 3t0 6t5.5 4q9 2 34 5t32 8q5 3 7.5 21t4 92t1.5 218v1zM211 376h64q27 0 103 4q4 0 6 -7.5t0 -15t-8 -7.5q-74 4 -108 4h-57q0 -286 29 -311q15 -13 40 -18t100 -5q123 0 196 88.5t73 241.5q0 164 -84.5 250.5t-232.5 86.5q-83 0 -107 -13q-5 -3 -7.5 -17
t-4.5 -81.5t-2 -199.5z" />
    <glyph glyph-name="Ntilde" unicode="&#xd1;" horiz-adv-x="835" 
d="M805 711q3 0 4.5 -3t0 -6t-5.5 -4q-8 -2 -40 -7t-39 -9q-14 -8 -18 -59t-5 -270q-2 -250 6 -367q0 -3 -4.5 -5t-10.5 -1t-7 3q-233 288 -497 588q-8 8 -8 -1q0 -11 -1.5 -86.5t-2.5 -130.5q-1 -317 17 -328q6 -3 15.5 -5.5t24.5 -5.5t23 -5q4 -1 5.5 -4t0 -6t-3.5 -3
q-37 4 -105 4q-73 0 -110 -4q-2 0 -3.5 3t-0.5 6t5 4q9 2 25 5t27.5 5.5t17.5 5.5q15 8 20.5 27t8.5 85t3 216q0 167 -8 227t-25 78q-28 31 -73 37q-4 0 -5.5 3.5t0 6.5t3.5 3q33 -3 79 -2q55 3 63 5q7 2 10 -4q65 -82 221 -267.5t247 -289.5q3 -3 6 -3t3 3q0 19 1.5 85
t2.5 118q2 315 -20 329q-6 3 -18 5.5t-29 5.5t-26 5q-4 1 -5.5 4t0 6t4.5 3q45 -5 118 -5q64 0 109 5zM589 886q-7 -23 -12.5 -35.5t-15 -26.5t-24 -20t-34.5 -6q-30 0 -78 8q-45 7 -67 7q-35 0 -52 -12.5t-30 -41.5q-2 -4 -7 -2t-4 6q14 51 35.5 76.5t60.5 25.5q26 0 75 -7
q54 -8 78 -8q29 0 41 9t25 33q1 2 3.5 2t4.5 -2t1 -6z" />
    <glyph glyph-name="Ograve" unicode="&#xd2;" 
d="M762 346q0 -148 -104.5 -257t-252.5 -109q-86 0 -156 31.5t-114.5 85t-68.5 121t-24 141.5q0 148 104.5 257t252.5 109q113 0 197.5 -55t125 -139.5t40.5 -184.5zM667 349q0 157 -79.5 254.5t-197.5 97.5q-114 0 -183.5 -94t-69.5 -251t79.5 -254.5t197.5 -97.5
q114 0 183.5 94t69.5 251zM302 958q48 -76 121 -174q5 -6 -3 -9q-3 -1 -5 1q-17 18 -85 80.5t-74 68.5q-8 8 -8 16q0 11 10.5 20t22.5 9q13 0 21 -12z" />
    <glyph glyph-name="Oacute" unicode="&#xd3;" 
d="M762 346q0 -148 -104.5 -257t-252.5 -109q-86 0 -156 31.5t-114.5 85t-68.5 121t-24 141.5q0 148 104.5 257t252.5 109q113 0 197.5 -55t125 -139.5t40.5 -184.5zM667 349q0 157 -79.5 254.5t-197.5 97.5q-114 0 -183.5 -94t-69.5 -251t79.5 -254.5t197.5 -97.5
q114 0 183.5 94t69.5 251zM481 969q8 12 21 12q12 0 22.5 -9.5t10.5 -20.5q0 -7 -8 -15q-6 -6 -74 -68.5t-85 -80.5q-1 -2 -4.5 -1t-5 3.5t0.5 5.5q61 80 122 174z" />
    <glyph glyph-name="Ocircumflex" unicode="&#xd4;" 
d="M762 346q0 -148 -104.5 -257t-252.5 -109q-86 0 -156 31.5t-114.5 85t-68.5 121t-24 141.5q0 148 104.5 257t252.5 109q113 0 197.5 -55t125 -139.5t40.5 -184.5zM667 349q0 157 -79.5 254.5t-197.5 97.5q-114 0 -183.5 -94t-69.5 -251t79.5 -254.5t197.5 -97.5
q114 0 183.5 94t69.5 251zM519 776q-9 12 -29 34.5t-48 54.5t-41 47q-61 -70 -114 -136q-1 -2 -4 -1.5t-5 3t0 5.5q76 126 113 200q6 12 12 12q7 0 12 -12q82 -148 114 -200q2 -5 -3 -7.5t-7 0.5z" />
    <glyph glyph-name="Otilde" unicode="&#xd5;" 
d="M762 346q0 -148 -104.5 -257t-252.5 -109q-86 0 -156 31.5t-114.5 85t-68.5 121t-24 141.5q0 148 104.5 257t252.5 109q113 0 197.5 -55t125 -139.5t40.5 -184.5zM667 349q0 157 -79.5 254.5t-197.5 97.5q-114 0 -183.5 -94t-69.5 -251t79.5 -254.5t197.5 -97.5
q114 0 183.5 94t69.5 251zM565 896q-7 -23 -12.5 -35.5t-15 -26.5t-24 -20t-34.5 -6q-30 0 -78 8q-45 7 -67 7q-35 0 -52 -12.5t-30 -41.5q-2 -4 -7 -2t-4 6q14 51 35.5 76.5t60.5 25.5q26 0 75 -7q54 -8 78 -8q29 0 41 9t25 33q1 2 3.5 2t4.5 -2t1 -6z" />
    <glyph glyph-name="Odieresis" unicode="&#xd6;" 
d="M762 346q0 -148 -104.5 -257t-252.5 -109q-86 0 -156 31.5t-114.5 85t-68.5 121t-24 141.5q0 148 104.5 257t252.5 109q113 0 197.5 -55t125 -139.5t40.5 -184.5zM667 349q0 157 -79.5 254.5t-197.5 97.5q-114 0 -183.5 -94t-69.5 -251t79.5 -254.5t197.5 -97.5
q114 0 183.5 94t69.5 251zM542 833q0 -19 -14 -32.5t-35 -13.5q-19 0 -31.5 11t-12.5 29q0 21 15 35.5t35 14.5q19 0 31 -12.5t12 -31.5zM357 833q0 -19 -13.5 -32.5t-34.5 -13.5q-19 0 -31.5 11t-12.5 29q0 21 15 35.5t35 14.5q19 0 30.5 -12.5t11.5 -31.5z" />
    <glyph glyph-name="Oslash" unicode="&#xd8;" 
d="M159 71q-57 54 -87 129.5t-30 158.5q0 148 104.5 257t252.5 109q133 0 226 -75q39 50 61 80q4 3 10.5 0t11.5 -10t1 -12q-16 -17 -63 -76q56 -52 86 -127.5t30 -158.5q0 -148 -104.5 -257t-252.5 -109q-131 0 -225 73q-44 -55 -61 -78q-4 -3 -11 0t-11.5 10t-0.5 12
t13 15.5l24 28t26 30.5zM201 122q74 90 97 119l190 237l100 125q-79 98 -198 98q-114 0 -183.5 -94t-69.5 -251q0 -138 64 -234zM604 581q-23 -28 -56.5 -69t-39.5 -48l-191 -238q-5 -7 -40.5 -51t-59.5 -74q78 -97 197 -97q114 0 183.5 94t69.5 251q0 137 -63 232z" />
    <glyph glyph-name="Ugrave" unicode="&#xd9;" horiz-adv-x="777" 
d="M772 711q2 0 3.5 -3t0.5 -6t-5 -4q-10 -2 -28 -5t-32 -5.5t-20 -5.5q-15 -8 -18 -64.5t-8 -364.5q-2 -125 -78.5 -198.5t-195.5 -73.5q-127 0 -204 78t-77 203q0 197 -2 292t-4 111.5t-7 19.5q-7 4 -32.5 7.5t-34.5 5.5q-4 1 -5 4t0.5 6t3.5 3q47 -5 123 -5q74 0 119 5
q3 0 4.5 -3t0 -6t-5.5 -4q-9 -2 -33 -5.5t-31 -7.5q-13 -7 -13 -404q0 -72 19 -123.5t53 -79.5t74.5 -40.5t89.5 -12.5q87 0 146 59.5t60 178.5q3 193 0 285.5t-5.5 110.5t-10.5 23q-6 3 -18.5 5.5t-29 5.5t-25.5 5q-4 1 -5.5 4t0 6t3.5 3q47 -5 119 -5q64 0 109 5zM323 948
q48 -76 121 -174q5 -6 -3 -9q-3 -1 -5 1q-17 18 -85 80.5t-74 68.5q-8 8 -8 16q0 11 10.5 20t22.5 9q14 0 21 -12z" />
    <glyph glyph-name="Uacute" unicode="&#xda;" horiz-adv-x="777" 
d="M772 711q2 0 3.5 -3t0.5 -6t-5 -4q-10 -2 -28 -5t-32 -5.5t-20 -5.5q-15 -8 -18 -64.5t-8 -364.5q-2 -125 -78.5 -198.5t-195.5 -73.5q-127 0 -204 78t-77 203q0 197 -2 292t-4 111.5t-7 19.5q-7 4 -32.5 7.5t-34.5 5.5q-4 1 -5 4t0.5 6t3.5 3q47 -5 123 -5q74 0 119 5
q3 0 4.5 -3t0 -6t-5.5 -4q-9 -2 -33 -5.5t-31 -7.5q-13 -7 -13 -404q0 -72 19 -123.5t53 -79.5t74.5 -40.5t89.5 -12.5q87 0 146 59.5t60 178.5q3 193 0 285.5t-5.5 110.5t-10.5 23q-6 3 -18.5 5.5t-29 5.5t-25.5 5q-4 1 -5.5 4t0 6t3.5 3q47 -5 119 -5q64 0 109 5zM501 949
q8 12 21 12q12 0 22.5 -9.5t10.5 -20.5q0 -7 -8 -15q-6 -6 -74 -68.5t-85 -80.5q-1 -2 -4.5 -1t-5 3.5t0.5 5.5q61 80 122 174z" />
    <glyph glyph-name="Ucircumflex" unicode="&#xdb;" horiz-adv-x="777" 
d="M772 711q2 0 3.5 -3t0.5 -6t-5 -4q-10 -2 -28 -5t-32 -5.5t-20 -5.5q-15 -8 -18 -64.5t-8 -364.5q-2 -125 -78.5 -198.5t-195.5 -73.5q-127 0 -204 78t-77 203q0 197 -2 292t-4 111.5t-7 19.5q-7 4 -32.5 7.5t-34.5 5.5q-4 1 -5 4t0.5 6t3.5 3q47 -5 123 -5q74 0 119 5
q3 0 4.5 -3t0 -6t-5.5 -4q-9 -2 -33 -5.5t-31 -7.5q-13 -7 -13 -404q0 -72 19 -123.5t53 -79.5t74.5 -40.5t89.5 -12.5q87 0 146 59.5t60 178.5q3 193 0 285.5t-5.5 110.5t-10.5 23q-6 3 -18.5 5.5t-29 5.5t-25.5 5q-4 1 -5.5 4t0 6t3.5 3q47 -5 119 -5q64 0 109 5zM532 766
q-9 12 -29 34.5t-48 54.5t-41 47q-61 -70 -114 -136q-1 -2 -4 -1.5t-5 3t0 5.5q76 126 113 200q6 12 12 12q8 0 12 -12q82 -148 114 -200q2 -5 -3 -7.5t-7 0.5z" />
    <glyph glyph-name="Udieresis" unicode="&#xdc;" horiz-adv-x="777" 
d="M772 711q2 0 3.5 -3t0.5 -6t-5 -4q-10 -2 -28 -5t-32 -5.5t-20 -5.5q-15 -8 -18 -64.5t-8 -364.5q-2 -125 -78.5 -198.5t-195.5 -73.5q-127 0 -204 78t-77 203q0 197 -2 292t-4 111.5t-7 19.5q-7 4 -32.5 7.5t-34.5 5.5q-4 1 -5 4t0.5 6t3.5 3q47 -5 123 -5q74 0 119 5
q3 0 4.5 -3t0 -6t-5.5 -4q-9 -2 -33 -5.5t-31 -7.5q-13 -7 -13 -404q0 -72 19 -123.5t53 -79.5t74.5 -40.5t89.5 -12.5q87 0 146 59.5t60 178.5q3 193 0 285.5t-5.5 110.5t-10.5 23q-6 3 -18.5 5.5t-29 5.5t-25.5 5q-4 1 -5.5 4t0 6t3.5 3q47 -5 119 -5q64 0 109 5zM547 833
q0 -19 -14 -32.5t-35 -13.5q-19 0 -31.5 11t-12.5 29q0 21 15 35.5t35 14.5q19 0 31 -12.5t12 -31.5zM362 833q0 -19 -13.5 -32.5t-34.5 -13.5q-19 0 -31.5 11t-12.5 29q0 21 15 35.5t35 14.5q19 0 30.5 -12.5t11.5 -31.5z" />
    <glyph glyph-name="Yacute" unicode="&#xdd;" horiz-adv-x="712" 
d="M723 711q2 0 3.5 -3t0 -6t-5.5 -4q-10 -3 -29 -5.5t-32.5 -6.5t-22.5 -13q-45 -45 -201 -292q-21 -32 -26 -51t-5 -65q0 -236 14 -243q7 -5 35.5 -8t37.5 -5q4 -1 5 -4t-0.5 -6t-3.5 -3q-37 4 -129 4q-93 0 -129 -4q-3 0 -4.5 3t0 6t5.5 4q9 2 37.5 5.5t35.5 7.5
q12 7 13 251q0 37 -24 79q-69 120 -133.5 221.5t-79.5 110.5q-9 5 -39.5 8.5t-39.5 5.5q-4 1 -5.5 4t0 6t4.5 3q65 -5 134 -5q72 0 137 5q2 0 3.5 -3.5t0 -6.5t-4.5 -3q-75 -6 -75 -19q0 -5 24.5 -51t69 -122t92.5 -155q184 286 184 323q0 15 -63 24q-4 0 -5 3.5t0.5 6.5
t3.5 3q65 -5 121 -5q29 0 96 5zM489 949q7 12 21 12q12 0 22.5 -9.5t10.5 -20.5q0 -7 -8 -15q-6 -6 -74 -68.5t-85 -80.5q-1 -2 -4.5 -1t-5 3.5t0.5 5.5q61 80 122 174z" />
    <glyph glyph-name="Thorn" unicode="&#xde;" horiz-adv-x="616" 
d="M213 152q2 -123 12 -130q7 -5 35.5 -8t37.5 -5q4 -1 5 -4t-0.5 -6t-3.5 -3q-37 4 -129 4q-93 0 -129 -4q-2 0 -3.5 3t-0.5 6t5 4q9 2 37.5 5t35.5 8q5 3 7.5 21t4 92t1.5 218t-1.5 218.5t-4 92.5t-7.5 21q-7 4 -35 7.5t-38 5.5q-4 1 -5 4t0.5 6t3.5 3q45 -5 129 -5
q82 0 129 5q2 0 3.5 -3t0.5 -6t-5 -4q-10 -2 -38 -5.5t-35 -7.5q-11 -7 -13 -131q97 5 109 5q113 0 182.5 -53.5t69.5 -140.5q0 -94 -73 -155t-217 -61q-16 0 -70 3zM211 353q0 -124 1 -168q1 -2 6 -4q16 -4 81 -4q84 0 131.5 47t47.5 137q0 82 -48 128t-138 46
q-55 0 -73 -14q-2 -2 -4 -44t-3 -83z" />
    <glyph glyph-name="germandbls" unicode="&#xdf;" horiz-adv-x="514" 
d="M388 583q0 68 -31 106.5t-81 38.5q-62 0 -86 -53t-24 -201v-216q0 -232 12 -239q5 -3 37 -10q4 -1 5 -3.5t-0.5 -5t-3.5 -2.5q-29 2 -86 2q-66 0 -104 -3q-2 0 -3.5 2.5t-0.5 5t5 3.5q9 2 21 3.5t20.5 3t13.5 4.5q12 7 12 354q-58 2 -82 0q-2 0 -3 5t0.5 10.5t4.5 5.5
q42 6 69 23q11 7 11 23q0 154 61.5 236.5t157.5 82.5q60 0 105 -41t45 -97q0 -45 -22 -81t-69 -76q-48 -41 -48 -85q0 -31 19.5 -52.5t76.5 -63.5q46 -33 64 -61t18 -68q0 -58 -45 -102t-114 -44q-44 0 -71.5 15.5t-27.5 37.5q0 41 39 41q23 0 46 -36.5t48 -36.5q64 0 64 75
q0 37 -20 64t-69 61q-30 21 -46 34.5t-31.5 38.5t-15.5 53q0 32 19 58t57 59q53 47 53 131z" />
    <glyph glyph-name="agrave" unicode="&#xe0;" horiz-adv-x="427" 
d="M423 36q-9 -18 -34.5 -33t-50.5 -15q-38 0 -60 55q-4 6 -9 1q-66 -57 -132 -57q-37 0 -65.5 24.5t-28.5 56.5q0 40 31.5 70t66 45t121.5 45q7 3 11 4q10 3 11 22v52q0 55 -18.5 79t-57.5 24q-30 0 -48.5 -20.5t-20.5 -54.5q-2 -33 -13.5 -46.5t-33.5 -13.5q-15 0 -24 9
t-8 24q2 39 58 81.5t113 42.5q125 0 125 -125q0 -39 -4.5 -117t-4.5 -116q0 -45 33 -45q20 0 36 13q3 2 6 -0.5t1 -4.5zM281 208q0 8 -8 6q-80 -23 -118.5 -51.5t-38.5 -69.5q0 -65 65 -65q31 0 62 20t32 31q6 46 6 129zM143 668q48 -76 121 -174q5 -6 -3 -9q-3 -1 -5 1
q-17 18 -85 80.5t-74 68.5q-8 8 -8 16q0 11 10.5 20t22.5 9q14 0 21 -12z" />
    <glyph glyph-name="aacute" unicode="&#xe1;" horiz-adv-x="427" 
d="M423 36q-9 -18 -34.5 -33t-50.5 -15q-38 0 -60 55q-4 6 -9 1q-66 -57 -132 -57q-37 0 -65.5 24.5t-28.5 56.5q0 40 31.5 70t66 45t121.5 45q7 3 11 4q10 3 11 22v52q0 55 -18.5 79t-57.5 24q-30 0 -48.5 -20.5t-20.5 -54.5q-2 -33 -13.5 -46.5t-33.5 -13.5q-15 0 -24 9
t-8 24q2 39 58 81.5t113 42.5q125 0 125 -125q0 -39 -4.5 -117t-4.5 -116q0 -45 33 -45q20 0 36 13q3 2 6 -0.5t1 -4.5zM281 208q0 8 -8 6q-80 -23 -118.5 -51.5t-38.5 -69.5q0 -65 65 -65q31 0 62 20t32 31q6 46 6 129zM295 669q7 12 21 12q12 0 22.5 -9.5t10.5 -20.5
q0 -7 -8 -15q-6 -6 -74 -68.5t-85 -80.5q-1 -2 -4.5 -1t-5 3.5t0.5 5.5q61 80 122 174z" />
    <glyph glyph-name="acircumflex" unicode="&#xe2;" horiz-adv-x="427" 
d="M423 36q-9 -18 -34.5 -33t-50.5 -15q-38 0 -60 55q-4 6 -9 1q-66 -57 -132 -57q-37 0 -65.5 24.5t-28.5 56.5q0 40 31.5 70t66 45t121.5 45q7 3 11 4q10 3 11 22v52q0 55 -18.5 79t-57.5 24q-30 0 -48.5 -20.5t-20.5 -54.5q-2 -33 -13.5 -46.5t-33.5 -13.5q-15 0 -24 9
t-8 24q2 39 58 81.5t113 42.5q125 0 125 -125q0 -39 -4.5 -117t-4.5 -116q0 -45 33 -45q20 0 36 13q3 2 6 -0.5t1 -4.5zM281 208q0 8 -8 6q-80 -23 -118.5 -51.5t-38.5 -69.5q0 -65 65 -65q31 0 62 20t32 31q6 46 6 129zM336 486q-9 12 -29 34.5t-48 54.5t-41 47
q-61 -70 -114 -136q-1 -2 -4 -1.5t-5 3t0 5.5q76 126 113 200q6 12 12 12q8 0 12 -12q82 -148 114 -200q2 -5 -3 -7.5t-7 0.5z" />
    <glyph glyph-name="atilde" unicode="&#xe3;" horiz-adv-x="427" 
d="M423 36q-9 -18 -34.5 -33t-50.5 -15q-38 0 -60 55q-4 6 -9 1q-66 -57 -132 -57q-37 0 -65.5 24.5t-28.5 56.5q0 40 31.5 70t66 45t121.5 45q7 3 11 4q10 3 11 22v52q0 55 -18.5 79t-57.5 24q-30 0 -48.5 -20.5t-20.5 -54.5q-2 -33 -13.5 -46.5t-33.5 -13.5q-15 0 -24 9
t-8 24q2 39 58 81.5t113 42.5q125 0 125 -125q0 -39 -4.5 -117t-4.5 -116q0 -45 33 -45q20 0 36 13q3 2 6 -0.5t1 -4.5zM281 208q0 8 -8 6q-80 -23 -118.5 -51.5t-38.5 -69.5q0 -65 65 -65q31 0 62 20t32 31q6 46 6 129zM385 616q-7 -23 -12.5 -35.5t-15 -26.5t-24 -20
t-34.5 -6q-30 0 -78 8q-45 7 -67 7q-35 0 -52 -12.5t-30 -41.5q-2 -4 -7 -2t-4 6q14 51 35.5 76.5t60.5 25.5q26 0 75 -7q54 -8 78 -8q29 0 41 9t25 33q1 2 3.5 2t4.5 -2t1 -6z" />
    <glyph glyph-name="adieresis" unicode="&#xe4;" horiz-adv-x="427" 
d="M423 36q-9 -18 -34.5 -33t-50.5 -15q-38 0 -60 55q-4 6 -9 1q-66 -57 -132 -57q-37 0 -65.5 24.5t-28.5 56.5q0 40 31.5 70t66 45t121.5 45q7 3 11 4q10 3 11 22v52q0 55 -18.5 79t-57.5 24q-30 0 -48.5 -20.5t-20.5 -54.5q-2 -33 -13.5 -46.5t-33.5 -13.5q-15 0 -24 9
t-8 24q2 39 58 81.5t113 42.5q125 0 125 -125q0 -39 -4.5 -117t-4.5 -116q0 -45 33 -45q20 0 36 13q3 2 6 -0.5t1 -4.5zM281 208q0 8 -8 6q-80 -23 -118.5 -51.5t-38.5 -69.5q0 -65 65 -65q31 0 62 20t32 31q6 46 6 129zM352 563q0 -19 -14 -32.5t-35 -13.5q-19 0 -31.5 11
t-12.5 29q0 21 15 35.5t35 14.5q19 0 31 -12.5t12 -31.5zM167 563q0 -19 -13.5 -32.5t-34.5 -13.5q-19 0 -31.5 11t-12.5 29q0 21 15 35.5t35 14.5q19 0 30.5 -12.5t11.5 -31.5z" />
    <glyph glyph-name="aring" unicode="&#xe5;" horiz-adv-x="427" 
d="M423 36q-9 -18 -34.5 -33t-50.5 -15q-38 0 -60 55q-4 6 -9 1q-66 -57 -132 -57q-37 0 -65.5 24.5t-28.5 56.5q0 40 31.5 70t66 45t121.5 45q7 3 11 4q10 3 11 22v52q0 55 -18.5 79t-57.5 24q-30 0 -48.5 -20.5t-20.5 -54.5q-2 -33 -13.5 -46.5t-33.5 -13.5q-15 0 -24 9
t-8 24q2 39 58 81.5t113 42.5q125 0 125 -125q0 -39 -4.5 -117t-4.5 -116q0 -45 33 -45q20 0 36 13q3 2 6 -0.5t1 -4.5zM281 208q0 8 -8 6q-80 -23 -118.5 -51.5t-38.5 -69.5q0 -65 65 -65q31 0 62 20t32 31q6 46 6 129zM297 592q0 -34 -23.5 -60t-58.5 -26q-38 0 -62 24.5
t-24 60.5q0 34 24.5 58.5t62.5 24.5q36 0 58.5 -24.5t22.5 -57.5zM274 589q0 31 -17.5 49t-47.5 18q-25 0 -41 -20.5t-16 -43.5q0 -30 18 -49t45 -19t43 19.5t16 45.5z" />
    <glyph glyph-name="ae" unicode="&#xe6;" horiz-adv-x="681" 
d="M368 226q0 -83 43 -139t114 -56q76 0 112 47q2 3 7 1t3 -7q-15 -36 -59.5 -60.5t-89.5 -24.5q-62 0 -108.5 28.5t-72.5 76.5q-5 7 -9 1q-73 -106 -165 -106q-46 0 -73 26t-27 64q0 118 239 158q9 1 9 11q2 6 2 60q0 55 -18.5 79t-57.5 24q-31 0 -53.5 -21t-24.5 -54
t-14 -46.5t-34 -13.5q-14 0 -23 9t-8 24q2 39 62 81.5t117 42.5q85 0 108 -65q59 65 151 65q74 0 117 -47t43 -107q0 -3 -3 -5.5t-10.5 -4.5t-16 -4t-23.5 -4t-29 -3.5t-36 -4t-41 -5.5q-88 -12 -131 -20zM368 243q107 16 131 20q77 11 77 13q0 35 -6.5 63.5t-26.5 51.5
t-52 23q-51 0 -85 -45.5t-38 -125.5zM288 111q1 16 1 99q0 3 -2 5.5t-5 1.5q-80 -9 -123 -40t-43 -75q0 -72 64 -72q47 0 85 32q21 17 23 49z" />
    <glyph glyph-name="ccedilla" unicode="&#xe7;" horiz-adv-x="425" 
d="M252 -12q-103 1 -161 67.5t-58 157.5q0 90 63 154.5t161 64.5q61 0 102.5 -21t41.5 -51q0 -17 -14.5 -30.5t-32.5 -13.5q-20 0 -32.5 14.5t-18 32.5t-23.5 32.5t-48 14.5q-52 0 -86 -51t-34 -138q0 -82 46 -135.5t126 -53.5q35 0 69.5 15.5t49.5 39.5q2 3 6.5 1t3.5 -7
q-10 -36 -54 -62.5t-91 -30.5q-11 -17 -16 -31q-5 -10 2 -14q40 -27 55 -44.5t15 -42.5q0 -34 -30.5 -63t-77.5 -29q-26 0 -45.5 13t-19.5 29q0 11 7 19t20 8q14 0 35.5 -25t36.5 -25q16 0 25 12.5t9 30.5q0 35 -68 74q-9 6 -9 9q0 2 5 10q17 27 40 69z" />
    <glyph glyph-name="egrave" unicode="&#xe8;" horiz-adv-x="433" 
d="M410 275q-2 -5 -10.5 -7t-25 -2.5t-33 0t-44.5 1.5t-50 1q-107 0 -132 -1q-3 -17 -3 -47q0 -83 43 -136t123 -53q75 0 112 47q1 2 4 2t4.5 -2.5t0.5 -5.5q-15 -36 -59 -60.5t-90 -24.5q-104 0 -160.5 66t-56.5 159q0 91 59.5 155t153.5 64q47 0 84 -20t54.5 -47t24.5 -52
t1 -37zM328 285q4 19 0 47t-26.5 55t-60.5 27q-89 0 -124 -132q2 0 130 2q81 0 81 1zM149 668q48 -76 121 -174q5 -6 -3 -9q-3 -1 -5 1q-17 18 -85 80.5t-74 68.5q-8 8 -8 16q0 11 10.5 20t22.5 9q14 0 21 -12z" />
    <glyph glyph-name="eacute" unicode="&#xe9;" horiz-adv-x="433" 
d="M410 275q-2 -5 -10.5 -7t-25 -2.5t-33 0t-44.5 1.5t-50 1q-107 0 -132 -1q-3 -17 -3 -47q0 -83 43 -136t123 -53q75 0 112 47q1 2 4 2t4.5 -2.5t0.5 -5.5q-15 -36 -59 -60.5t-90 -24.5q-104 0 -160.5 66t-56.5 159q0 91 59.5 155t153.5 64q47 0 84 -20t54.5 -47t24.5 -52
t1 -37zM328 285q4 19 0 47t-26.5 55t-60.5 27q-89 0 -124 -132q2 0 130 2q81 0 81 1zM316 669q7 12 21 12q12 0 22.5 -9.5t10.5 -20.5q0 -7 -8 -15q-6 -6 -74 -68.5t-85 -80.5q-1 -2 -4.5 -1t-5 3.5t0.5 5.5q61 80 122 174z" />
    <glyph glyph-name="ecircumflex" unicode="&#xea;" horiz-adv-x="433" 
d="M410 275q-2 -5 -10.5 -7t-25 -2.5t-33 0t-44.5 1.5t-50 1q-107 0 -132 -1q-3 -17 -3 -47q0 -83 43 -136t123 -53q75 0 112 47q1 2 4 2t4.5 -2.5t0.5 -5.5q-15 -36 -59 -60.5t-90 -24.5q-104 0 -160.5 66t-56.5 159q0 91 59.5 155t153.5 64q47 0 84 -20t54.5 -47t24.5 -52
t1 -37zM328 285q4 19 0 47t-26.5 55t-60.5 27q-89 0 -124 -132q2 0 130 2q81 0 81 1zM356 486q-9 12 -29 34.5t-48 54.5t-41 47q-61 -70 -114 -136q-1 -2 -4 -1.5t-5 3t0 5.5q76 126 113 200q6 12 12 12q8 0 12 -12q82 -148 114 -200q2 -5 -3 -7.5t-7 0.5z" />
    <glyph glyph-name="edieresis" unicode="&#xeb;" horiz-adv-x="433" 
d="M410 275q-2 -5 -10.5 -7t-25 -2.5t-33 0t-44.5 1.5t-50 1q-107 0 -132 -1q-3 -17 -3 -47q0 -83 43 -136t123 -53q75 0 112 47q1 2 4 2t4.5 -2.5t0.5 -5.5q-15 -36 -59 -60.5t-90 -24.5q-104 0 -160.5 66t-56.5 159q0 91 59.5 155t153.5 64q47 0 84 -20t54.5 -47t24.5 -52
t1 -37zM328 285q4 19 0 47t-26.5 55t-60.5 27q-89 0 -124 -132q2 0 130 2q81 0 81 1zM377 563q0 -19 -14 -32.5t-35 -13.5q-19 0 -31.5 11t-12.5 29q0 21 15 35.5t35 14.5q19 0 31 -12.5t12 -31.5zM192 563q0 -19 -13.5 -32.5t-34.5 -13.5q-19 0 -31.5 11t-12.5 29
q0 21 15 35.5t35 14.5q19 0 30.5 -12.5t11.5 -31.5z" />
    <glyph glyph-name="igrave" unicode="&#xec;" horiz-adv-x="253" 
d="M235 -3q-44 3 -104 3q-65 0 -104 -3q-4 -1 -4 4q-1 5 5 7q9 2 21 3.5t20.5 3t13.5 4.5q5 2 7 12.5t3.5 52.5t1.5 126q0 89 -2 115t-10 34q-14 14 -44 19q-4 1 -5 3t0 3.5t3 2.5q45 8 123 62q4 3 8 -0.5t3 -6.5q-2 -7 -2 -85l-2 -147q-1 -83 0.5 -125.5t4.5 -52.5t8 -13
t13 -4.5t20.5 -3t20.5 -3.5t5 -9q-1 -3 -4 -2zM53 668q48 -76 121 -174q5 -6 -3 -9q-3 -1 -5 1q-17 18 -85 80.5t-74 68.5q-8 8 -8 16q0 11 10.5 20t22.5 9q14 0 21 -12z" />
    <glyph glyph-name="iacute" unicode="&#xed;" horiz-adv-x="253" 
d="M235 -3q-44 3 -104 3q-65 0 -104 -3q-4 -1 -4 4q-1 5 5 7q9 2 21 3.5t20.5 3t13.5 4.5q5 2 7 12.5t3.5 52.5t1.5 126q0 89 -2 115t-10 34q-14 14 -44 19q-4 1 -5 3t0 3.5t3 2.5q45 8 123 62q4 3 8 -0.5t3 -6.5q-2 -7 -2 -85l-2 -147q-1 -83 0.5 -125.5t4.5 -52.5t8 -13
t13 -4.5t20.5 -3t20.5 -3.5t5 -9q-1 -3 -4 -2zM172 669q8 12 21 12q12 0 22.5 -9.5t10.5 -20.5q0 -7 -8 -15q-6 -6 -74 -68.5t-85 -80.5q-1 -2 -4.5 -1t-5 3.5t0.5 5.5q61 80 122 174z" />
    <glyph glyph-name="icircumflex" unicode="&#xee;" horiz-adv-x="253" 
d="M235 -3q-44 3 -104 3q-65 0 -104 -3q-4 -1 -4 4q-1 5 5 7q9 2 21 3.5t20.5 3t13.5 4.5q5 2 7 12.5t3.5 52.5t1.5 126q0 89 -2 115t-10 34q-14 14 -44 19q-4 1 -5 3t0 3.5t3 2.5q45 8 123 62q4 3 8 -0.5t3 -6.5q-2 -7 -2 -85l-2 -147q-1 -83 0.5 -125.5t4.5 -52.5t8 -13
t13 -4.5t20.5 -3t20.5 -3.5t5 -9q-1 -3 -4 -2zM242 486q-9 12 -29 34.5t-48 54.5t-41 47q-61 -70 -114 -136q-1 -2 -4 -1.5t-5 3t0 5.5q76 126 113 200q6 12 12 12q8 0 12 -12q82 -148 114 -200q2 -5 -3 -7.5t-7 0.5z" />
    <glyph glyph-name="idieresis" unicode="&#xef;" horiz-adv-x="253" 
d="M235 -3q-44 3 -104 3q-65 0 -104 -3q-4 -1 -4 4q-1 5 5 7q9 2 21 3.5t20.5 3t13.5 4.5q5 2 7 12.5t3.5 52.5t1.5 126q0 89 -2 115t-10 34q-14 14 -44 19q-4 1 -5 3t0 3.5t3 2.5q45 8 123 62q4 3 8 -0.5t3 -6.5q-2 -7 -2 -85l-2 -147q-1 -83 0.5 -125.5t4.5 -52.5t8 -13
t13 -4.5t20.5 -3t20.5 -3.5t5 -9q-1 -3 -4 -2zM265 563q0 -19 -14 -32.5t-35 -13.5q-19 0 -31.5 11t-12.5 29q0 21 15 35.5t35 14.5q19 0 31 -12.5t12 -31.5zM80 563q0 -19 -13.5 -32.5t-34.5 -13.5q-19 0 -31.5 11t-12.5 29q0 21 15 35.5t35 14.5q19 0 30.5 -12.5
t11.5 -31.5z" />
    <glyph glyph-name="eth" unicode="&#xf0;" horiz-adv-x="498" 
d="M297 596l-14 -7q-41 -20 -100 -54q-4 -2 -9 4t-6 13t4 10q58 26 110 52q-88 104 -234 154q-3 1 -3 4t2 5t5 1q162 -44 267 -146l28 14q42 21 90 50q4 2 9.5 -4t6.5 -13t-4 -11q-68 -30 -98 -45l-16 -8q130 -139 130 -336q0 -131 -57.5 -211t-158.5 -80t-158.5 66.5
t-57.5 158.5q0 90 60.5 154.5t151.5 64.5q65 0 117 -26q2 -1 5.5 1.5t3.5 5.5q-9 99 -74 183zM389 209q0 127 -46 174q-34 32 -92 32q-63 0 -101 -55t-38 -139q0 -90 40 -153.5t103 -63.5q61 0 97.5 59.5t36.5 145.5z" />
    <glyph glyph-name="ntilde" unicode="&#xf1;" horiz-adv-x="510" 
d="M507 -3q-39 3 -104 3q-53 0 -97 -3q-4 -1 -4 4q-1 5 5 7q8 2 19 3.5t17.5 3t11.5 4.5q20 11 12 273q-3 91 -95 91q-54 0 -99 -50q-10 -11 -10 -26l2 -97q2 -129 4 -158t8 -33q5 -3 12.5 -4.5t19 -3t19.5 -3.5q7 -2 5 -9q-1 -3 -3 -2q-50 3 -101 3q-67 0 -104 -3
q-4 -1 -4 4q-1 5 5 7q9 2 21 3.5t20.5 3t13.5 4.5q12 7 12 191q0 86 -2.5 110.5t-9.5 31.5q-13 11 -45 14q-4 0 -5 2.5t0.5 4.5t3.5 2q17 5 35 15t27.5 17t28.5 22.5t24 19.5q4 3 7.5 1t3.5 -6q-5 -31 -7 -98q0 -2 4 -3.5t5 0.5q82 89 154 89q62 0 92 -37.5t30 -102.5
q0 -267 12 -273q5 -3 13.5 -4.5t20.5 -3t21 -3.5q8 -2 5 -9q-1 -3 -4 -2zM420 616q-7 -23 -12.5 -35.5t-15 -26.5t-24 -20t-34.5 -6q-30 0 -78 8q-45 7 -67 7q-35 0 -52 -12.5t-30 -41.5q-2 -4 -7 -2t-4 6q14 51 35.5 76.5t60.5 25.5q26 0 75 -7q54 -8 78 -8q29 0 41 9
t25 33q1 2 3.5 2t4.5 -2t1 -6z" />
    <glyph glyph-name="ograve" unicode="&#xf2;" horiz-adv-x="503" 
d="M470 206q0 -90 -61 -154t-156 -64q-104 0 -162 66t-58 159q0 90 61 154.5t155 64.5q105 0 163 -66.5t58 -159.5zM392 198q0 91 -40.5 154t-107.5 63q-58 0 -95 -55.5t-37 -138.5q0 -90 40.5 -153.5t106.5 -63.5q59 0 96 55.5t37 138.5zM172 668q48 -76 121 -174
q5 -6 -3 -9q-3 -1 -5 1q-17 18 -85 80.5t-74 68.5q-8 8 -8 16q0 11 10.5 20t22.5 9q13 0 21 -12z" />
    <glyph glyph-name="oacute" unicode="&#xf3;" horiz-adv-x="503" 
d="M470 206q0 -90 -61 -154t-156 -64q-104 0 -162 66t-58 159q0 90 61 154.5t155 64.5q105 0 163 -66.5t58 -159.5zM392 198q0 91 -40.5 154t-107.5 63q-58 0 -95 -55.5t-37 -138.5q0 -90 40.5 -153.5t106.5 -63.5q59 0 96 55.5t37 138.5zM321 669q8 12 21 12
q12 0 22.5 -9.5t10.5 -20.5q0 -7 -8 -15q-6 -6 -74 -68.5t-85 -80.5q-1 -2 -4.5 -1t-5 3.5t0.5 5.5q61 80 122 174z" />
    <glyph glyph-name="ocircumflex" unicode="&#xf4;" horiz-adv-x="503" 
d="M470 206q0 -90 -61 -154t-156 -64q-104 0 -162 66t-58 159q0 90 61 154.5t155 64.5q105 0 163 -66.5t58 -159.5zM392 198q0 91 -40.5 154t-107.5 63q-58 0 -95 -55.5t-37 -138.5q0 -90 40.5 -153.5t106.5 -63.5q59 0 96 55.5t37 138.5zM367 486q-9 12 -29 34.5t-48 54.5
t-41 47q-61 -70 -114 -136q-1 -2 -4 -1.5t-5 3t0 5.5q76 126 113 200q6 12 12 12q7 0 12 -12q82 -148 114 -200q2 -5 -3 -7.5t-7 0.5z" />
    <glyph glyph-name="otilde" unicode="&#xf5;" horiz-adv-x="503" 
d="M470 206q0 -90 -61 -154t-156 -64q-104 0 -162 66t-58 159q0 90 61 154.5t155 64.5q105 0 163 -66.5t58 -159.5zM392 198q0 91 -40.5 154t-107.5 63q-58 0 -95 -55.5t-37 -138.5q0 -90 40.5 -153.5t106.5 -63.5q59 0 96 55.5t37 138.5zM413 616q-7 -23 -12.5 -35.5
t-15 -26.5t-24 -20t-34.5 -6q-30 0 -78 8q-46 7 -67 7q-35 0 -52 -12.5t-30 -41.5q-2 -4 -7 -2t-4 6q14 51 35.5 76.5t60.5 25.5q26 0 75 -7q54 -8 78 -8q29 0 41 9t25 33q1 2 3.5 2t4.5 -2t1 -6z" />
    <glyph glyph-name="odieresis" unicode="&#xf6;" horiz-adv-x="503" 
d="M470 206q0 -90 -61 -154t-156 -64q-104 0 -162 66t-58 159q0 90 61 154.5t155 64.5q105 0 163 -66.5t58 -159.5zM392 198q0 91 -40.5 154t-107.5 63q-58 0 -95 -55.5t-37 -138.5q0 -90 40.5 -153.5t106.5 -63.5q59 0 96 55.5t37 138.5zM390 563q0 -19 -14 -32.5
t-35 -13.5q-19 0 -31.5 11t-12.5 29q0 21 15 35.5t35 14.5q19 0 31 -12.5t12 -31.5zM205 563q0 -19 -13.5 -32.5t-34.5 -13.5q-19 0 -31.5 11t-12.5 29q0 21 15 35.5t35 14.5q19 0 30.5 -12.5t11.5 -31.5z" />
    <glyph glyph-name="oslash" unicode="&#xf8;" horiz-adv-x="503" 
d="M103 42q-70 64 -70 171q0 90 61 154.5t155 64.5q76 0 130 -38q42 54 55 73q4 3 10.5 0t11.5 -10t1 -12q-33 -39 -57 -68q70 -64 70 -171q0 -90 -61 -154t-156 -64q-75 0 -130 37q-22 -28 -55 -72q-4 -3 -11 0t-11.5 10t-0.5 12q54 63 58 67zM141 88q18 22 25 31l127 166
q4 5 23.5 29.5t32.5 40.5q-41 60 -105 60q-58 0 -95 -55.5t-37 -138.5q0 -77 29 -133zM363 332q-30 -36 -50 -61l-128 -167q-2 -3 -31 -39q40 -61 105 -61q59 0 96 55.5t37 138.5q0 78 -29 134z" />
    <glyph glyph-name="ugrave" unicode="&#xf9;" horiz-adv-x="506" 
d="M484 19q-64 -17 -103 -34q-6 -4 -9 5q-11 34 -13 72q0 2 -3.5 3.5t-4.5 0.5q-66 -78 -146 -78q-61 0 -92 41.5t-29 107.5q6 236 -7 254q-10 12 -54 18q-4 0 -5 3t0.5 5.5t3.5 2.5q72 2 128 4q5 1 10 -2.5t4 -7.5q-1 -11 -3 -40t-3 -40q-5 -84 -4 -184q0 -59 22.5 -89.5
t62.5 -30.5q57 0 106 49q11 12 11 25l2 103q3 165 -7 179q-10 13 -55 26q-4 1 -5 3.5t1 5t4 2.5q65 -7 123 -1q5 0 10 -4t5 -7q-6 -33 -6 -80v-131q-5 -139 9 -156q14 -16 46 -16q4 0 5 -2t-0.5 -4t-3.5 -3zM177 668q48 -76 121 -174q5 -6 -3 -9q-3 -1 -5 1q-17 18 -85 80.5
t-74 68.5q-8 8 -8 16q0 11 10.5 20t22.5 9q14 0 21 -12z" />
    <glyph glyph-name="uacute" unicode="&#xfa;" horiz-adv-x="506" 
d="M484 19q-64 -17 -103 -34q-6 -4 -9 5q-11 34 -13 72q0 2 -3.5 3.5t-4.5 0.5q-66 -78 -146 -78q-61 0 -92 41.5t-29 107.5q6 236 -7 254q-10 12 -54 18q-4 0 -5 3t0.5 5.5t3.5 2.5q72 2 128 4q5 1 10 -2.5t4 -7.5q-1 -11 -3 -40t-3 -40q-5 -84 -4 -184q0 -59 22.5 -89.5
t62.5 -30.5q57 0 106 49q11 12 11 25l2 103q3 165 -7 179q-10 13 -55 26q-4 1 -5 3.5t1 5t4 2.5q65 -7 123 -1q5 0 10 -4t5 -7q-6 -33 -6 -80v-131q-5 -139 9 -156q14 -16 46 -16q4 0 5 -2t-0.5 -4t-3.5 -3zM306 669q8 12 21 12q12 0 22.5 -9.5t10.5 -20.5q0 -7 -8 -15
q-6 -6 -74 -68.5t-85 -80.5q-1 -2 -4.5 -1t-5 3.5t0.5 5.5q61 80 122 174z" />
    <glyph glyph-name="ucircumflex" unicode="&#xfb;" horiz-adv-x="506" 
d="M484 19q-64 -17 -103 -34q-6 -4 -9 5q-11 34 -13 72q0 2 -3.5 3.5t-4.5 0.5q-66 -78 -146 -78q-61 0 -92 41.5t-29 107.5q6 236 -7 254q-10 12 -54 18q-4 0 -5 3t0.5 5.5t3.5 2.5q72 2 128 4q5 1 10 -2.5t4 -7.5q-1 -11 -3 -40t-3 -40q-5 -84 -4 -184q0 -59 22.5 -89.5
t62.5 -30.5q57 0 106 49q11 12 11 25l2 103q3 165 -7 179q-10 13 -55 26q-4 1 -5 3.5t1 5t4 2.5q65 -7 123 -1q5 0 10 -4t5 -7q-6 -33 -6 -80v-131q-5 -139 9 -156q14 -16 46 -16q4 0 5 -2t-0.5 -4t-3.5 -3zM369 486q-9 12 -29 34.5t-48 54.5t-41 47q-61 -70 -114 -136
q-1 -2 -4 -1.5t-5 3t0 5.5q76 126 113 200q6 12 12 12q7 0 12 -12q82 -148 114 -200q2 -5 -3 -7.5t-7 0.5z" />
    <glyph glyph-name="udieresis" unicode="&#xfc;" horiz-adv-x="506" 
d="M484 19q-64 -17 -103 -34q-6 -4 -9 5q-11 34 -13 72q0 2 -3.5 3.5t-4.5 0.5q-66 -78 -146 -78q-61 0 -92 41.5t-29 107.5q6 236 -7 254q-10 12 -54 18q-4 0 -5 3t0.5 5.5t3.5 2.5q72 2 128 4q5 1 10 -2.5t4 -7.5q-1 -11 -3 -40t-3 -40q-5 -84 -4 -184q0 -59 22.5 -89.5
t62.5 -30.5q57 0 106 49q11 12 11 25l2 103q3 165 -7 179q-10 13 -55 26q-4 1 -5 3.5t1 5t4 2.5q65 -7 123 -1q5 0 10 -4t5 -7q-6 -33 -6 -80v-131q-5 -139 9 -156q14 -16 46 -16q4 0 5 -2t-0.5 -4t-3.5 -3zM386 563q0 -19 -14 -32.5t-35 -13.5q-19 0 -31.5 11t-12.5 29
q0 21 15 35.5t35 14.5q19 0 31 -12.5t12 -31.5zM201 563q0 -19 -13.5 -32.5t-34.5 -13.5q-19 0 -31.5 11t-12.5 29q0 21 15 35.5t35 14.5q19 0 30.5 -12.5t11.5 -31.5z" />
    <glyph glyph-name="yacute" unicode="&#xfd;" horiz-adv-x="462" 
d="M476 423q3 0 4.5 -2.5t0 -5t-5.5 -3.5q-9 -2 -19.5 -3t-16.5 -2.5t-12 -5.5q-28 -17 -136 -308q-75 -204 -116 -273.5t-87 -69.5q-58 0 -58 42q0 18 12 30t31 12q15 0 29.5 -8t22.5 -8q37 0 100 179q-164 393 -188 404q-7 3 -14.5 4.5t-19.5 3t-21 3.5q-4 1 -5 3.5t1 5
t4 2.5q52 -4 96 -4q82 0 134 4q6 0 4 -7q0 -3 -4 -4q-8 -2 -26.5 -3t-32 -3t-15.5 -6q-9 -20 125 -312q101 252 101 300q0 15 -60 24q-5 1 -4 6t5 5q50 -4 96 -4q23 0 75 4zM338 669q8 12 21 12q12 0 22.5 -9.5t10.5 -20.5q0 -7 -8 -15q-6 -6 -74 -68.5t-85 -80.5
q-1 -2 -4.5 -1t-5 3.5t0.5 5.5q61 80 122 174z" />
    <glyph glyph-name="thorn" unicode="&#xfe;" horiz-adv-x="507" 
d="M73 370q0 328 -12 336t-49 13q-4 0 -5 2.5t0.5 4.5t3.5 2q86 15 134 49q5 3 8.5 -0.5t2.5 -7.5q-2 -8 -8 -71l-5 -327q0 -2 3.5 -3.5t4.5 -0.5q73 56 128 56q98 0 146.5 -61t48.5 -157q0 -89 -64 -153.5t-158 -64.5q-52 0 -100 29q-8 5 -8 -4q0 -224 12 -232q7 -3 39 -6
t42 -5q8 -2 5 -9q-1 -3 -4 -2q-58 4 -130 4q-54 0 -104 -4q-4 -1 -4 4q-1 5 5 7q9 2 21 3.5t20.5 3t13.5 4.5q12 7 12 191q1 68 1 399zM144 197q0 -86 8 -116t29 -50q29 -26 85 -26q59 0 94.5 51t35.5 142q0 89 -40 136t-117 47q-33 0 -56 -10.5t-31 -20t-8 -15.5v-138z" />
    <glyph glyph-name="ydieresis" unicode="&#xff;" horiz-adv-x="462" 
d="M476 423q3 0 4.5 -2.5t0 -5t-5.5 -3.5q-9 -2 -19.5 -3t-16.5 -2.5t-12 -5.5q-28 -17 -136 -308q-75 -204 -116 -273.5t-87 -69.5q-58 0 -58 42q0 18 12 30t31 12q15 0 29.5 -8t22.5 -8q37 0 100 179q-164 393 -188 404q-7 3 -14.5 4.5t-19.5 3t-21 3.5q-4 1 -5 3.5t1 5
t4 2.5q52 -4 96 -4q82 0 134 4q6 0 4 -7q0 -3 -4 -4q-8 -2 -26.5 -3t-32 -3t-15.5 -6q-9 -20 125 -312q101 252 101 300q0 15 -60 24q-5 1 -4 6t5 5q50 -4 96 -4q23 0 75 4zM388 563q0 -19 -14 -32.5t-35 -13.5q-19 0 -31.5 11t-12.5 29q0 21 15 35.5t35 14.5q19 0 31 -12.5
t12 -31.5zM203 563q0 -19 -13.5 -32.5t-34.5 -13.5q-19 0 -31.5 11t-12.5 29q0 21 15 35.5t35 14.5q19 0 30.5 -12.5t11.5 -31.5z" />
    <glyph glyph-name="dotlessi" unicode="&#x131;" horiz-adv-x="253" 
d="M235 -3q-44 3 -104 3q-65 0 -104 -3q-4 -1 -4 4q-1 5 5 7q9 2 21 3.5t20.5 3t13.5 4.5q5 2 7 12.5t3.5 52.5t1.5 126q0 89 -2 115t-10 34q-14 14 -44 19q-4 1 -5 3t0 3.5t3 2.5q45 8 123 62q4 3 8 -0.5t3 -6.5q-2 -7 -2 -85l-2 -147q-1 -83 0.5 -125.5t4.5 -52.5t8 -13
t13 -4.5t20.5 -3t20.5 -3.5t5 -9q-1 -3 -4 -2z" />
    <glyph glyph-name="Lslash" unicode="&#x141;" horiz-adv-x="614" 
d="M211 333q0 -135 2 -201.5t4 -80.5t7 -17q22 -12 116 -12q82 0 116.5 6.5t54.5 21.5q15 12 36 55t30 79q0 1 4.5 1.5t8 -1t2.5 -3.5q-2 -7 -7.5 -53.5t-11 -88.5t-8.5 -44q-95 5 -252 5q-209 0 -266 -5q-2 0 -3.5 3t-0.5 6t5 4q10 2 24.5 4t25.5 4t16 5q13 8 14 273
q-13 -7 -34 -18t-33 -17q-4 -2 -9 4.5t-6 13.5t4 10q53 22 78 33v33q0 145 -2 218.5t-4.5 92t-7.5 20.5q-5 3 -15.5 5t-25.5 4t-25 4q-4 1 -5 4t0.5 6t3.5 3q36 -4 122 -4q70 0 120 4q3 0 4.5 -3t0 -6t-5.5 -4q-8 -2 -32.5 -5t-31.5 -8q-13 -6 -13 -326l40 18q43 20 93 48
q3 2 8 -5t6 -14t-4 -10q-51 -19 -99 -42z" />
    <glyph glyph-name="lslash" unicode="&#x142;" horiz-adv-x="247" 
d="M161 361l-1 -103q0 -232 13 -239q5 -3 13 -4.5t20 -3t21 -3.5q8 -2 5 -9q-1 -3 -4 -2q-44 3 -104 3q-65 0 -104 -3q-4 -1 -4 4q-1 5 5 7q9 2 21 3.5t20.5 3t13.5 4.5q5 2 7 17t3.5 82.5t1.5 207.5q-37 -20 -61 -33q-4 -2 -9.5 4t-6 13.5t4.5 10.5q40 16 72 30v19
q0 208 -2 269.5t-10 66.5q-13 8 -49 13q-4 0 -5 2.5t0.5 4.5t3.5 2q87 14 135 49q4 3 8 -0.5t3 -7.5q-8 -28 -8 -71l-3 -313q11 5 72 38q4 2 9 -4.5t6 -13.5t-4 -10q-72 -29 -83 -34z" />
    <glyph glyph-name="OE" unicode="&#x152;" horiz-adv-x="1077" 
d="M429 -4q-189 0 -288 103t-99 260q0 146 108 249t265 103q8 0 109.5 -2.5t131.5 -2.5q226 0 323 5q3 -2 5.5 -35.5t6 -70.5t5.5 -44q1 -3 -2.5 -4.5t-8 -1t-4.5 2.5q-30 82 -54 101q-18 14 -49.5 19.5t-111.5 5.5q-74 0 -95 -12q-5 -3 -7.5 -16t-4.5 -72.5t-2 -173.5
q0 -23 8 -28q14 -7 94 -7q69 0 86 14q25 21 36 88q0 4 4.5 5t8.5 -0.5t4 -3.5q-5 -47 -5 -114q0 -68 5 -113q0 -2 -4 -3.5t-8.5 -0.5t-4.5 5q-12 67 -34 86q-18 15 -88 15q-80 0 -94 -7q-8 -5 -8 -28q0 -124 2 -188t4.5 -78t7.5 -17q21 -12 115 -12q84 0 118.5 6t55.5 22
q15 12 37 50.5t33 72.5q0 1 4 1.5t7.5 -0.5t2.5 -4q-2 -7 -9 -51t-13.5 -83.5t-9.5 -40.5q-77 4 -342 4q-30 0 -130.5 -2t-110.5 -2zM454 20q83 0 107 13q5 2 7 17.5t4 87.5t2 215q0 119 -4 188.5t-9.5 92.5t-14.5 30q-16 13 -41 18t-99 5q-123 0 -196 -88.5t-73 -241.5
q0 -164 84.5 -250.5t232.5 -86.5z" />
    <glyph glyph-name="oe" unicode="&#x153;" horiz-adv-x="792" 
d="M769 276q-2 -5 -10.5 -7t-25 -2.5t-33.5 0t-45 1.5t-50 1q-107 0 -131 -1q-3 -13 -3 -47q0 -83 43 -136t122 -53q76 0 112 47q2 3 7 1t3 -7q-15 -36 -59.5 -60.5t-89.5 -24.5q-120 0 -179 90q-62 -90 -176 -90q-105 0 -163 66t-58 159q0 90 61 154.5t156 64.5
q120 0 181 -91q61 91 174 91q47 0 84 -20t54 -47t24 -52t2 -37zM600 415q-89 0 -124 -132q3 0 129 2q82 0 82 1q4 19 0 47t-26.5 55t-60.5 27zM392 198q0 91 -40 154t-107 63q-59 0 -96 -55.5t-37 -138.5q0 -90 40.5 -153.5t107.5 -63.5q58 0 95 55.5t37 138.5z" />
    <glyph glyph-name="Scaron" unicode="&#x160;" horiz-adv-x="546" 
d="M503 176q0 -82 -64 -138.5t-176 -56.5q-76 0 -188 47q-4 2 -7 34.5t-6 77t-4 55.5q-1 5 4.5 5.5t7.5 -2.5q32 -103 84 -148t133 -45q63 0 100.5 38t37.5 109q0 54 -35 95t-85 68.5t-100 54.5t-85 68.5t-35 95.5q0 84 60 138t165 54q71 0 142 -37q4 -2 6 -26t3.5 -61.5
t2.5 -47.5q0 -4 -2.5 -5.5t-5 -0.5t-3.5 3q-52 151 -172 151q-52 0 -85 -32.5t-33 -96.5q0 -36 19 -65t48.5 -50t66 -40.5t73 -41.5t66 -47.5t48.5 -65t19 -87.5zM168 994q9 -12 29 -34.5t48 -54.5t41 -47q61 70 114 136q1 2 4 1.5t5 -3t0 -5.5q-73 -121 -113 -201
q-6 -11 -12 -11q-7 0 -13 11q-40 80 -113 201q-3 4 2.5 7t7.5 0z" />
    <glyph glyph-name="scaron" unicode="&#x161;" horiz-adv-x="345" 
d="M319 121q0 -57 -44.5 -95t-114.5 -38q-23 0 -56.5 8.5t-48.5 17.5q-7 4 -13 36.5t-8 65.5q0 4 3 5.5t6 0t3 -3.5q9 -37 48 -73.5t76 -36.5q38 0 60.5 22t22.5 60q0 28 -21 50t-51 37t-60 30.5t-51 40t-21 56.5q0 55 41 91.5t104 36.5q62 0 87 -16q12 -7 12 -92
q0 -4 -3 -5.5t-6 0t-3 3.5q-5 30 -36.5 60t-63.5 30t-50 -18.5t-18 -49.5q0 -29 21 -50.5t51.5 -36t61 -30.5t51.5 -42.5t21 -63.5zM65 704q9 -12 29 -34.5t48 -54.5t41 -47q61 70 114 136q1 2 4 1.5t5 -3t0 -5.5q-73 -121 -113 -201q-6 -11 -12 -11q-7 0 -13 11
q-40 80 -113 201q-3 4 2.5 7t7.5 0z" />
    <glyph glyph-name="Ydieresis" unicode="&#x178;" horiz-adv-x="712" 
d="M723 711q2 0 3.5 -3t0 -6t-5.5 -4q-10 -3 -29 -5.5t-32.5 -6.5t-22.5 -13q-45 -45 -201 -292q-21 -32 -26 -51t-5 -65q0 -236 14 -243q7 -5 35.5 -8t37.5 -5q4 -1 5 -4t-0.5 -6t-3.5 -3q-37 4 -129 4q-93 0 -129 -4q-3 0 -4.5 3t0 6t5.5 4q9 2 37.5 5.5t35.5 7.5
q12 7 13 251q0 37 -24 79q-69 120 -133.5 221.5t-79.5 110.5q-9 5 -39.5 8.5t-39.5 5.5q-4 1 -5.5 4t0 6t4.5 3q65 -5 134 -5q72 0 137 5q2 0 3.5 -3.5t0 -6.5t-4.5 -3q-75 -6 -75 -19q0 -5 24.5 -51t69 -122t92.5 -155q184 286 184 323q0 15 -63 24q-4 0 -5 3.5t0.5 6.5
t3.5 3q65 -5 121 -5q29 0 96 5zM531 833q0 -19 -14 -32.5t-35 -13.5q-19 0 -31.5 11t-12.5 29q0 21 15 35.5t35 14.5q19 0 31 -12.5t12 -31.5zM346 833q0 -19 -13.5 -32.5t-34.5 -13.5q-19 0 -31.5 11t-12.5 29q0 21 15 35.5t35 14.5q19 0 30.5 -12.5t11.5 -31.5z" />
    <glyph glyph-name="Zcaron" unicode="&#x17d;" horiz-adv-x="678" 
d="M651 194q-2 -7 -11.5 -56.5t-18.5 -95t-12 -46.5q-77 4 -250 4q-237 0 -313 -4q-6 -1 -11 8t-3 13q375 487 492 660q-23 0 -107 0.5t-144 0.5q-75 0 -115 -34.5t-68 -102.5q-1 -3 -6 -4.5t-9 -0.5t-4 3q3 26 20 97t19 86q1 5 8 6.5t8 -1.5q16 -17 55.5 -22t174.5 -5
q192 0 269 4q6 1 11 -8t2 -12q-97 -126 -263 -349t-228 -312q27 0 126.5 1t111.5 1q124 0 169 33q18 14 43.5 57t38.5 82q0 1 4.5 1.5t8 -1t2.5 -3.5zM248 984q9 -12 29 -34.5t48 -54.5t41 -47q61 70 114 136q1 2 4 1.5t5 -3t0 -5.5q-73 -121 -113 -201q-6 -11 -12 -11
q-7 0 -13 11q-40 80 -113 201q-3 4 2.5 7t7.5 0z" />
    <glyph glyph-name="zcaron" unicode="&#x17e;" horiz-adv-x="411" 
d="M384 105q-2 -4 -5.5 -17t-8 -28.5t-8.5 -30.5t-8 -24.5t-6 -9.5q-55 5 -144 5q-86 0 -171 -5q-6 0 -8 3t0 6q60 81 259 390q-32 3 -106 3q-43 0 -68.5 -22.5t-42.5 -68.5q-2 -5 -8 -2.5t-5 6.5q14 73 18 118q1 6 6 6t7 -4q3 -6 12 -9.5t45.5 -6t104.5 -2.5q101 0 123 5
q6 1 8.5 -2.5t-0.5 -6.5q-90 -126 -259 -390q31 -3 112 -3q95 0 141 95q3 5 8 2t4 -7zM98 704q9 -12 29 -34.5t48 -54.5t41 -47q61 70 114 136q1 2 4 1.5t5 -3t0 -5.5q-73 -121 -113 -201q-6 -11 -12 -11q-7 0 -13 11q-40 80 -113 201q-3 4 2.5 7t7.5 0z" />
    <glyph glyph-name="florin" unicode="&#x192;" horiz-adv-x="428" 
d="M154 265q-36 1 -91 -1q-5 0 -3 16q1 11 6 10q8 0 38.5 -1.5t52.5 -2.5q25 168 79.5 240t143.5 72q39 0 63 -20.5t24 -43.5q0 -42 -42 -42q-15 0 -25.5 12t-16.5 26.5t-19 26.5t-31 12q-46 0 -63.5 -58t-34.5 -226h3q29 0 121 2q1 0 1.5 -3t0.5 -6.5t-0.5 -7.5t-1.5 -6.5
t-3 -2.5q-8 0 -45.5 1.5t-77.5 2.5q-2 -18 -8 -76q-13 -125 -35 -211t-52 -131t-62 -63t-74 -18q-49 0 -78.5 19t-29.5 44q0 21 11.5 34.5t33.5 13.5q17 0 30.5 -12.5t20.5 -28t18 -28t24 -12.5t23 6t23 28.5t23.5 62.5t21.5 113.5t21 175.5q5 51 10 83z" />
    <glyph glyph-name="circumflex" unicode="&#x2c6;" horiz-adv-x="284" 
d="M258 486q-9 12 -29 34.5t-48 54.5t-41 47q-61 -70 -114 -136q-1 -2 -4 -1.5t-5 3t0 5.5q76 126 113 200q6 12 12 12q8 0 12 -12q82 -148 114 -200q2 -5 -3 -7.5t-7 0.5z" />
    <glyph glyph-name="caron" unicode="&#x2c7;" horiz-adv-x="284" 
d="M27 704q9 -12 29 -34.5t48 -54.5t41 -47q61 70 114 136q1 2 4 1.5t5 -3t0 -5.5q-73 -121 -113 -201q-6 -11 -12 -11q-7 0 -13 11q-40 80 -113 201q-3 4 2.5 7t7.5 0z" />
    <glyph glyph-name="breve" unicode="&#x2d8;" horiz-adv-x="274" 
d="M248 651q1 4 6 4t5 -4q0 -63 -31 -107t-91 -44q-59 0 -90.5 44t-31.5 107q0 4 5 4t6 -4q6 -46 37 -75t76 -29q44 0 74 29t35 75z" />
    <glyph glyph-name="dotaccent" unicode="&#x2d9;" horiz-adv-x="152" 
d="M122 563q0 -19 -13.5 -32.5t-34.5 -13.5q-19 0 -31.5 11t-12.5 29q0 21 15 35.5t35 14.5q19 0 30.5 -12.5t11.5 -31.5z" />
    <glyph glyph-name="ring" unicode="&#x2da;" horiz-adv-x="224" 
d="M196 592q0 -34 -23.5 -60t-58.5 -26q-38 0 -62 24.5t-24 60.5q0 34 24.5 58.5t62.5 24.5q36 0 58.5 -24.5t22.5 -57.5zM173 589q0 31 -17.5 49t-47.5 18q-25 0 -41 -20.5t-16 -43.5q0 -30 18 -49t45 -19t43 19.5t16 45.5z" />
    <glyph glyph-name="ogonek" unicode="&#x2db;" horiz-adv-x="218" 
d="M210 -179q-42 -57 -100 -57q-41 0 -64.5 25.5t-23.5 63.5q0 42 36 86t95 80q3 2 6 -1t0 -6q-83 -75 -83 -143q0 -31 17.5 -49t46.5 -18q25 0 65 26q5 3 6.5 0.5t-1.5 -7.5z" />
    <glyph glyph-name="tilde" unicode="&#x2dc;" horiz-adv-x="340" 
d="M332 616q-7 -23 -12.5 -35.5t-15 -26.5t-24 -20t-34.5 -6q-30 0 -78 8q-46 7 -67 7q-35 0 -52 -12.5t-30 -41.5q-2 -4 -7 -2t-4 6q14 51 35.5 76.5t60.5 25.5q26 0 75 -7q54 -8 78 -8q29 0 41 9t25 33q1 2 3.5 2t4.5 -2t1 -6z" />
    <glyph glyph-name="hungarumlaut" unicode="&#x2dd;" horiz-adv-x="316" 
d="M128 697q8 15 21 15q10 0 18.5 -7.5t8.5 -17.5q0 -9 -6 -16q-50 -61 -141 -184q-1 -1 -4 -1t-5 2.5t0 5.5q69 124 108 203zM254 694q8 14 22 14q11 0 19.5 -8.5t8.5 -18.5q0 -9 -7 -16q-71 -75 -158 -178q-1 -2 -4.5 -1.5t-5 3t0.5 5.5q57 84 124 200z" />
    <glyph glyph-name="Delta" unicode="&#x394;" 
d="M1357 -205q-114 -80 -275 -80q-166 0 -360 75t-366 192q-150 16 -232 120.5t-82 256.5q0 148 104.5 257t252.5 109q113 0 197.5 -55t125 -139.5t40.5 -184.5q0 -124 -77 -224t-194 -132q388 -224 666 -224q119 0 194 40q1 1 3.5 -1.5t3 -5.5t-0.5 -4zM667 349
q0 157 -79.5 254.5t-197.5 97.5q-114 0 -183.5 -94t-69.5 -251q-1 -157 79 -254.5t198 -97.5q114 0 183.5 94t69.5 251z" />
    <glyph glyph-name="Omega" unicode="&#x3a9;" horiz-adv-x="597" 
d="M688 703q0 -15 -13 -28t-29 -13q-25 0 -57 26.5t-61 26.5q-50 0 -65 -61.5t-15 -236.5q69 0 145 4q3 0 5 -5t2.5 -12.5t0 -14.5t-3 -12t-6.5 -5q-55 3 -142 3v-117q0 -232 13 -239q6 -4 38.5 -6.5t41.5 -4.5q8 -2 5 -9q-1 -3 -4 -2q-43 3 -129 3q-67 0 -106 -3
q-4 -1 -4 4q-1 5 5 7q9 2 21 3.5t20.5 3t13.5 4.5q5 2 7 12.5t4 53t2 125.5v163l-212 2v-117q0 -232 13 -239q7 -4 31 -6.5t32 -4.5t5 -9q-1 -3 -4 -2q-44 3 -113 3q-65 0 -104 -3q-4 -1 -4 4q-1 5 5 7q9 2 21 3.5t20.5 3t13.5 4.5q5 2 7 19.5t4 97t2 237.5q-59 2 -82 0
q-3 0 -4 5t1 10.5t5 5.5q41 6 68 23q12 9 12 23q0 74 21.5 133.5t55.5 95t72 54t76 18.5q92 0 122 -56q59 74 155 74q92 0 92 -56zM408 627q-21 2 -37 15.5t-24.5 28.5t-25 27t-38.5 12q-118 0 -118 -293q131 0 158 1.5t43 7.5q11 3 11 22q0 108 31 179z" />
    <glyph glyph-name="pi" unicode="&#x3c0;" horiz-adv-x="691" 
d="M47 298q0 122 86 211t210 89q141 0 221 -91t80 -219q0 -122 -86 -211t-210 -89q-141 0 -221 91t-80 219zM355 2q105 0 188.5 81t83.5 207q0 133 -82 213.5t-210 80.5q-104 0 -187.5 -81t-83.5 -207q0 -133 81.5 -213.5t209.5 -80.5zM380 140q-51 3 -86 3q-27 0 -75 -3
q-1 0 -2 2.5t0 5t3 2.5q6 2 20.5 3.5t18.5 3.5q8 5 8 140t-8 140q-4 3 -18.5 4.5t-20.5 3.5q-2 0 -3 2.5t0 5t2 2.5q24 -3 75 -3q17 0 40 1.5t35 1.5q56 0 91.5 -26t35.5 -67q0 -42 -34.5 -70t-99.5 -28q-31 0 -41 1q0 -104 8 -108q4 -2 23.5 -3.5t26.5 -3.5q2 0 3 -2.5
t0 -5t-2 -2.5zM436 358q0 38 -20 59.5t-61 21.5q-19 0 -26 -5q-8 -5 -8 -143q0 -8 5 -8q10 -3 33 -3q40 0 58.5 18t18.5 60z" />
    <glyph glyph-name="endash" unicode="&#x2013;" horiz-adv-x="500" 
d="M462 244q4 0 6 -7.5t0 -15t-8 -7.5q-74 4 -108 4h-198q-40 0 -114 -4q-5 0 -7 7.5t0.5 15t8.5 7.5q74 -4 125 -4h192q27 0 103 4z" />
    <glyph glyph-name="emdash" unicode="&#x2014;" horiz-adv-x="1000" 
d="M887 244q4 0 6 -7.5t0 -15t-8 -7.5q-74 4 -108 4h-548q-40 0 -114 -4q-5 0 -7 7.5t0.5 15t8.5 7.5q74 -4 125 -4h542q27 0 103 4z" />
    <glyph glyph-name="quoteleft" unicode="&#x2018;" horiz-adv-x="225" 
d="M185 722q-80 -45 -80 -114q0 -19 7 -19q1 0 5.5 1.5t7.5 1.5q22 0 34 -13.5t12 -35.5q0 -20 -14.5 -34.5t-34.5 -14.5q-28 0 -46 23.5t-18 57.5q0 42 30 83.5t89 71.5q2 1 4.5 -0.5t3.5 -4t0 -3.5z" />
    <glyph glyph-name="quoteright" unicode="&#x2019;" horiz-adv-x="225" 
d="M166 640q0 -41 -30 -82.5t-89 -71.5q-2 -1 -4.5 0.5t-3.5 4t0 3.5q81 46 81 114q0 19 -7 19q-1 0 -5.5 -2t-7.5 -2q-22 0 -34 14t-12 36q0 20 14 34t34 14q29 0 46.5 -23t17.5 -58z" />
    <glyph glyph-name="quotesinglbase" unicode="&#x201a;" horiz-adv-x="225" 
d="M166 0q0 -41 -30 -82.5t-89 -71.5q-2 -1 -4.5 0.5t-3.5 4t0 3.5q81 46 81 114q0 19 -7 19q-1 0 -5.5 -2t-7.5 -2q-22 0 -34 14t-12 36q0 20 14 34t34 14q29 0 46.5 -23t17.5 -58z" />
    <glyph glyph-name="quotedblleft" unicode="&#x201c;" horiz-adv-x="378" 
d="M338 722q-80 -45 -80 -114q0 -19 7 -19q1 0 5.5 1.5t7.5 1.5q22 0 34 -13.5t12 -35.5q0 -20 -14.5 -34.5t-34.5 -14.5q-28 0 -46 23.5t-18 57.5q0 42 30 83.5t89 71.5q2 1 4.5 -0.5t3.5 -4t0 -3.5zM185 722q-80 -45 -80 -114q0 -19 7 -19q1 0 5.5 1.5t7.5 1.5
q22 0 34 -13.5t12 -35.5q0 -20 -14.5 -34.5t-34.5 -14.5q-28 0 -46 23.5t-18 57.5q0 42 30 83.5t89 71.5q2 1 4.5 -0.5t3.5 -4t0 -3.5z" />
    <glyph glyph-name="quotedblright" unicode="&#x201d;" horiz-adv-x="378" 
d="M319 640q0 -41 -30 -82.5t-89 -71.5q-2 -1 -4.5 0.5t-3.5 4t0 3.5q81 46 81 114q0 19 -7 19q-1 0 -5.5 -2t-7.5 -2q-22 0 -34 14t-12 36q0 20 14 34t34 14q29 0 46.5 -23t17.5 -58zM166 640q0 -41 -30 -82.5t-89 -71.5q-2 -1 -4.5 0.5t-3.5 4t0 3.5q81 46 81 114
q0 19 -7 19q-1 0 -5.5 -2t-7.5 -2q-22 0 -34 14t-12 36q0 20 14 34t34 14q29 0 46.5 -23t17.5 -58z" />
    <glyph glyph-name="quotedblbase" unicode="&#x201e;" horiz-adv-x="378" 
d="M319 0q0 -41 -30 -82.5t-89 -71.5q-2 -1 -4.5 0.5t-3.5 4t0 3.5q81 46 81 114q0 19 -7 19q-1 0 -5.5 -2t-7.5 -2q-22 0 -34 14t-12 36q0 20 14 34t34 14q29 0 46.5 -23t17.5 -58zM166 0q0 -41 -30 -82.5t-89 -71.5q-2 -1 -4.5 0.5t-3.5 4t0 3.5q81 46 81 114q0 19 -7 19
q-1 0 -5.5 -2t-7.5 -2q-22 0 -34 14t-12 36q0 20 14 34t34 14q29 0 46.5 -23t17.5 -58z" />
    <glyph glyph-name="dagger" unicode="&#x2020;" horiz-adv-x="519" 
d="M469 481q0 -20 -15.5 -31t-33.5 -11q-20 0 -51 15t-41 15q-25 0 -37 -11.5t-12 -26.5q0 -23 19 -34q4 -3 2 -12q-15 -57 -24.5 -202.5t-9.5 -263.5q0 -6 -6.5 -6t-6.5 6q0 118 -9.5 263.5t-24.5 202.5q-2 9 2 12q19 11 19 34q0 15 -12 26.5t-37 11.5q-11 0 -42 -15
t-50 -15t-34 11t-15 31q0 16 10.5 26.5t24.5 10.5q19 0 30.5 -18.5t14.5 -18.5q1 0 22 17.5t37 17.5q31 0 49 -31q1 -2 4.5 0t3.5 3q-2 12 -15 41t-13 54q0 20 16 40t16 21q0 3 -11.5 17t-11.5 27t8.5 25t23.5 12q16 0 24.5 -12t8.5 -25t-11.5 -27t-11.5 -17q0 -1 15.5 -21
t15.5 -40q0 -25 -12.5 -54t-14.5 -41q0 -1 3.5 -3t4.5 0q18 31 49 31q16 0 37 -17.5t22 -17.5q3 0 14.5 18.5t30.5 18.5q14 0 24.5 -11t10.5 -26z" />
    <glyph glyph-name="daggerdbl" unicode="&#x2021;" horiz-adv-x="481" 
d="M431 550q0 -16 -12.5 -27t-33.5 -11q-17 0 -44 13.5t-36 13.5q-22 0 -34 -13.5t-12 -31.5q0 -12 6.5 -23t15.5 -12q2 -1 3 -5t-1 -7q-2 -2 -6 -7.5t-5.5 -7.5t-4.5 -7.5t-4.5 -9.5t-4 -11.5t-4.5 -16t-3.5 -20t-3.5 -25.5q-1 -5 -6.5 -5t-6.5 5q-2 16 -4 28.5t-5 22.5
t-4 15.5t-5.5 12.5t-5 8.5t-6 9t-6.5 8.5q-3 3 -2 7t4 5q9 1 15 11.5t6 23.5q0 18 -11.5 31.5t-33.5 13.5q-10 0 -36.5 -13.5t-43.5 -13.5q-21 0 -33.5 11t-12.5 27q0 14 9.5 24t21.5 10q13 0 21 -9t12 -17.5t8 -8.5q1 0 18 17t31 17q35 0 48 -30q1 -1 4.5 0.5t3.5 2.5
q-1 6 -9 22t-8 28q0 14 9 26t9 15t-10 15.5t-10 25.5t8.5 25t23.5 12q16 0 24.5 -12t8.5 -25t-10.5 -25.5t-10.5 -15.5t9 -15t9 -26q0 -12 -7.5 -28t-8.5 -22q0 -1 3.5 -2.5t4.5 -0.5q13 30 47 30q14 0 31.5 -17t18.5 -17q3 0 13 17.5t28 17.5q12 0 21.5 -10t9.5 -24z
M431 100q0 -14 -9.5 -24t-21.5 -10q-18 0 -28 17t-13 17q-1 0 -18.5 -16.5t-31.5 -16.5q-34 0 -47 29q-2 2 -5 0.5t-3 -2.5q2 -7 9 -23t7 -27q0 -14 -9 -26.5t-9 -15.5t10.5 -15t10.5 -25t-8.5 -25t-24.5 -12q-15 0 -23.5 12t-8.5 25t10 25t10 15t-9 15.5t-9 26.5
q0 11 7.5 26.5t9.5 23.5q0 1 -3.5 2.5t-4.5 -0.5q-13 -29 -48 -29q-14 0 -31 16.5t-18 16.5q-4 0 -8 -8.5t-12 -17t-21 -8.5q-12 0 -21.5 10t-9.5 24q0 16 12.5 27t33.5 11q17 0 43.5 -13.5t36.5 -13.5q22 0 33.5 13t11.5 31q0 31 -21 36q-3 1 -4 5t2 7q1 2 5.5 7.5t5.5 7.5
t4.5 7.5t5 9.5t4 11.5t4 15.5t3.5 20t4 26q1 5 6.5 5t6.5 -5q2 -16 4 -28.5t4.5 -22.5t4 -15.5t5.5 -12t5.5 -9t6.5 -9t6 -8.5q2 -3 1 -7t-3 -5q-22 -5 -22 -36q0 -18 12 -31t34 -13q9 0 36 13.5t44 13.5q21 0 33.5 -11t12.5 -27z" />
    <glyph glyph-name="bullet" unicode="&#x2022;" horiz-adv-x="449" 
d="M299 360q0 -31 -21 -52.5t-53 -21.5q-36 0 -55.5 22.5t-19.5 53.5t21 53t53 22q35 0 55 -22.5t20 -54.5z" />
    <glyph glyph-name="ellipsis" unicode="&#x2026;" horiz-adv-x="651" 
d="M591 37q0 -20 -14 -34.5t-36 -14.5q-20 0 -33.5 12t-13.5 31q0 23 13.5 37.5t35.5 14.5q20 0 34 -13.5t14 -32.5zM374 37q0 -20 -14 -34.5t-36 -14.5q-20 0 -33.5 12t-13.5 31q0 23 13.5 37.5t35.5 14.5q20 0 34 -13.5t14 -32.5zM157 37q0 -20 -14 -34.5t-36 -14.5
q-20 0 -33.5 12t-13.5 31q0 23 13.5 37.5t35.5 14.5q20 0 34 -13.5t14 -32.5z" />
    <glyph glyph-name="perthousand" unicode="&#x2030;" horiz-adv-x="1094" 
d="M347 516q18 -6 39 -6q42 0 93.5 26t90.5 74q5 6 18 -3t7 -17q-85 -118 -177 -261l-55 -84q-160 -246 -173 -269q-3 -3 -10 -1t-13 9t-2 12q17 23 86 124t92 137l55 84q11 16 66.5 100.5t77.5 118.5q-79 -69 -161 -69q-16 0 -31 3q1 -7 1 -21q0 -55 -24.5 -115.5
t-73.5 -105t-108 -44.5q-46 0 -73 32t-27 94q0 55 24.5 115.5t73.5 105t108 44.5q78 0 96 -83zM744 113q0 55 24.5 115t73.5 105t108 45q45 0 72 -31.5t27 -93.5q0 -55 -24.5 -115.5t-73.5 -105t-108 -44.5q-45 0 -72 31.5t-27 93.5zM410 113q0 55 24.5 115t73.5 105t108 45
q45 0 72 -31.5t27 -93.5q0 -55 -24.5 -115.5t-73.5 -105t-108 -44.5q-45 0 -72 31.5t-27 93.5zM294 524q-22 21 -33 56q-8 2 -15 2q-31 0 -65.5 -53t-56.5 -122.5t-22 -118.5q0 -64 48 -64q31 0 65.5 53.5t56.5 123t22 118.5v5zM848 4q31 0 65.5 53.5t56.5 123t22 118.5
q0 63 -48 63q-31 0 -65.5 -53.5t-56.5 -123t-22 -118.5q0 -63 48 -63zM514 4q31 0 65.5 53.5t56.5 123t22 118.5q0 63 -48 63q-31 0 -65.5 -53.5t-56.5 -123t-22 -118.5q0 -63 48 -63z" />
    <glyph glyph-name="guilsinglleft" unicode="&#x2039;" horiz-adv-x="286" 
d="M67 216q83 65 152 130q2 2 6 -2t2 -6q-62 -87 -103 -127q33 -33 103 -131q2 -2 -2 -5.5t-6 -1.5q-76 73 -152 130q-3 3 -3 7q0 3 3 6z" />
    <glyph glyph-name="guilsinglright" unicode="&#x203a;" horiz-adv-x="286" 
d="M219 203q-83 -65 -152 -130q-1 -1 -3.5 0t-4 4t-0.5 4q62 87 103 127q-33 33 -103 131q-2 2 2 5.5t6 1.5q76 -73 152 -130q3 -3 3 -7q0 -3 -3 -6z" />
    <glyph glyph-name="fraction" unicode="&#x2044;" horiz-adv-x="633" 
d="M212 242l190 237q176 220 198 252q4 3 10.5 0t11.5 -10t1 -12q-65 -75 -201 -244l-191 -238q-184 -231 -198 -251q-4 -3 -11 0t-11.5 10t-0.5 12q45 49 202 244z" />
    <glyph glyph-name="trademark" unicode="&#x2122;" horiz-adv-x="493" 
d="M150 697h-17q-1 -16 -1 -69q0 -67 4 -71q2 -2 10.5 -2.5t11.5 -1.5q2 -1 2 -4t-2 -3q-18 2 -42 2q-26 0 -42 -2q-2 2 0 7q3 1 12 1.5t11 2.5q4 2 4 71q0 33 -2 69h-14q-34 0 -46 -38l-7 -1l6 54q0 1 1.5 2t2.5 0q11 -8 76 -8q66 0 74 8q1 1 3 0.5t2 -2.5q-1 -6 0 -29
t1 -27h-6l-1 1q-10 40 -41 40zM393 709q0 1 2 1q6 -1 30 -1q7 0 19.5 0.5t14.5 0.5q1 0 1 -3t-1 -3q-15 -1 -20 -5q-7 -6 -8 -20.5t2 -50.5q4 -68 7 -71q2 -2 10.5 -2.5t11.5 -1.5q4 -2 1 -7q-18 2 -44 2q-23 0 -41 -2q-2 0 -2 3t2 4q3 1 10 2t9 2q5 2 6 13.5t-1 60.5t-2 55
q-1 1 -3 1q-57 -134 -61 -143q-2 -3 -7 0q-30 76 -59 138q0 1 -1 1t-1 -1q-3 -22 -3 -54q-1 -69 3 -71q2 -1 9 -2t10 -2q2 -2 0 -7q-16 2 -33 2q-12 0 -30 -2q-2 0 -2 3t2 4q3 1 8 1.5t8.5 1t4.5 1.5q7 3 11 71q4 63 -8 70q-6 5 -20 6q-4 0 -1 6q3 0 16 -0.5t20 -0.5
q23 0 29 1h1q1 -1 2 -1q16 -46 46 -120q0 -1 1.5 -1t1.5 1q20 44 49 120z" />
    <glyph glyph-name="radical" unicode="&#x221a;" horiz-adv-x="838" 
d="M819 -3q-43 3 -103 3q-66 0 -105 -3q-2 -1 -3 2q-3 7 4 9q9 2 21 3.5t20.5 3t13.5 4.5q5 2 7 18.5t4 95.5t2 238q-74 4 -224 4v-117q0 -232 13 -239q7 -4 39.5 -6.5t41.5 -4.5q7 -2 5 -9q-1 -3 -4 -2q-43 3 -130 3q-66 0 -105 -3q-2 -1 -3 2q-2 7 5 9q8 2 20 3.5t20.5 3
t13.5 4.5q5 2 7 19.5t4 97t2 237.5l-219 2v-117q0 -232 12 -239q7 -4 31.5 -6.5t32.5 -4.5q7 -2 5 -9q-1 -3 -4 -2q-43 3 -113 3q-65 0 -104 -3q-4 -1 -4 4q-1 5 5 7q9 2 21 3.5t20.5 3t13.5 4.5q5 2 7 20t3.5 96t1.5 238q-58 2 -81 0q-3 0 -4 5t0.5 10.5t4.5 5.5
q42 6 69 23q11 8 11 23q0 73 22.5 135t58 99t75 57.5t76.5 20.5q41 0 79 -15.5t56 -39.5q56 62 142 62q45 0 90 -29q12 8 32.5 25t27.5 22q4 3 7.5 -0.5t2.5 -7.5q-2 -8 -8 -71l-4 -440q0 -232 13 -239q5 -3 13 -4.5t20 -3t21 -3.5q8 -2 5 -9q-1 -3 -4 -2zM419 633
q-22 6 -58 47t-71 41q-53 0 -88.5 -70t-35.5 -234q132 0 162 1.5t46 7.5q11 3 11 20q0 111 34 187zM680 421q0 129 -7 176.5t-26 75.5q-32 45 -97 45q-60 0 -77 -57.5t-17 -243.5q146 0 224 4z" />
    <glyph glyph-name="approxequal" unicode="&#x2248;" horiz-adv-x="819" 
d="M802 -3q-45 3 -105 3q-65 0 -104 -3q-4 -1 -4 4q-1 5 5 7q9 2 21 3.5t20.5 3t13.5 4.5q5 2 7 12.5t4 53t2 125.5q0 87 -2.5 114t-10.5 35q-14 16 -51 17l-149 2v-120q0 -232 12 -239q7 -4 39.5 -6.5t41.5 -4.5q8 -2 5 -9q-1 -3 -4 -2q-43 3 -130 3q-66 0 -105 -3
q-4 -1 -4 4q-1 5 5 7q9 2 21 3.5t20.5 3t13.5 4.5q5 2 7 12.5t4 53t2 125.5v163l-212 2v-117q0 -232 13 -239q7 -4 31 -6.5t32 -4.5q7 -2 5 -9q-1 -3 -4 -2q-44 3 -113 3q-65 0 -104 -3q-4 -1 -4 4q-1 5 5 7q9 2 21 3.5t20.5 3t13.5 4.5q5 2 7 19.5t4 97t2 237.5
q-59 2 -82 0q-3 0 -4 5t1 10.5t5 5.5q41 7 68 23q12 9 12 23q0 74 21.5 133.5t55.5 95t72 54t76 18.5q45 0 86 -18.5t55 -45.5q77 82 183 82q49 0 78.5 -23t29.5 -49q0 -17 -12 -29.5t-30 -12.5q-30 0 -71 30t-73 30q-44 0 -68 -22.5t-36 -85t-12 -180.5q32 0 150 2
q84 0 128 30q4 3 7.5 -0.5t2.5 -6.5q-2 -9 -2 -85l-2 -147q-1 -83 0.5 -125.5t4.5 -52.5t8 -13t13.5 -4.5t20.5 -3t20 -3.5q7 -2 5 -9q-1 -3 -3 -2zM419 621q-24 4 -45 26.5t-42.5 42.5t-48.5 20q-118 0 -118 -293q131 0 158 1.5t43 7.5q11 3 11 18q0 101 42 177z" />
    <glyph glyph-name="apple" unicode="&#xf8ff;" horiz-adv-x="967" 
d="M868 0h-767v750h767v-750zM859 -104h-6l-3 20l-10 -21h-2l-10 21l-3 -20h-6l6 34h1l13 -26l13 26h1zM806 -87q0 -18 -17 -18q-7 0 -12 5t-5 12q0 18 18 18q7 0 11.5 -5t4.5 -12zM758 -96l-1 -6q-3 -3 -10 -3q-18 0 -18 17q0 8 5.5 13t12.5 5t11 -3l-2 -5q-3 3 -9 3
q-12 0 -12 -12q0 -13 13 -13q4 0 10 4zM702 -71l-13 -19v-14h-6v14l-14 19l6 1l11 -15l9 14h7zM656 -104h-6v15h-16v-15h-6v33h6v-13h16v13h6v-33zM612 -82q0 -12 -17 -12v-10h-6v33q23 3 23 -11zM576 -104h-6l-4 8h-14l-3 -8h-6l15 34h2zM534 -104h-7l-8 11h-5v-11h-6v33
q23 3 23 -10q0 -7 -7 -10zM491 -101q-6 -4 -13 -4q-18 0 -18 17q0 8 5.5 13t13.5 5q6 0 12 -4l-2 -5q-4 4 -11 4q-12 0 -12 -13q0 -12 13 -12q2 0 6 2v7h-9v5h15v-15zM447 -87q0 -18 -17 -18q-7 0 -12 5t-5 12q0 18 18 18q7 0 11.5 -5t4.5 -12zM400 -82q0 -12 -17 -12v-10
h-6v33q23 3 23 -11zM364 -71l-13 -19v-14h-6v14l-14 19l6 1l11 -15l9 14h7zM323 -71v-5h-12v-28h-6v28h-12v5h30zM267 -71l-12 -34h-1l-11 23l-10 -23h-1l-12 34l6 1l7 -23l10 23h1l10 -23l7 22h6zM211 -71l-12 -34h-1l-11 23l-10 -23h-1l-12 34l6 1l7 -23l10 23h1l10 -23
l7 22h6zM155 -71l-12 -34h-1l-11 23l-10 -23h-1l-12 34l6 1l7 -23l10 23h1l10 -23l7 22h6zM716 -101q0 -4 -4 -4t-4 4t4 4t4 -4zM284 -101q0 -4 -4 -4t-4 4t4 4t4 -4zM559 686q0 8 -1 12q-2 -1 -17 -1t-18 1l-1 -12h2q4 9 10 9q3 0 3 -3v-23q-1 -5 -5 -5v-2h17v2l-4 2
q-1 1 -1 3v23q0 3 3 3t5.5 -2.5t3.5 -4.5l1 -2h2zM504 662v2q-6 -1 -6 5v21l6 5v2h-18v-1v-1l4 -2q1 -1 1 -3v-9h-17v9q1 5 5 5v1v1h-17v-2l4 -2q1 -1 1 -3v-21l-5 -5v-2h17v2q-5 0 -5 5v10h17v-10q-1 -5 -5 -5v-2h18zM439 664l-4 2q-1 1 -1 3v21q1 5 5 5v2h-29l-2 -10l2 -1
q3 8 9 8h4q4 0 4 -3v-10h-4l-6 5h-2v-13h2q0 6 6 6h4v-11q0 -3 -4 -3h-4q-3 0 -5.5 2.5t-3.5 4.5l-1 2l-2 -1l2 -11h30v2zM827 618v6h-685v-6h685zM696 540q0 15 -11.5 26.5t-25.5 11.5q-8 0 -15.5 -5.5t-7.5 -16.5q0 -16 11 -27t26 -11q8 0 15.5 5.5t7.5 16.5zM589 537
q0 12 -14 17q5 3 5 9q0 15 -21 15q-13 0 -13 -11q0 -6 5 -6q4 0 4 3q0 2 -1.5 3.5t-1.5 2.5q0 5 7 5q10 0 10 -12q0 -4 -2 -6q-16 2 -16 -6q0 -6 8 -6q6 0 11 5q6 -4 6 -15q0 -14 -12 -14t-12 9q0 3 3 3l1 -1q2 -1 4 -1q4 0 4 5t-7 5q-9 0 -9 -10q0 -13 16 -13q25 0 25 19z
M295 537q0 12 -14 17q5 3 5 9q0 15 -21 15q-13 0 -13 -11q0 -6 5 -6q4 0 4 3q0 2 -1.5 3.5t-1.5 2.5q0 5 7 5q10 0 10 -12q0 -4 -2 -6q-16 2 -16 -6q0 -6 8 -6q6 0 11 5q6 -4 6 -15q0 -14 -12 -14t-12 9q0 3 3 3l1 -1q2 -1 4 -1q4 0 4 5t-7 5q-9 0 -9 -10q0 -13 16 -13
q25 0 25 19zM820 522q-8 -1 -10 8l-7 35q-1 4 1 6t4 2h2l-1 3h-28l1 -3q7 1 9 -8l3 -15h-24l-3 15q-1 4 1 6t4 2h2l-1 3h-29l1 -3q8 1 10 -8l7 -35q1 -4 -1 -6t-4 -2h-2l1 -3h29l-1 3q-8 -1 -10 8l-3 16h24l3 -16q1 -4 -1 -6t-4 -2h-2l1 -3h29zM498 519l-1 3q-8 -1 -10 8
l-7 35q-1 4 1 6t4 2h2l-1 3h-45v-17h4q-1 13 13 13h4q5 0 6 -6l3 -16h-4q-4 0 -7 2t-4 4l-1 3h-3l5 -23h3q-1 11 8 11h4l3 -17q1 -4 -1 -6t-4 -2h-2l1 -3h29zM202 522q-8 -1 -10 8l-7 35q-1 4 1 6t4 2h2l-1 3h-27q-20 0 -20 -15q0 -13 19 -15l-9 -16q-2 -4 -5.5 -6t-6.5 -2
h-2l1 -3h19l12 23q2 3 5 3l3 -15q1 -4 -1 -6t-4 -2h-2l1 -3h29zM400 521q0 8 -13 9q-4 2 -5 14.5t-5.5 23t-18.5 10.5q-5 0 -9 -3.5t-4 -6.5q0 -5 5 -5q4 0 4 6t5 6t7 -8t4.5 -19.5t9.5 -17.5q-8 0 -14 -6.5t-9 -6.5q-5 0 -5 4q0 2 1 3t1 2q0 5 -5 5t-5 -7q0 -4 5 -8t10 -4
q10 0 15 6.5t10 6.5q4 -7 12 -7q4 0 4 3zM827 475v6h-685v-6h685zM827 378v62h-147v-62h36v28h11v-65h-14v-33h81v33h-14v65h11v-28h36zM648 406v34h-81v-34h11l-15 -23l-15 23h10v34h-62v-34h12l37 -46v-19h-14v-33h81v33h-15v20l37 45h14zM458 308v33h-14v65h14v34h-96
q-21 0 -34 -11.5t-13 -28.5q0 -18 13 -29t34 -11h30v-19h-15v-33h81zM283 308v33h-14v65h14v34h-141v-62h41v28h33v-20h-24v-24h24v-21h-33v28h-41v-61h141zM827 271v6h-685v-6h685zM728 192q0 15 -11.5 26.5t-25.5 11.5q-8 0 -15.5 -5.5t-7.5 -16.5q0 -16 11 -27t26 -11
q8 0 15.5 5.5t7.5 16.5zM203 217q-7 13 -18 13q-15 0 -14 -23q-7 23 -21 23q-12 0 -12 -12l3 -1q0 6 8 6q16 0 24 -33q2 -8 0.5 -11.5t-3.5 -3.5h-3l1 -4h28l-1 4q-7 -2 -10 9q-5 17 -5 25q0 13 9 13q5 0 12 -7zM823 171l-1 3q-8 -1 -10 8l-7 35q-1 4 1 6t4 2h2l-1 3h-45
v-17h4q-1 13 13 13h4q5 0 6 -6l3 -16h-4q-4 0 -7 2t-4 4l-1 3h-3l5 -23h3q-1 11 8 11h4l3 -17q1 -4 -1 -6t-4 -2h-2l1 -3h29zM621 225l-1 3h-29l1 -3q8 1 10 -9l5 -21q5 -20 -11 -20q-14 0 -20 22l-4 19q-1 5 1 7t4 2h2v3h-24l1 -3q9 1 11 -9l4 -19q5 -27 28 -27q24 0 19 24
l-5 22q-1 5 1 7t4 2h3zM522 174q-6 0 -9 10l-7 32q-1 4 1 6.5t5 2.5h2l-1 3h-14l-29 -42l-5 30q-1 4 1 6t4 2l2 1l-1 3h-21l1 -3q7 0 9 -9l8 -45l3 -1l30 44l6 -30q1 -5 -0.5 -7.5t-3.5 -2.5h-2l1 -3h21zM414 171l-1 4q-7 -2 -10 9l-8 31q-3 9 8 10l-1 3h-30q-25 0 -25 -22
q0 -15 11 -25t24 -10h32zM306 174q-8 -1 -10 8l-7 35q-1 4 1 6t4 2h2l-1 3h-27q-20 0 -20 -15q0 -13 19 -15l-9 -16q-2 -4 -5.5 -6t-6.5 -2h-2l1 -3h19l12 23q2 3 5 3l3 -15q1 -4 -1 -6t-4 -2h-2l1 -3h29zM827 127v6h-685v-6h685zM694 46v2q-6 1 -6 5v20l6 6v2h-10l-24 -26
v18q0 2 1.5 3.5t2.5 1.5l2 1v2h-15v-2q6 -1 6 -6v-28h3l25 28v-20l-5 -5v-2h14zM633 48l-4 2q-1 1 -1 3v21q1 5 5 5v2h-29l-2 -10l2 -1q3 8 9 8h4q4 0 4 -3v-10h-4l-6 5h-2v-13h2q0 6 6 6h4v-11q0 -3 -4 -3h-4q-3 0 -5.5 2.5t-3.5 4.5l-1 2l-2 -1l2 -11h30v2zM583 81h-15v-2
l2 -5l-9 -19l-5 10l4 8l6 6v2h-26l1 -2q3 0 7 -6l3 -5l-7 -13l-8 18l2 6v2h-13v-2q4 -1 6 -6l13 -27h1q1 -1 1 0l8 16l9 -16h1l12 27q1 3 3 4.5t3 1.5h1v2zM480 79v2h-15v-2l1 -5l-6 -9l-6 9l3 5v2h-15v-2q5 0 8 -5l8 -12v-8l-5 -6v-2h17v2q-5 0 -5 6v8l8 12zM425 64
q0 18 -20 18t-20 -18q0 -19 20 -19t20 19zM364 46v2q-5 0 -5 5v20l5 6v2h-18q-13 0 -13 -9q0 -5 9 -9l-7 -10l-8 -5v-2h11l7 12q3 4 7 4v-9l-5 -5v-2h17zM309 46v2q-6 1 -6 6v20l6 5v2h-18v-2q6 0 6 -5v-9q-2 0 -4 2l-8 8l1 4v2h-14v-2q5 -1 8 -4l10 -9l-13 -13l-7 -5v-2h17
v2l-2 5l8 8q2 2 4 2v-9q0 -3 -1.5 -4.5t-3.5 -1.5h-1v-2h18zM606 -83q0 8 -11 7v-13q11 0 11 6zM525 -82q0 8 -11 6v-12q11 -1 11 6zM394 -83q0 8 -11 7v-13q11 0 11 6zM564 -92l-5 12l-5 -12h10zM800 -88q0 13 -11 13t-11 -12q0 -13 11 -13t11 12zM441 -88q0 13 -11 13
t-11 -12q0 -13 11 -13t11 12zM176 548h-5q-15 0 -15 15q0 9 8 9t9 -5zM566 553q-3 -4 -7 -4t-4 2q0 3 4 3q5 0 7 -1zM272 553q-3 -4 -7 -4t-4 2q0 3 4 3q5 0 7 -1zM684 535q0 -13 -11 -13q-9 0 -17 11.5t-8 26.5q0 14 11 14q9 0 17 -12t8 -27zM392 384h-11q-13 0 -13 11
t13 11h11v-22zM280 200h-5q-15 0 -15 15q0 9 8 9t9 -5zM716 187q0 -13 -11 -13q-9 0 -17 11.5t-8 26.5q0 14 11 14q9 0 17 -12t8 -27zM393 182q0 -7 -4 -7h-5q-11 0 -18.5 10t-7.5 22q0 17 14 17h6q4 -1 6 -7zM553 70v9q5 0 0 -9zM352 64h-3q-8 0 -8 8q0 6 7 6q4 0 4 -4v-10
zM417 64q0 -17 -12 -17t-12 17q0 16 12 16t12 -16z" />
    <glyph glyph-name="fi" unicode="&#xfb01;" horiz-adv-x="547" 
d="M529 -3q-43 3 -104 3q-67 0 -104 -3q-4 -1 -4 4q-1 5 5 7q9 2 21 3.5t20.5 3t13.5 4.5q12 7 12 191q0 136 -12 149q-16 16 -51 17l-161 2v-120q0 -232 13 -239q7 -4 39.5 -6.5t41.5 -4.5q7 -2 5 -9q-1 -3 -4 -2q-44 3 -130 3q-66 0 -105 -3q-2 -1 -3 2q-3 7 4 9
q9 2 21 3.5t20.5 3t13.5 4.5q5 2 7 19.5t4 97t2 237.5q-59 2 -82 0q-3 0 -4 5t1 10.5t5 5.5q41 6 68 23q12 7 12 23q0 146 81 232.5t185 86.5q48 0 79 -23t31 -49q0 -17 -12 -29.5t-30 -12.5q-30 0 -72 30t-75 30q-44 0 -67.5 -22.5t-36 -85.5t-12.5 -180q44 0 162 2
q84 0 127 30q4 3 8 -0.5t3 -6.5q-2 -7 -2 -85l-2 -147q-1 -82 0.5 -125.5t4 -53t7.5 -12.5t13.5 -4.5t20.5 -3t21 -3.5q8 -2 5 -9q-1 -3 -4 -2z" />
    <glyph glyph-name="fl" unicode="&#xfb02;" horiz-adv-x="564" 
d="M542 -3q-44 3 -104 3q-65 0 -104 -3q-4 -1 -4 4q-1 5 5 7q9 2 21 3.5t20.5 3t13.5 4.5q5 2 7 19t3.5 95t1.5 238q-74 4 -236 4v-117q0 -232 13 -239q6 -4 38.5 -6.5t41.5 -4.5q8 -2 5 -9q-1 -3 -4 -2q-44 3 -130 3q-65 0 -104 -3q-4 -1 -4 4q-1 5 5 7q9 2 21 3.5t20.5 3
t13.5 4.5q5 2 7 20t3.5 96t1.5 238q-58 2 -81 0q-3 0 -4 5t1 10.5t5 5.5q41 7 68 23q11 8 11 23q0 160 65.5 239.5t164.5 79.5q47 0 92 -29q12 8 31.5 25t27.5 22q4 3 8 -0.5t3 -7.5q-8 -28 -8 -71l-4 -440q0 -232 13 -239q5 -3 13 -4.5t20 -3t21 -3.5q8 -2 5 -9
q-1 -3 -4 -2zM403 421q-1 129 -8 174t-27 72q-36 51 -102 51q-61 0 -80.5 -59.5t-19.5 -241.5q157 0 237 4z" />
    </font>
</defs>
</svg>
